<?xml version="1.0" standalone="no"?>
<!DOCTYPE svg PUBLIC "-//W3C//DTD SVG 1.1//EN" "http://www.w3.org/Graphics/SVG/1.1/DTD/svg11.dtd" >
<svg xmlns="http://www.w3.org/2000/svg">
<metadata>Generated by IcoMoon</metadata>
<defs>
<font id="icomoon" horiz-adv-x="1024">
<font-face units-per-em="1024" ascent="896" descent="-128" />
<missing-glyph horiz-adv-x="1024" />
<glyph unicode="&#x20;" d="" />
<glyph unicode="&#xe600;" glyph-name="paixu" d="M564.224 851.968q43.008 0 58.368-20.48t15.36-65.536q0-20.48 0.512-64.512t0.512-93.696 0.512-96.768 0.512-74.752q0-38.912 7.68-61.952t35.328-22.016q19.456 0 48.128-1.024t49.152-1.024q35.84 0 45.568-18.944t-13.824-49.664q-24.576-30.72-57.344-72.704t-68.096-86.016-69.12-86.528-59.392-75.264q-23.552-29.696-45.568-30.72t-45.568 27.648q-24.576 29.696-57.344 69.632t-67.072 82.432-67.584 83.968-59.904 74.24q-29.696 35.84-22.528 58.88t44.032 23.040h24.576q14.336 0 29.696 0.512t30.208 1.536 26.112 1.024q26.624 0 32.768 15.36t6.144 41.984q0 29.696-0.512 77.824t-0.512 100.352-0.512 101.376-0.512 79.872q0 13.312 2.048 27.648t9.728 26.112 20.992 19.456 36.864 7.68q27.648 0 53.248 0.512t57.344 0.512z" />
<glyph unicode="&#xe603;" glyph-name="search" d="M846.689 116.993l-121.042 121.050c89.144 121.709 78.73 293.561-31.255 403.549-121.49 121.499-318.496 121.499-439.984 0-121.51-121.499-121.51-318.491 0-439.989 109.978-109.989 281.842-120.404 403.549-31.254l121.048-121.048c18.691-18.691 48.999-18.691 67.683 0 18.713 18.691 18.713 48.996 0.001 67.692zM305.176 252.376c-93.458 93.46-93.458 244.988 0 338.448 93.46 93.463 244.988 93.463 338.447 0 93.468-93.46 93.468-244.988 0-338.448-93.458-93.46-244.985-93.46-338.447 0z" />
<glyph unicode="&#xe609;" glyph-name="download" d="M906.952-38.074h-789.904c-28.463 0-51.503 23.639-51.503 52.756v263.817c0 29.115 23.040 52.752 51.503 52.752 28.457 0 51.557-23.637 51.557-52.752v-211.067h686.845v211.067c0 29.115 23.102 52.752 51.504 52.752 28.459 0 51.502-23.637 51.502-52.752v-263.816c-0.001-29.116-23.046-52.757-51.504-52.757v0zM704.816 436.635l-154.562-175.88c-9.41-10.717-23.043-17.444-38.227-17.444-15.241 0-28.875 6.727-38.342 17.444v0l-154.504 175.88c-8.216 9.348-13.218 21.732-13.218 35.306 0 29.115 23.042 52.751 51.498 52.751 15.243 0 28.818-6.727 38.285-17.444v0l64.721-73.71v319.783c0 29.113 23.099 52.752 51.557 52.752 28.461 0 51.504-23.638 51.504-52.752v0-319.784l64.717 73.709c9.41 10.717 23.101 17.445 38.343 17.445 28.401 0 51.441-23.636 51.441-52.751 0.003-13.574-5-25.958-13.213-35.305v0 0z" />
<glyph unicode="&#xe60a;" glyph-name="loginaccount" d="M513.176 344.866c-113.37 0-205.272 91.159-205.272 203.576 0 112.458 91.901 203.56 205.272 203.56 113.353 0 205.255-91.159 205.255-203.56 0-112.47-91.901-203.576-205.255-203.576v0 0zM513.176 833.416c-158.696 0-287.371-127.584-287.371-285.033 0-157.393 128.634-284.973 287.371-284.973s287.308 127.582 287.308 284.973c0.001 157.449-128.623 285.033-287.308 285.033v0 0zM513.176 344.866c-226.765 0-410.538-182.276-410.538-407.146h82.111c0 179.843 147.045 325.69 328.427 325.69 181.37 0 328.411-145.847 328.411-325.69h82.111c0 224.869-183.768 407.146-410.522 407.146v0 0zM513.176 344.866" />
<glyph unicode="&#xe60b;" glyph-name="logineye" d="M893.753 383.997c-50.418 78.336-113.657 136.918-189.694 175.746 20.261-34.541 30.391-71.878 30.391-112.024 0-61.383-21.815-113.911-65.44-157.579-43.625-43.674-96.157-65.489-157.583-65.444-61.427 0.044-113.954 21.858-157.579 65.444-43.63 43.581-65.444 96.109-65.444 157.579 0 40.147 10.136 77.484 30.396 112.024-76-38.826-139.232-97.41-189.701-175.746 44.14-68.050 99.468-122.239 165.995-162.551 66.525-40.313 138.632-60.471 216.331-60.471s149.805 20.159 216.331 60.471c66.533 40.312 121.861 94.501 165.997 162.551v0 0zM535.327 575.162c0 6.625-2.319 12.274-6.946 16.949-4.63 4.67-10.281 6.985-16.948 6.946-41.506 0-77.104-14.851-106.8-44.54-29.694-29.696-44.539-65.293-44.539-106.799 0-6.625 2.318-12.274 6.945-16.949 4.631-4.67 10.281-6.99 16.949-6.945 6.667 0.044 12.318 2.362 16.949 6.945 4.63 4.589 6.945 10.238 6.945 16.949 0 28.55 10.136 52.932 30.396 73.154 20.261 20.222 44.647 30.351 73.154 30.391 6.623 0 12.273 2.318 16.948 6.945 4.671 4.634 6.986 10.282 6.947 16.954v0zM957.479 383.997c0-11.299-3.317-22.745-9.941-34.341-46.473-76.339-108.942-137.487-187.406-183.456-78.462-45.962-161.339-68.945-248.637-68.94-87.297 0-170.178 23.066-248.642 69.199-78.457 46.128-140.927 107.193-187.399 183.191-6.629 11.602-9.941 23.048-9.941 34.346 0 11.3 3.311 22.75 9.941 34.346 46.473 75.999 108.942 137.065 187.404 183.197 78.459 46.133 161.34 69.199 248.637 69.199 87.298 0 170.18-23.066 248.642-69.199 78.458-46.133 140.928-107.2 187.401-183.197 6.625-11.595 9.941-23.045 9.941-34.345v0zM957.479 383.997" />
<glyph unicode="&#xe60c;" glyph-name="logineyeslash" d="M734.147 677.232l-23.447 14.613c-17.911 11.163-41.699 5.641-52.861-12.268l-16.655-26.723c-42.089 11.92-85.318 17.887-129.69 17.887-87.297 0-170.178-23.066-248.637-69.199-78.462-46.133-140.931-107.2-187.404-183.197-6.629-11.597-9.941-23.047-9.941-34.346s3.311-22.745 9.941-34.346c46.473-75.999 108.942-137.064 187.399-183.191 18.758-11.029 37.771-20.733 57.035-29.122l-14.068-22.573c-11.163-17.911-5.641-41.699 12.268-52.861l23.447-14.613c17.911-11.163 41.699-5.641 52.861 12.268l352.021 564.81c11.162 17.911 5.641 41.699-12.269 52.862zM353.787 191.726c-20.023 8.249-39.589 18.145-58.69 29.72-66.526 40.313-121.854 94.501-165.995 162.551 50.468 78.336 113.701 136.919 189.699 175.746-20.261-34.541-30.396-71.878-30.396-112.024 0-61.47 21.815-113.998 65.444-157.579 12.836-12.825 26.447-23.755 40.825-32.809l-40.887-65.604zM528.381 558.209c-4.675-4.627-10.325-6.945-16.948-6.945-28.507-0.040-52.894-10.171-73.154-30.391-20.261-20.223-30.396-44.604-30.396-73.154 0-6.712-2.314-12.362-6.945-16.949-4.631-4.583-10.282-6.901-16.949-6.945-6.668-0.045-12.318 2.274-16.949 6.945-4.627 4.675-6.945 10.325-6.945 16.949 0 41.506 14.845 77.103 44.539 106.799 29.696 29.69 65.294 44.54 106.8 44.54 6.667 0.039 12.318-2.276 16.948-6.946 4.627-4.675 6.946-10.325 6.946-16.949 0.038-6.673-2.277-12.322-6.947-16.954zM669.011 290.139c43.626 43.668 65.44 96.196 65.44 157.579 0 3.985-0.104 7.941-0.304 11.87l-135.844-217.96c25.714 10.904 49.287 27.066 70.707 48.511zM947.538 418.343c-37.334 61.054-85.001 112.46-142.978 154.24-0.065-0.108-0.125-0.218-0.191-0.326l-33.677-54.035c47.152-35.287 88.178-80.025 123.063-134.225-44.135-68.050-99.464-122.239-165.994-162.551-55.661-33.729-115.231-53.339-178.711-58.848l-40.707-65.311c1.052-0.007 2.101-0.027 3.154-0.027 87.298-0.005 170.175 22.978 248.637 68.94 78.463 45.968 140.933 107.117 187.406 183.456 6.625 11.597 9.941 23.043 9.941 34.341-0.001 11.3-3.318 22.75-9.942 34.346z" />
<glyph unicode="&#xe60d;" glyph-name="loginlock" d="M700.446 527.509h-448.788c-0.506 0-1.066 0-1.572-0.055-6.851 105.118 43.523 203.503 149.203 223.719 117.924 22.63 185.928-2.36 226.808-105.684 7.751-19.43 23.756-33.975 44.308-30.041 20.496 3.928 36.275 24.313 29.985 44.193-45.203 140.947-156.448 196.261-315.364 165.826-149.538-28.64-223.72-172.059-207.774-321.147-0.783-0.506-1.512-1.012-2.299-1.461-33.58-24.091-55.537-63.287-55.537-107.596v-326.088c0-72.888 59.298-132.131 132.242-132.131h448.788c72.943 0 132.191 59.242 132.191 132.188v326.031c0 72.892-59.247 132.247-132.191 132.247v0zM757.221 69.232c0-31.164-25.551-56.715-56.775-56.715h-448.788c-31.22 0-56.659 25.551-56.659 56.715v326.030c0 31.224 25.439 56.664 56.659 56.664h448.788c31.224 0 56.775-25.44 56.775-56.664v-326.030zM546.976 267.627c0 39.136-31.669 70.867-70.921 70.867-39.196 0-70.865-31.615-70.865-70.867 0-22.574 10.778-42.341 27.175-55.37l-12.968-122.98c-0.227-2.751 0.616-5.277 2.356-7.356 1.799-1.85 4.323-3.145 7.021-3.145h94.958c5.167 0 9.434 4.267 9.434 9.434 0 1.293-0.227 2.417-0.733 3.539l-12.745 120.452c16.455 13.084 27.29 32.797 27.29 55.425v0zM546.976 267.627" />
<glyph unicode="&#xe60e;" glyph-name="unfold" d="M512 820.907c240.299 0 436.907-196.608 436.907-436.907s-196.608-436.907-436.907-436.907-436.907 196.608-436.907 436.907 196.608 436.907 436.907 436.907M512 893.724c-283.989 0-509.724-225.735-509.724-509.724s225.735-509.724 509.724-509.724 509.724 225.735 509.724 509.724-225.735 509.724-509.724 509.724zM257.138 384c0 0 0 0 0-0.001 0-20.108 16.301-36.409 36.409-36.409s36.409 16.301 36.409 36.409c0 0 0 0 0 0.001v0c0 0 0 0 0 0.001 0 20.108-16.301 36.409-36.409 36.409s-36.409-16.301-36.409-36.409c0 0 0 0 0-0.001v0zM694.044 384c0 0 0 0 0-0.001 0-20.108 16.301-36.409 36.409-36.409s36.409 16.301 36.409 36.409c0 0 0 0 0 0.001v0c0 0 0 0 0 0.001 0 20.108-16.301 36.409-36.409 36.409s-36.409-16.301-36.409-36.409c0 0 0 0 0-0.001v0zM475.591 602.453c0-20.108 16.301-36.409 36.409-36.409s36.409 16.301 36.409 36.409v0c0 20.108-16.301 36.409-36.409 36.409s-36.409-16.301-36.409-36.409v0zM475.591 165.547c0-20.108 16.301-36.409 36.409-36.409s36.409 16.301 36.409 36.409v0c0 20.108-16.301 36.409-36.409 36.409s-36.409-16.301-36.409-36.409v0zM293.547 420.409h436.907v-72.818h-436.907zM475.591 602.453h72.818v-436.907h-72.818z" />
<glyph unicode="&#xe610;" glyph-name="quanping" d="M277.752 674.009l105.475 0.424c15.596-0.391 30.064 10.413 32.428 28.828v19.887c-0.391 15.627-13.278 28.545-28.875 28.889l-201.398-1.189c-0.299 0.032-0.503 0.14-0.768 0.14l-14.123 0.315c-7.8 0.188-14.782-2.866-19.761-7.923-5.059-5.026-6.923-12.042-6.718-19.887l1.504-14.156c0-0.281-1.049-0.47-1.049-0.783l0.783-202.386c0.344-15.596 13.232-24.959 28.874-25.304h20.983c15.595-0.344 27.982 13.231 27.636 28.812l-0.877 110.062 138.861-136.636c15.093-15.126 39.521-15.126 54.616 0 15.048 15.127 15.048 39.571 0 54.712l-137.591 136.197zM877.771 61.136l-0.814 199.27c-0.391 15.581-13.279 24.911-28.875 25.255l-19.839 0.033c-15.55 0.36-27.982-13.262-27.591-28.859l0.878-107.699-138.861 137.529c-15.094 15.127-39.49 15.127-54.586 0-15.077-15.127-15.077-39.569 0-54.695l138.844-137.419-105.334-0.423c-15.597 0.346-30.033-9.237-32.43-27.653v-19.885c0.392-15.628 13.328-28.546 28.875-28.938l198.816 1.205c0.313 0 0.5-0.124 0.798-0.124l14.092-0.344c7.799-0.188 14.828 2.865 19.808 7.94 5.090 4.979 6.905 12.025 6.748 19.87l-1.55 14.123c-0.030 0.345 1.019 0.547 1.019 0.815zM415.297 286.664c-15.081 15.127-39.524 15.127-54.602 0l-138.875-136.633 0.892 108.355c0.344 15.628-12.040 29.249-27.606 28.858h-20.983c-15.641-0.391-28.528-9.677-28.874-25.304l-0.816-200.756c0-0.282 1.050-0.471 1.050-0.784l-1.504-14.125c-0.173-7.844 1.645-14.891 6.702-19.87 4.979-5.072 12.010-8.126 19.762-7.938l14.125 0.344c0.282 0 0.468 0.124 0.783 0.124l201.384-1.205c15.596 0.392 28.499 13.31 28.874 28.936v19.887c-2.348 18.413-16.816 27.996-32.381 27.653l-106.682 0.344 138.752 137.421c15.062 15.079 15.062 39.568 0 54.695zM608.163 483.099c15.094-15.127 39.49-15.127 54.583 0l138.862 137.483-0.893-110.909c-0.375-15.581 12.057-29.203 27.606-28.858h19.838c15.598 0.391 28.484 9.722 28.875 25.304l0.798 202.432c0 0.313-1.033 0.502-1.033 0.783l1.534 14.156c0.157 7.844-1.659 14.86-6.748 19.886-4.98 5.058-12.010 8.111-19.793 7.893l-14.093-0.314c-0.313 0-0.502-0.11-0.813-0.157l-201.699 1.205c-15.595-0.361-28.482-13.279-28.872-28.906l-0.049-19.887c2.396-18.445 16.882-29.203 32.428-28.858l107.026-0.422-137.513-136.199c-15.124-15.063-15.124-39.507-0.044-54.634z" />
<glyph unicode="&#xe615;" glyph-name="tagnewclose" d="M549.533 384.014l154.716 154.702c10.684 10.685 10.684 28.047 0 38.678-10.685 10.685-27.995 10.685-38.678 0l-154.718-154.706-154.73 154.706c-10.685 10.685-27.993 10.685-38.678 0s-10.685-27.993 0-38.678l154.71-154.722-154.71-154.7c-10.685-10.684-10.685-27.994 0-38.679 10.658-10.684 27.993-10.684 38.678 0l154.709 154.698 154.738-154.75c10.684-10.631 28.021-10.631 38.705 0 10.657 10.685 10.657 28.047-0.001 38.73l-154.74 154.717zM684.921 182.476c-7.344 0-14.245 2.844-19.436 8.008l-154.655 154.666-154.625-154.613c-5.188-5.187-12.092-8.047-19.432-8.047-7.342 0-14.235 2.857-19.414 8.047-10.71 10.71-10.71 28.137 0 38.846l154.627 154.613-154.626 154.638c-10.709 10.71-10.709 28.134 0 38.844 5.188 5.188 12.087 8.048 19.423 8.048s14.232-2.858 19.423-8.048l154.647-154.624 154.635 154.625c5.188 5.188 12.087 8.048 19.423 8.048s14.233-2.858 19.424-8.048c5.18-5.154 8.037-12.032 8.048-19.368 0.008-7.361-2.849-14.279-8.048-19.478l-154.631-154.62 154.657-154.635c10.698-10.723 10.698-28.175 0.002-38.898-5.188-5.164-12.093-8.008-19.437-8.008zM510.833 345.482l154.822-154.835c5.144-5.12 11.987-7.939 19.268-7.939s14.125 2.82 19.27 7.939c10.606 10.632 10.605 27.932-0.002 38.564l-154.823 154.801 154.798 154.786c5.154 5.154 7.988 12.012 7.979 19.311-0.008 7.271-2.841 14.090-7.979 19.202-5.145 5.145-11.985 7.978-19.255 7.978s-14.11-2.833-19.254-7.979l-154.802-154.79-154.811 154.789c-5.145 5.145-11.984 7.979-19.254 7.979s-14.11-2.833-19.254-7.979c-10.618-10.618-10.618-27.893 0-38.511l154.793-154.806-154.793-154.781c-10.619-10.618-10.619-27.893 0-38.512 5.133-5.144 11.967-7.979 19.245-7.979s14.12 2.833 19.265 7.979l154.792 154.78z" />
<glyph unicode="&#xe61a;" glyph-name="huishouzhan" d="M896 640v-576c0-70.692-57.308-128-128-128v0h-512c-70.692 0-128 57.308-128 128v0 576h-64v64h192v64c0 35.346 28.654 64 64 64v0h384c35.346 0 64-28.654 64-64v0-64h192v-64h-64zM704 768h-384v-64h384v64zM832 640h-640v-576c0-35.346 28.654-64 64-64v0h512c35.346 0 64 28.654 64 64v0 576zM576 512h64v-384h-64v384zM384 512h64v-384h-64v384z" />
<glyph unicode="&#xe62e;" glyph-name="jiantou-copy-copy" horiz-adv-x="1000" d="M764.226 234.57v364.149c0 28.44-23.051 51.491-51.491 51.491h-364.149c-28.44 0-51.491-23.051-51.491-51.491s23.051-51.491 51.491-51.491h239.829l-349.073-349.073c-20.119-20.119-20.119-52.711 0-72.831s52.711-20.119 72.831 0l349.073 349.073v-239.829c-0.001-14.202 5.754-27.093 15.076-36.415s22.195-15.094 36.415-15.076c28.44 0 51.491 23.051 51.491 51.491z" />
<glyph unicode="&#xe646;" glyph-name="fold" d="M512-128c-282.819 0-512 229.181-512 512s229.181 512 512 512 512-229.181 512-512-229.181-512-512-512zM512 831.976c-1.39 0.016-3.031 0.024-4.674 0.024-247.437 0-448.024-200.587-448.024-448.024s200.587-448.024 448.024-448.024c1.644 0 3.285 0.009 4.924 0.027l-0.25-0.002c245.418 2.642 443.35 202.206 443.35 448s-197.932 445.358-443.1 447.998l-0.25 0.002zM243.81 361.813c0.138 25.697 20.96 46.485 46.657 46.568h465.002c25.795 0 46.665-20.675 46.665-46.568-0.138-25.697-20.96-46.485-46.657-46.568h-465.002c-0.058 0-0.127 0-0.195 0-25.665 0-46.47 20.805-46.47 46.47 0 0.034 0 0.069 0 0.103v-0.005z" />
<glyph unicode="&#xe648;" glyph-name="close-fat" d="M632.866 384.722l243.176 243.182c33.578 33.578 33.578 88.010 0 121.594-33.578 33.572-88.010 33.572-121.588 0l-243.182-243.182-243.182 243.182c-33.584 33.572-88.016 33.572-121.594 0-33.578-33.584-33.578-88.016 0-121.594l243.182-243.182-243.182-243.182c-33.578-33.578-33.578-88.010 0-121.594 33.578-33.572 88.010-33.572 121.594 0l243.182 243.182 243.182-243.182c33.578-33.572 88.010-33.572 121.588 0 33.578 33.584 33.578 88.016 0 121.594l-243.176 243.182z" />
<glyph unicode="&#xe65a;" glyph-name="shouqilai" d="M434.229 143.689c6.371 0 12.737 2.462 17.549 7.372 9.498 9.69 9.342 25.246-0.35 34.743l-199.356 195.382 199.356 195.383c9.692 9.498 9.848 25.053 0.35 34.743s-25.054 9.847-34.743 0.35l-217.258-212.93c-4.716-4.62-7.373-10.945-7.373-17.547s2.657-12.926 7.373-17.547l217.258-212.928c4.781-4.686 10.99-7.023 17.195-7.023v0zM758.617 144.712c6.371 0 12.737 2.462 17.549 7.372 9.498 9.69 9.342 25.246-0.35 34.743l-199.356 195.382 199.356 195.383c9.692 9.498 9.848 25.053 0.35 34.743s-25.054 9.847-34.743 0.35l-217.258-212.93c-4.716-4.62-7.373-10.945-7.373-17.547s2.657-12.926 7.373-17.547l217.258-212.928c4.781-4.686 10.99-7.023 17.195-7.023v0z" />
<glyph unicode="&#xe664;" glyph-name="arrow-down" d="M511.277 202.478c-13.264 0-26.477 5.086-36.543 15.204l-258.578 259.366c-20.185 20.236-20.185 53.058 0 73.295 20.237 20.291 52.953 20.291 73.137 0l221.984-222.612 221.983 222.612c20.185 20.292 52.902 20.291 73.086 0 20.237-20.237 20.237-53.058 0-73.295l-258.526-259.366c-10.066-10.118-23.33-15.204-36.543-15.204h0.002z" />
<glyph unicode="&#xe683;" glyph-name="shaixuan" d="M795.329 744.694c25.417 0 46.095-20.679 46.095-46.098 0-11.34-3.944-21.828-11.402-30.33-0.699-0.792-1.432-1.673-2.14-2.575l-0.099-0.131-242.93-251.516c-10.485-10.845-16.946-25.637-16.946-41.938v0-356.056l-150.807 122.229v241.453c0 16.289-6.452 31.072-16.94 41.931l0.017-0.017-234.577 243.129c-1.117 1.574-2.168 2.921-3.272 4.22l0.071-0.086c-7.106 8.4-10.864 18.666-10.864 29.688 0 25.419 20.68 46.098 46.095 46.098l597.7-0.001zM795.329 805.060h-597.699c-58.698 0-106.462-47.763-106.462-106.463 0-25.345 8.902-49.483 25.145-68.68 1.267-2.040 2.669-3.81 4.248-5.403l-0.002 0.002 236.175-244.784v-255.877c0-9.054 4.039-17.153 10.395-22.636 0.368-0.344 0.709-0.7 1.094-1.027l212.23-172.015c5.039-4.311 11.634-6.934 18.841-6.934 0.014 0 0.029 0 0.043 0h-0.002c8.277 0 16.503 3.498 22.283 10.308 5.556 6.545 7.692 14.826 6.655 22.715v417.84l244.010 252.636c1.167 1.167 2.183 2.42 3.119 3.717 17.038 19.423 26.388 44.162 26.388 70.14 0 58.699-47.758 106.46-106.462 106.46" />
<glyph unicode="&#xe695;" glyph-name="edit" d="M342.533 335.449c-0.583-0.779-1.167-1.582-1.435-2.553l-45.292-171.657c-2.627-9.998 0.073-20.773 7.225-28.362 5.351-5.401 12.405-8.367 19.921-8.367 2.482 0 4.96 0.292 7.394 0.973l164.846 46.484c0.267 0 0.389-0.244 0.583-0.244 1.898 0 3.771 0.706 5.156 2.213l440.807 455.667c13.087 13.549 20.263 32.010 20.263 52.103 0 22.767-9.34 45.511-25.687 62.393l-41.618 43.103c-16.346 16.906-38.383 26.587-60.374 26.587-19.435 0-37.289-7.418-50.422-20.943l-440.708-455.813c-0.462-0.438-0.339-1.071-0.656-1.582M898.587 674.238l-43.783-45.244-70.954 74.554 43.151 44.611c6.811 7.103 20.044 6.055 27.876-2.067l41.667-43.103c4.329-4.5 6.811-10.46 6.811-16.371-0.025-4.839-1.68-9.244-4.768-12.383M420.906 328.297l318.065 328.865 71.027-74.603-317.482-328.234-71.611 73.971zM362.964 194.951l22.987 87.228 61.321-63.389-84.308-23.838zM926.511 493.655c-16.687 0-30.357-14.035-30.428-31.524v-424.823c0-22.282-17.489-40.379-39.065-40.379h-695.092c-21.551 0-39.111 18.097-39.111 40.379v693.413c0 22.306 17.562 40.402 39.111 40.402h447.665c16.784 0 30.406 14.107 30.406 31.451 0 17.318-13.622 31.429-30.406 31.429h-452.311c-52.515 0-95.279-44.174-95.279-98.514v-702.998c0-54.34 42.762-98.489 95.279-98.489h704.335c52.566 0 95.279 44.149 95.279 98.489v429.86c-0.050 17.271-13.694 31.306-30.382 31.306z" />
<glyph unicode="&#xe69a;" glyph-name="wenhao1" d="M526.489 871.15c-261.764 0-473.972-212.207-473.972-473.972 0-261.77 212.206-473.972 473.972-473.972 261.769 0 473.972 212.202 473.972 473.972 0 261.763-212.203 473.972-473.972 473.972v0zM523.462 119.677c-27.509 0-49.806 21.874-49.806 48.86s22.297 48.86 49.806 48.86c27.508 0 49.81-21.874 49.81-48.86s-22.303-48.86-49.81-48.86v0zM711.32 453.276c-13.676-21.54-42.815-50.933-87.467-88.071-23.131-19.219-37.454-34.681-43.037-46.401-5.588-11.674-8.135-32.63-7.609-62.738h-99.555c-0.27 14.272-0.399 23.003-0.399 26.1 0 32.238 5.337 58.722 16.002 79.503s31.996 44.213 63.984 70.171c31.959 25.993 51.125 43.011 57.357 51.074 9.61 12.75 14.448 26.774 14.448 42.111 0 21.247-8.579 39.478-25.618 54.644-17.046 15.163-40.053 22.77-68.979 22.77-27.866 0-51.171-7.925-69.946-23.715-18.747-15.793-34.83-50.666-38.663-72.258-3.613-20.357-101.769-28.931-100.591 12.317 1.181 41.251 22.685 86.045 59.504 118.55 36.823 32.475 85.155 48.729 144.979 48.729 62.948 0 113.039-16.445 150.224-49.329 37.217-32.887 55.777-71.172 55.777-114.831 0-24.176-6.795-47.049-20.41-68.621v0z" />
<glyph unicode="&#xe6a6;" glyph-name="add" d="M581.858-27.701c0-36.587-31.277-66.245-69.858-66.245s-69.858 29.659-69.858 66.245v828.053c0 36.586 31.277 66.245 69.858 66.245s69.858-29.659 69.858-66.245v-828.053zM922.414 456.182c38.581 0 69.858-31.276 69.858-69.857s-31.277-69.858-69.858-69.858h-820.828c-38.581 0-69.858 31.277-69.858 69.858s31.277 69.857 69.858 69.857h820.828z" />
<glyph unicode="&#xe6b0;" glyph-name="tuichuquanping" d="M277.508 563.121l-113.115-0.439c-16.699 0.439-32.256-11.162-34.805-30.938v-21.357c0.439-16.787 14.238-30.586 30.938-30.938l215.947 1.318c0.352 0 0.527-0.176 0.791-0.176l15.117-0.352c8.35-0.176 15.82 3.076 21.182 8.525 5.449 5.361 7.383 12.92 7.207 21.357l-1.582 15.205c0 0.264 1.143 0.527 1.143 0.879l-0.879 217.002c-0.352 16.699-14.15 26.719-30.938 27.158h-22.412c-16.699 0.352-29.971-14.15-29.619-30.85l0.967-118.037-148.887 146.25c-16.172 16.172-42.363 16.172-58.535 0-16.172-16.26-16.172-42.451 0-58.623l147.48-145.986zM603.846 246.539l0.879-213.662c0.439-16.699 14.238-26.719 30.938-27.070h21.27c16.699-0.352 29.971 14.238 29.619 30.938l-0.967 115.488 148.887-147.48c16.172-16.26 42.363-16.26 58.535 0s16.172 42.451 0 58.623l-148.887 147.393 112.939 0.439c16.699-0.352 32.168 9.932 34.805 29.619v21.357c-0.439 16.787-14.326 30.586-30.938 31.025l-213.135-1.318c-0.352 0-0.527 0.176-0.879 0.176l-15.117 0.352c-8.35 0.176-15.908-3.076-21.27-8.525-5.449-5.361-7.383-12.92-7.207-21.27l1.67-15.117c0-0.439-1.143-0.703-1.143-0.967zM129.939 4.84c16.172-16.26 42.363-16.26 58.535 0l148.887 146.514-0.967-116.191c-0.352-16.787 12.92-31.377 29.619-30.938h22.5c16.787 0.439 30.586 10.371 30.938 27.158l0.879 215.244c0 0.264-1.143 0.527-1.143 0.879l1.582 15.117c0.176 8.438-1.758 15.996-7.207 21.27-5.361 5.449-12.832 8.701-21.182 8.525l-15.117-0.352c-0.264 0-0.527-0.176-0.879-0.176l-215.859 1.318c-16.699-0.439-30.586-14.238-30.938-31.025v-21.357c2.549-19.775 18.018-29.971 34.717-29.619l114.346-0.352-148.711-147.393c-16.084-16.172-16.084-42.363 0-58.623zM893.006 767.73c-16.172 16.172-42.275 16.172-58.447 0l-148.887-147.393 0.967 118.916c0.439 16.699-12.92 31.289-29.619 30.938h-21.27c-16.699-0.439-30.498-10.459-30.938-27.158l-0.879-217.002c0-0.352 1.143-0.527 1.143-0.879l-1.67-15.205c-0.176-8.438 1.758-15.908 7.207-21.357 5.361-5.449 12.832-8.701 21.182-8.438l15.117 0.352c0.352 0 0.527 0.088 0.879 0.176l216.211-1.318c16.699 0.352 30.498 14.238 30.938 31.025l0.088 21.357c-2.549 19.775-18.105 31.289-34.805 30.938l-114.697 0.439 147.393 145.986c16.26 16.172 16.26 42.363 0.088 58.623z" />
<glyph unicode="&#xe6c2;" glyph-name="arrow-left-copy" d="M249.032 384.877c0 16.097 6.173 32.133 18.452 44.35l314.774 313.818c24.559 24.497 64.392 24.497 88.953 0 24.625-24.561 24.625-64.265 0-88.761l-270.169-269.406 270.169-269.405c24.626-24.497 24.625-64.203 0-88.699-24.561-24.561-64.392-24.561-88.953 0l-314.774 313.755c-12.28 12.216-18.452 28.314-18.452 44.35v-0.002z" />
<glyph unicode="&#xe6c3;" glyph-name="arrow-right-copy" d="M774.968 383.123c0-16.097-6.173-32.133-18.452-44.35l-314.774-313.818c-24.559-24.497-64.392-24.497-88.953 0-24.625 24.561-24.625 64.265 0 88.761l270.169 269.406-270.169 269.405c-24.626 24.497-24.625 64.203 0 88.699 24.561 24.561 64.392 24.561 88.953 0l314.774-313.755c12.28-12.216 18.452-28.314 18.452-44.35v0.002z" />
<glyph unicode="&#xe6d9;" glyph-name="jiahao-lanse" d="M860.098 729.847c-93.428 93.007-217.681 144.227-349.854 144.227s-256.426-51.221-349.893-144.227c-93.459-93.040-144.966-216.798-144.966-348.441 0-131.676 51.501-255.396 145.005-348.473 93.459-93.002 217.714-144.229 349.886-144.229s256.432 51.26 349.822 144.266c93.537 93.040 145.037 216.798 145.005 348.473 0 131.607-51.468 255.364-145.005 348.404zM757.689 416.738h-212.097v212.097c0 19.547-15.837 35.351-35.352 35.351s-35.345-15.804-35.345-35.351v-212.097h-212.103c-19.51 0-35.345-15.835-35.345-35.351s15.835-35.347 35.345-35.347h212.103v-212.103c0-19.51 15.835-35.345 35.351-35.345s35.347 15.835 35.347 35.345v212.103h212.097c19.547 0 35.351 15.837 35.351 35.352s-15.804 35.345-35.351 35.345z" />
<glyph unicode="&#xe6da;" glyph-name="jianhao-lanse" d="M857.317 730.529c-93.428 93.007-217.681 144.227-349.854 144.227s-256.426-51.221-349.893-144.227c-93.459-93.040-144.966-216.798-144.966-348.441 0-131.676 51.501-255.396 145.005-348.473 93.459-93.002 217.714-144.229 349.886-144.229s256.432 51.26 349.822 144.266c93.537 93.040 145.037 216.798 145.005 348.473 0 131.607-51.468 255.364-145.005 348.404zM754.947 417.438h-494.897c-19.51 0-35.345-15.835-35.345-35.351s15.835-35.347 35.345-35.347h494.897c19.547 0 35.351 15.837 35.351 35.352s-15.804 35.345-35.351 35.345z" />
<glyph unicode="&#xe6db;" glyph-name="jinli" d="M512-108.058c-66.416 0-130.855 13.011-191.525 38.674-58.593 24.782-111.211 60.257-156.392 105.439-45.182 45.181-80.657 97.798-105.439 156.392-25.662 60.671-38.674 125.109-38.674 191.524 0 66.416 13.011 130.855 38.674 191.525 24.782 58.593 60.257 111.211 105.439 156.392 45.181 45.182 97.799 80.657 156.392 105.439 60.672 25.663 125.109 38.675 191.525 38.675s130.855-13.011 191.525-38.674c58.593-24.782 111.211-60.257 156.392-105.439s80.655-97.799 105.438-156.392c25.662-60.671 38.674-125.109 38.674-191.525s-13.011-130.855-38.674-191.524c-24.782-58.594-60.257-111.211-105.438-156.392s-97.8-80.657-156.392-105.439c-60.671-25.663-125.108-38.675-191.525-38.675zM512 841.302c-122.158 0-237.002-47.571-323.38-133.948-86.379-86.378-133.948-201.223-133.948-323.38s47.571-237.002 133.948-323.38c86.378-86.379 201.223-133.95 323.38-133.95s237.002 47.571 323.38 133.948c86.378 86.379 133.948 201.223 133.948 323.381s-47.571 237.002-133.948 323.38-201.223 133.948-323.38 133.948zM703.585 441.499c-28.39-0.002-56.782-0.001-85.173-0.001-28.575-0.001-57.151-0.007-85.726 0.002-10.15 0.004-13.175-2.924-13.19-13.134-0.027-18.435 0.002-36.871 0.067-55.306 0.036-10.629 2.49-13.039 13.015-13.039 30.418-0.002 60.837 0.008 91.256-0.010 10.622-0.006 14.764-3.538 14.946-13.964 0.186-10.663 0.103-21.388-0.825-32.001-2.272-25.963-11.356-49.406-28.183-69.467-38.322-45.685-97.745-50.203-144.912-26.966-40.149 19.781-60.779 53.792-60.645 99.387 0.108 36.687 0.039 73.375 0.011 110.062-0.006 8.267-3.869 12.104-12.167 12.119-18.804 0.035-37.608 0.034-56.413-0.015-9.834-0.025-13.009-3.216-13.008-12.83 0.005-34.474-0.192-68.951 0.066-103.424 0.388-52.13 18.621-97.572 53.015-136.411 24.146-27.267 54.216-45.562 89.323-55.365 23.509-6.565 47.472-7.866 71.707-5.578 31.4 2.964 61.174 10.579 87.599 28.855 34.207 23.66 61.961 52.451 76.707 92.307 6.612 17.869 12.951 35.919 13.55 54.99 1.325 42.18 1.626 84.393 2.238 126.594 0.142 9.959-3.312 13.195-13.259 13.195zM719.716 589.964c-0.391 5.563-3.91 8.682-9.46 8.705-20.626 0.085-41.251 0.085-61.876 0.002-5.827-0.023-10.072-3.791-10.112-9.446-0.148-20.623-0.15-41.251 0.095-61.873 0.079-6.577 4.062-10.021 10.611-10.076 10.128-0.084 20.257-0.022 30.386-0.022v-0.023c9.76 0 19.521-0.028 29.281 0.008 7.947 0.029 11.367 3.467 11.398 11.451 0.056 13.99 0.107 27.98 0.080 41.97-0.012 6.436 0.049 12.89-0.403 19.303zM332.019 517.252c19.346-0.027 38.693-0.024 58.039-0.001 8.418 0.010 11.593 3.189 11.652 11.752 0.066 9.58 0.015 19.162 0.015 28.744h-0.035c0 9.949 0.057 19.9-0.018 29.848-0.057 7.541-3.647 11.077-11.202 11.090-9.337 0.018-20.38 0.029-31.426 0.029-9.552 0-19.103-0.008-28.651-0.023l1.486 0.002c-8.35-0.013-11.584-3.188-11.616-11.733-0.073-19.345-0.056-38.692 0.053-58.037 0.046-8.487 3.331-11.657 11.703-11.669z" />
<glyph unicode="&#xe6dc;" glyph-name="meizu" d="M512-108.058c-66.416 0-130.855 13.011-191.525 38.674-58.593 24.782-111.211 60.257-156.392 105.439-45.182 45.181-80.657 97.798-105.439 156.392-25.662 60.671-38.674 125.109-38.674 191.524 0 66.416 13.011 130.855 38.674 191.525 24.782 58.593 60.257 111.211 105.439 156.392 45.181 45.182 97.799 80.657 156.392 105.439 60.672 25.663 125.109 38.675 191.525 38.675s130.855-13.011 191.525-38.674c58.593-24.782 111.211-60.257 156.392-105.439s80.655-97.799 105.438-156.392c25.662-60.671 38.674-125.109 38.674-191.525s-13.011-130.855-38.674-191.524c-24.782-58.594-60.257-111.211-105.438-156.392s-97.8-80.657-156.392-105.439c-60.671-25.663-125.108-38.675-191.525-38.675zM512 841.302c-122.158 0-237.002-47.571-323.38-133.948-86.379-86.378-133.948-201.223-133.948-323.38s47.571-237.002 133.948-323.38c86.378-86.379 201.223-133.95 323.38-133.95s237.002 47.571 323.38 133.948c86.378 86.379 133.948 201.223 133.948 323.381s-47.571 237.002-133.948 323.38-201.223 133.948-323.38 133.948zM308.128 458.267c-50.261 0.14-100.523 0.13-150.784-0.059-14.581-0.055-24.47-7.84-24.792-22.308-0.864-38.904-0.295-77.84-0.295-116.325 26.6-5.902 27.956-4.953 28.043 18.348 0.059 15.513 0.022 31.026 0.025 46.539 0.017 54.254 0.017 54.254 58.567 48.822 0-32.202-0.002-63.712 0-95.22 0.002-23.571 0.949-24.265 28.464-18.593v115.281c8.544 0 14.642 0.049 20.742-0.007 42.237-0.386 37.471 4.988 37.678-37.794 0.129-26.359 0.024-52.72 0.024-78.896h27.804c0 40.369 0.587 79.381-0.302 118.36-0.334 14.663-10.781 21.811-25.177 21.851zM420.379 340.112c-30.75-0.011-32.411 1.998-26.824 35.479 30.684 0 60.394-0.114 90.101 0.041 18.907 0.098 20.28 2.464 13.22 24.253h-103.991c-4.143 34.144-3.561 34.841 27.881 34.87 28.288 0.027 56.577 0.006 86.35 0.006l-1.132 23.475c-41.062 0-80.074 0.38-119.070-0.187-15.562-0.226-23.683-9.783-23.799-25.262-0.223-29.769-0.397-59.548 0.076-89.312 0.3-18.831 8.5-26.551 28.026-26.83 26.665-0.38 53.339-0.080 80.010-0.074 11.495 0.002 22.992 0 35.949 0l-1.333 23.541c-29.808 0.001-57.635 0.010-85.464-0.001zM725.643 425.672c5.379 5.101 10.3 16.043 8.339 21.933-1.759 5.281-13.187 10.050-20.512 10.298-32.192 1.091-64.441 0.524-96.669 0.403-6.515-0.024-13.027-0.723-20.493-1.169l1.193-21.658h93.539l2.436-4.835c-7.118-6.433-14.186-12.922-21.362-19.289-23.64-20.978-47.759-41.452-70.627-63.236-4.827-4.597-7.109-14.055-6.711-21.054 0.21-3.691 8.676-9.794 13.51-9.886 41.356-0.79 82.732-0.453 124.676-0.453v23.767h-96.484l-2.361 4.713c5.131 4.078 10.451 7.941 15.358 12.271 25.559 22.546 51.448 44.756 76.167 68.197zM913.264 457.177h-26.185c-0.353-7.078-0.888-13.104-0.913-19.132-0.101-24.77-0.835-49.576 0.22-74.301 0.734-17.231-4.3-25.411-22.955-23.875-15.993 1.317-32.181 0.257-48.282 0.26-26.87 0.004-26.913 0.007-26.958 26.464-0.051 30.098-0.011 60.196-0.011 90.986h-27.616c0-40.862-0.343-79.75 0.194-118.626 0.177-12.871 8.544-21.48 21.123-21.747 37.132-0.786 74.341-1.227 111.397 0.643 6.955 0.351 18.787 11.76 19.092 18.486 1.812 39.967 0.894 80.057 0.894 120.841zM538.089 317.986h27.047v139.228h-27.047v-139.228z" />
<glyph unicode="&#xe6dd;" glyph-name="leshi" d="M512.391 423.768h167.199c23.081 0 41.796 18.719 41.796 41.805s-18.717 41.794-41.796 41.794h-167.199c-23.081 0-41.794-18.708-41.794-41.794s18.713-41.805 41.794-41.805zM637.789 326.24c0 23.087-18.707 41.806-41.794 41.806h-181.133v236.864c0 23.081-18.715 41.794-41.806 41.794-23.074 0-41.794-18.714-41.794-41.794v-278.641l-0.001-0.029c0-23.086 18.72-41.805 41.794-41.805h222.94c23.088-0.001 41.794 18.719 41.794 41.805zM679.59 228.711h-167.199c-23.081 0-41.794-18.72-41.794-41.805 0-23.076 18.714-41.794 41.794-41.794h167.199c23.081 0 41.796 18.72 41.796 41.794 0 23.084-18.717 41.805-41.796 41.805zM637.379 326.283c0-22.872-18.542-41.414-41.414-41.414h-224.148c-22.872 0-41.414 18.542-41.414 41.414s18.542 41.414 41.414 41.414h224.146c22.873 0 41.415-18.542 41.415-41.414zM512-108.058c-66.416 0-130.855 13.011-191.525 38.674-58.593 24.782-111.211 60.257-156.392 105.439-45.182 45.181-80.657 97.798-105.439 156.392-25.662 60.671-38.674 125.109-38.674 191.524 0 66.416 13.011 130.855 38.674 191.525 24.782 58.593 60.257 111.211 105.439 156.392 45.181 45.182 97.799 80.657 156.392 105.439 60.672 25.663 125.109 38.675 191.525 38.675s130.855-13.011 191.525-38.674c58.593-24.782 111.211-60.257 156.392-105.439s80.655-97.799 105.438-156.392c25.662-60.671 38.674-125.109 38.674-191.525s-13.011-130.855-38.674-191.524c-24.782-58.594-60.257-111.211-105.438-156.392s-97.8-80.657-156.392-105.439c-60.671-25.663-125.108-38.675-191.525-38.675zM512 841.302c-122.158 0-237.002-47.571-323.38-133.948-86.379-86.378-133.948-201.223-133.948-323.38s47.571-237.002 133.948-323.38c86.378-86.379 201.223-133.95 323.38-133.95s237.002 47.571 323.38 133.948c86.378 86.379 133.948 201.223 133.948 323.381s-47.571 237.002-133.948 323.38-201.223 133.948-323.38 133.948z" />
<glyph unicode="&#xe6de;" glyph-name="kupai" d="M512-108.058c-66.416 0-130.855 13.011-191.525 38.674-58.593 24.782-111.211 60.257-156.392 105.439-45.182 45.181-80.657 97.798-105.439 156.392-25.662 60.671-38.674 125.109-38.674 191.524 0 66.416 13.011 130.855 38.674 191.525 24.782 58.593 60.257 111.211 105.439 156.392 45.181 45.182 97.799 80.657 156.392 105.439 60.672 25.663 125.109 38.675 191.525 38.675s130.855-13.011 191.525-38.674c58.593-24.782 111.211-60.257 156.392-105.439s80.655-97.799 105.438-156.392c25.662-60.671 38.674-125.109 38.674-191.525s-13.011-130.855-38.674-191.524c-24.782-58.594-60.257-111.211-105.438-156.392s-97.8-80.657-156.392-105.439c-60.671-25.663-125.108-38.675-191.525-38.675zM512 841.302c-122.158 0-237.002-47.571-323.38-133.948-86.379-86.378-133.948-201.223-133.948-323.38s47.571-237.002 133.948-323.38c86.378-86.379 201.223-133.95 323.38-133.95s237.002 47.571 323.38 133.948c86.378 86.379 133.948 201.223 133.948 323.381s-47.571 237.002-133.948 323.38-201.223 133.948-323.38 133.948zM877.44 397.504c2.297 24.358 4.696 48.707 7.050 73.059h-39.546c3.203-14.536-0.623-28.761-1.269-43.564-14.107 0-27.597-0.441-41.044 0.127-12.807 0.54-20.833-5.356-25.547-16.601-1.62-3.867-3.284-7.925-3.751-12.029-2.29-20.117-4.908-40.239-6.016-60.436-1.119-20.417 6.651-27.646 26.904-27.627 24.313 0.023 48.626 0.042 72.939 0.063h4.314c-0.206 5.703-0.909 10.852-0.487 15.908 1.978 23.714 4.219 47.408 6.453 71.1zM839.176 397.937c-0.734-9.245-1.613-18.481-2.489-27.714-1.695-19.365-2.603-28.197-3.557-37.015l0.995 11.341c-1.034-9.852-2.316-10.958-12.357-10.959h-3.037c-13.151-0.592-14.537 0.684-13.008 14.865-0.617-10.464 1.042 5.104 2.64 20.69l2.042 24.596c0.882 8.832 2.972 10.84 11.693 10.853 3.543 0.006 7.099-0.188 10.624 0.056 5.005 0.345 6.808-2.233 6.453-6.711zM627.658 428.050c-23.811 0.018-47.622 0.005-71.433-0.012-1.64-0.001-3.279-0.14-5.011-0.218-0.785-7.595-1.56-14.78-2.266-21.97-3.271-33.263-6.566-66.524-9.761-99.794-1.29-13.429-2.35-26.878-3.513-40.319h37.518c-2.43 14.882 0.602 29.488 1.723 44.608h6.006c11.315-0.002 22.629 0.013 33.944-0.013 8.063-0.019 14.913 2.732 20.015 9.069 5.38 6.682 9.253 14.229 10.318 22.788 1.208 8.614 2.621 21.947 3.75 35.362l0.232 3.415c0.732 8.893 1.665 17.897 1.027 26.746-1.026 14.24-8.364 20.328-22.549 20.339zM613.509 398.104c-0.171-4.038-0.603-8.067-0.998-12.093-1.199-12.249-2.503-24.489-3.637-36.745-1.348-14.572-2.322-15.527-16.855-15.507-1.181 0.011-2.362 0.008-3.541 0.012-8.487 0.023-9.849 1.547-9.004 10.174 11.769 140.044 13.531 157.362 15.309 174.676l-10.341-124.337c0.788 7.895 3.442 10.275 11.364 10.33 3.71 0.025 7.437-0.147 11.127 0.146 5.022 0.397 6.762-2.231 6.575-6.657zM189.62 412.32c1.265 12.105 5.374 16.043 17.464 16.168 12.327 0.127 24.668-0.292 36.979 0.174 16.676 0.63 26.029 11.917 24.639 29.189-1.288 0.084-2.612 0.243-3.935 0.244-27.697 0.016-55.396 0.107-83.092-0.013-21.674-0.095-34.864-11.908-37.271-33.342-1.884-16.776-3.403-33.593-5.208-50.379-1.242-11.545-2.697-23.069-4.057-34.602v-11.154c2.654-6.919 6.135-13.347 13.696-15.73 4.602-1.45 9.548-2.443 14.354-2.503 20.77-0.26 41.546-0.182 62.319-0.027 4.529 0.034 9.103 0.614 13.566 1.441 6.068 1.123 10.703 4.693 12.502 10.608 2.226 7.322 3.649 14.886 5.199 21.417-8.491-1.151-16.392-2.823-24.353-3.164-12.814-0.55-25.665-0.273-38.5-0.245-8.532 0.018-11.553 3.504-10.651 11.991 2.119 19.974 4.261 39.948 6.348 59.928zM741.967 428.211c-22.968 0.422-45.947 0.278-68.921 0.26-1.113-0.001-3.026-0.811-3.215-1.579-2.112-8.544-3.959-17.153-5.887-25.792 4.577 1.295 8.408 3.193 12.304 3.336 14.68 0.541 29.382 0.651 44.075 0.621 5.206-0.011 7.452-3.727 5.806-8.69-1.398-4.215-4.382-6.069-8.852-6.046-11.318 0.057-22.639 0.057-33.956-0.136-12.824-0.22-19.32-5.141-22.858-17.386-4.069-14.083-5.598-28.464-4.233-43.097 1.337-14.34 6.777-19.084 21.378-18.971 15.879 0.124 31.758 0.152 47.637 0.193 10.63 0.028 21.26 0.005 30.922 0.005-0.197 6.608-0.936 12.76-0.45 18.814 1.268 15.821 3.462 31.571 4.533 47.401 0.771 11.395 1.215 22.952 0.171 34.287-0.961 10.441-8.238 16.593-18.454 16.781zM720.764 341.090c-0.501-3.821-2.638-5.856-6.913-5.574-4.691 0.309-9.419 0.171-14.125 0.035-4.255-0.123-6.391 1.761-6.092 6.010 0.399 5.702 0.715 11.429 1.551 17.073 0.634 4.279 3.121 7.859 7.728 8.169 6.653 0.445 13.358 0.114 20.814 0.114-1.035-9.164-1.871-17.513-2.962-25.827zM353.865 427.64c-19.427 0.141-38.854 0.061-58.281 0.025-11.51-0.021-17.901-4.25-22.175-14.919-1.436-3.585-2.728-7.342-3.291-11.139-1.138-6.882-2.388-16.871-3.363-26.94l-0.173-2.21c-1.347-14.453-3.028-28.922-3.333-43.412-0.291-13.873 5.429-18.782 19.248-18.834 9.46-0.035 18.92-0.006 28.381-0.006v0.017c9.968 0 19.935 0.052 29.901-0.016 9.168-0.062 15.987 3.913 20.094 12.015 1.886 3.721 3.634 7.768 4.221 11.844 2.024 14.026 3.683 28.111 5.143 42.209 1.13 10.909 2.393 21.868 2.442 32.81 0.061 13.908-4.93 18.454-18.814 18.555zM335.697 394.534c0.127 5.397-1.577-11.435-3.2-28.291l-1.605-20.629c-0.916-9.885-3.068-12.027-12.784-12.026-3.38 0-6.76-0.051-10.139 0.015-6.134 0.118-8.103 2.091-7.582 8.577 0.949 11.783 2.239 23.54 3.393 35.306 0.593 6.052 1.234 12.1 1.794 18.155 0.72 7.781 1.944 8.946 9.65 8.959 2.028 0.004 4.056 0 6.083 0h5.577c9.022-0.007 9.749-0.93 8.813-10.065zM466.978 427.696c-19.254 0.035-38.512-0.249-57.761 0.084-10.624 0.183-17.183-4.97-21.246-14.064-1.501-3.359-2.76-6.97-3.302-10.589-1.476-9.839-2.753-19.72-3.663-29.626-1.405-15.287-2.978-30.591-3.464-45.919-0.38-11.985 5.499-17.2 17.465-17.343 9.795-0.118 19.592-0.024 29.388-0.030 10.134-0.007 20.268-0.006 30.401-0.007 10.023-0.001 17.089 4.686 21.081 13.764 1.617 3.677 3.254 7.574 3.688 11.504 2.651 23.985 5.501 47.969 7.18 72.030 1.046 15.022-4.805 20.168-19.768 20.196zM450.090 398.456c-1.894-18.944-3.726-37.894-5.73-56.827-0.603-5.694-3.319-7.896-9.035-8.023-2.359-0.052-4.72-0.008-7.080-0.008-1.686-0.015-3.371-0.025-5.057-0.013-7.347 0.056-9.383 2.236-8.685 9.427 1.739 17.946 3.477 35.893 5.284 53.833 0.653 6.481 2.1 7.699 8.713 7.747 5.226 0.038 10.452-0.021 15.678 0.024 4.191 0.036 6.348-1.8 5.913-6.159zM542.841 462.237h-39.508c0.566-6.304 1.989-12.196 1.46-17.907-3.011-32.439-6.538-64.83-9.784-97.248-1.262-12.604-1.768-25.37-10.169-35.939-0.126-0.158 0.095-0.592 0.225-1.257 13.078 0 26.213-0.092 39.341 0.174 1.059 0.022 2.831 2.425 2.989 3.863 3.771 34.227 7.402 68.471 10.976 102.719 1.573 15.091 2.966 30.2 4.471 45.596z" />
<glyph unicode="&#xe6df;" glyph-name="chuizi" d="M518.232 669.14c160.012 0.022 290.452-129.824 290.39-289.070-0.064-162.747-129.504-291.743-292.538-291.542-158.517 0.194-288.051 130.691-288.076 290.216-0.027 160.515 129.756 290.372 290.224 290.395zM685.782 490.184l1.359 3.253c-2.998 2.126-5.973 4.283-8.998 6.374-31.355 21.679-65.376 37.869-101.576 49.691-53.078 17.332-107.346 20.351-162.429 13.915-8.123-0.948-14.121-4.777-14.115-13.875 0.008-13.021-0.252-26.129 1.266-39.002 0.392-3.329 6.774-8.114 10.753-8.484 16.906-1.57 33.942-1.776 50.932-2.401 22.73-0.837 37.112-15.087 36.66-37.482-0.748-37.093-2.094-74.177-3.102-111.268-1.228-45.203-2.518-90.404-3.484-135.615-0.511-23.998 8.839-42.875 30.809-54.117 9.781-5.005 16.51-0.752 17.241 10.29 0.204 3.079 0.052 6.182 0.049 9.276-0.106 93.543-0.267 187.082-0.285 280.623-0.005 26.259 16.452 40.56 42.494 37.593 10.743-1.225 21.52-2.175 32.297-3.075 23.371-1.958 46.751-3.804 70.128-5.696zM512-108.058c-66.416 0-130.855 13.011-191.525 38.674-58.593 24.782-111.211 60.257-156.392 105.439-45.182 45.181-80.657 97.798-105.439 156.392-25.662 60.671-38.674 125.109-38.674 191.524 0 66.416 13.011 130.855 38.674 191.525 24.782 58.593 60.257 111.211 105.439 156.392 45.181 45.182 97.799 80.657 156.392 105.439 60.672 25.663 125.109 38.675 191.525 38.675s130.855-13.011 191.525-38.674c58.593-24.782 111.211-60.257 156.392-105.439s80.655-97.799 105.438-156.392c25.662-60.671 38.674-125.109 38.674-191.525s-13.011-130.855-38.674-191.524c-24.782-58.594-60.257-111.211-105.438-156.392s-97.8-80.657-156.392-105.439c-60.671-25.663-125.108-38.675-191.525-38.675zM512 841.302c-122.158 0-237.002-47.571-323.38-133.948-86.379-86.378-133.948-201.223-133.948-323.38s47.571-237.002 133.948-323.38c86.378-86.379 201.223-133.95 323.38-133.95s237.002 47.571 323.38 133.948c86.378 86.379 133.948 201.223 133.948 323.381s-47.571 237.002-133.948 323.38-201.223 133.948-323.38 133.948z" />
<glyph unicode="&#xe6e0;" glyph-name="huawei" d="M477.55 626.589s-48.129 2.191-78.819-37.477c-30.705-39.665-7.646-100.253 6.912-131.506s91.371-153.894 94.192-156.592c2.8-2.705 6.174-1.567 6.358 0.86 0.186 2.407 8.775 178.2 1.862 221.544-6.912 43.346-27.375 98.416-30.505 103.171zM311.212 544.867c-5.501-0.589-44.982-39.961-48.54-78.455-3.575-38.491 12.901-64.109 58.905-94.755 46.308-32.837 156.365-93.247 158.386-88.043 2.024 5.191-42.647 84.563-79.204 142.292-36.553 57.728-84.069 119.549-89.546 118.961zM326.014 189.795c33.307-14.891 85.193 18.552 99.547 28.279 13.349 10.198 38.006 28.945 38.006 28.945l-188.725-5.051c0 0.001 17.866-37.279 51.173-52.173zM330.755 342.305c-33.778 16.907-103.268 55.749-105.987 55.005-2.719-0.742-13.187-49.060 8.545-85.477s64.054-47.555 83.477-50.531c21.837-3.111 150.232-1.721 149.371 0.862-0.757 2.254-101.609 63.25-135.406 80.141zM643.873 589.112c-30.688 39.666-78.819 37.477-78.819 37.477-3.125-4.754-23.593-59.822-30.505-103.171-6.913-43.346 1.698-219.137 1.881-221.546 0.186-2.425 3.537-3.562 6.356-0.86 2.801 2.699 79.636 125.34 94.195 156.593 14.537 31.255 37.598 91.84 6.892 131.506zM817.836 397.311c-2.717 0.744-72.209-38.099-105.985-55.005-33.778-16.891-134.649-77.887-135.388-80.141-0.879-2.581 127.516-3.973 149.353-0.862 19.421 2.976 61.743 14.112 83.477 50.531 21.752 36.416 11.261 84.736 8.543 85.477zM617.048 218.074c14.351-9.726 66.258-43.17 99.567-28.279 33.306 14.895 51.175 52.174 51.175 52.174l-188.727 5.051c-0.001 0 24.655-18.751 37.984-28.946zM779.955 466.412c-3.578 38.494-43.057 77.866-48.538 78.456-5.498 0.586-53.015-61.234-89.568-118.962-36.558-57.729-81.226-137.104-79.203-142.292 2.023-5.204 112.096 55.206 158.387 88.043 46 30.647 62.499 56.264 58.922 94.755zM512-108.058c-66.416 0-130.855 13.011-191.525 38.674-58.593 24.782-111.211 60.257-156.392 105.439-45.182 45.181-80.657 97.798-105.439 156.392-25.662 60.671-38.674 125.109-38.674 191.524 0 66.416 13.011 130.855 38.674 191.525 24.782 58.593 60.257 111.211 105.439 156.392 45.181 45.182 97.799 80.657 156.392 105.439 60.672 25.663 125.109 38.675 191.525 38.675s130.855-13.011 191.525-38.674c58.593-24.782 111.211-60.257 156.392-105.439s80.655-97.799 105.438-156.392c25.662-60.671 38.674-125.109 38.674-191.525s-13.011-130.855-38.674-191.524c-24.782-58.594-60.257-111.211-105.438-156.392s-97.8-80.657-156.392-105.439c-60.671-25.663-125.108-38.675-191.525-38.675zM512 841.302c-122.158 0-237.002-47.571-323.38-133.948-86.379-86.378-133.948-201.223-133.948-323.38s47.571-237.002 133.948-323.38c86.378-86.379 201.223-133.95 323.38-133.95s237.002 47.571 323.38 133.948c86.378 86.379 133.948 201.223 133.948 323.381s-47.571 237.002-133.948 323.38-201.223 133.948-323.38 133.948z" />
<glyph unicode="&#xe6e1;" glyph-name="moren" d="M666.639 641.475h-296.492c-18.119 0-32.944-14.824-32.944-32.944v-428.266c0-18.119 14.824-32.944 32.944-32.944h296.492c18.119 0 32.944 14.824 32.944 32.944v428.266c0 18.119-14.824 32.944-32.944 32.944zM551.337 180.266h-65.887c-9.224 0-16.471 7.248-16.471 16.471 0 9.225 7.248 16.471 16.471 16.471h65.887c9.224 0 16.471-7.248 16.471-16.471s-7.248-16.471-16.471-16.471zM666.639 246.152h-296.492v329.436h296.492v-329.436zM512-108.058c-66.416 0-130.855 13.011-191.525 38.674-58.593 24.782-111.211 60.257-156.392 105.439-45.182 45.181-80.657 97.798-105.439 156.392-25.662 60.671-38.674 125.109-38.674 191.524 0 66.416 13.011 130.855 38.674 191.525 24.782 58.593 60.257 111.211 105.439 156.392 45.181 45.182 97.799 80.657 156.392 105.439 60.672 25.663 125.109 38.675 191.525 38.675s130.855-13.011 191.525-38.674c58.593-24.782 111.211-60.257 156.392-105.439s80.655-97.799 105.438-156.392c25.662-60.671 38.674-125.109 38.674-191.525s-13.011-130.855-38.674-191.524c-24.782-58.594-60.257-111.211-105.438-156.392s-97.8-80.657-156.392-105.439c-60.671-25.663-125.108-38.675-191.525-38.675zM512 841.302c-122.158 0-237.002-47.571-323.38-133.948-86.379-86.378-133.948-201.223-133.948-323.38s47.571-237.002 133.948-323.38c86.378-86.379 201.223-133.95 323.38-133.95s237.002 47.571 323.38 133.948c86.378 86.379 133.948 201.223 133.948 323.381s-47.571 237.002-133.948 323.38-201.223 133.948-323.38 133.948z" />
<glyph unicode="&#xe6e2;" glyph-name="htc" d="M250.639 431.171h70.085c20.166 0 36.664-18.127 36.664-40.285v-96.681c0-2.714 0.117-4.527-0.131-7.92h32.366v115.5c0 33.891-26.832 61.617-59.63 61.617h-88.622c-9.386 0-18.271-2.274-26.189-6.306v63.592h-34.927v-234.404h34.914l0.011 114.842c4.157 17.248 18.505 30.046 35.46 30.046zM521.708 461.033h122.995v-33.341h-88.069v-140.468h-34.925v140.468h-88.080v33.341h88.079zM758.073 429.683h128.702c2.269 0 4.495-0.157 6.674-0.456v34.47h-148.716c-35.519 0-64.589-33.152-64.589-73.659v-30.063c0-40.523 29.070-73.661 64.589-73.661h148.716v34.47c-2.211-0.308-4.442-0.466-6.674-0.471h-128.702c-24.577 0-44.681 18.458-44.681 41.011v27.364c0 22.554 20.105 40.996 44.681 40.996zM512-108.058c-66.416 0-130.855 13.011-191.525 38.674-58.593 24.782-111.211 60.257-156.392 105.439-45.182 45.181-80.657 97.798-105.439 156.392-25.662 60.671-38.674 125.109-38.674 191.524 0 66.416 13.011 130.855 38.674 191.525 24.782 58.593 60.257 111.211 105.439 156.392 45.181 45.182 97.799 80.657 156.392 105.439 60.672 25.663 125.109 38.675 191.525 38.675s130.855-13.011 191.525-38.674c58.593-24.782 111.211-60.257 156.392-105.439s80.655-97.799 105.438-156.392c25.662-60.671 38.674-125.109 38.674-191.525s-13.011-130.855-38.674-191.524c-24.782-58.594-60.257-111.211-105.438-156.392s-97.8-80.657-156.392-105.439c-60.671-25.663-125.108-38.675-191.525-38.675zM512 841.302c-122.158 0-237.002-47.571-323.38-133.948-86.379-86.378-133.948-201.223-133.948-323.38s47.571-237.002 133.948-323.38c86.378-86.379 201.223-133.95 323.38-133.95s237.002 47.571 323.38 133.948c86.378 86.379 133.948 201.223 133.948 323.381s-47.571 237.002-133.948 323.38-201.223 133.948-323.38 133.948z" />
<glyph unicode="&#xe6e3;" glyph-name="xiaomi" d="M633.782 237.235v222.972c0 50.662-41.058 91.738-91.715 91.738h-257.814c-1.988 0-3.598-1.601-3.598-3.569v-311.138c0-1.969 1.61-3.562 3.598-3.562h68.865c0.003 0 0.006 0 0.008 0 1.98 0 3.585 1.603 3.587 3.582v0 244.205c0.002 1.984 1.611 3.591 3.595 3.591 0.001 0 0.003 0 0.004 0h148.088c27.809 0 50.361-22.541 50.361-50.353v-197.438c0.001-1.978 1.605-3.58 3.583-3.58 0.001 0 0.002 0 0.003 0h67.851c1.973 0 3.586 1.597 3.586 3.562M494.715 237.258c0-0.003 0-0.006 0-0.010 0-1.974-1.6-3.574-3.574-3.574-0.003 0-0.007 0-0.010 0h-68.848c-0.003 0-0.006 0-0.009 0-1.981 0-3.586 1.604-3.59 3.584v0 187.136c0.003 1.983 1.611 3.589 3.594 3.589 0.002 0 0.003 0 0.005 0v0h68.849c0.001 0 0.002 0 0.004 0 1.977 0 3.58-1.603 3.58-3.58 0-0.003 0-0.006 0-0.009v0-187.136zM770.036 237.258c-0.003-1.98-1.609-3.584-3.59-3.584-0.003 0-0.007 0-0.010 0h-68.831c-1.994 0-3.614 1.603-3.614 3.584v311.085c0.005 1.987 1.617 3.596 3.604 3.596 0.003 0 0.007 0 0.010 0h68.831c0.001 0 0.003 0 0.005 0 1.985 0 3.595-1.609 3.595-3.595 0 0 0-0.001 0-0.001v0-311.085zM512-108.058c-66.416 0-130.855 13.011-191.525 38.674-58.593 24.782-111.211 60.257-156.392 105.439-45.182 45.181-80.657 97.798-105.439 156.392-25.662 60.671-38.674 125.109-38.674 191.524 0 66.416 13.011 130.855 38.674 191.525 24.782 58.593 60.257 111.211 105.439 156.392 45.181 45.182 97.799 80.657 156.392 105.439 60.672 25.663 125.109 38.675 191.525 38.675s130.855-13.011 191.525-38.674c58.593-24.782 111.211-60.257 156.392-105.439s80.655-97.799 105.438-156.392c25.662-60.671 38.674-125.109 38.674-191.525s-13.011-130.855-38.674-191.524c-24.782-58.594-60.257-111.211-105.438-156.392s-97.8-80.657-156.392-105.439c-60.671-25.663-125.108-38.675-191.525-38.675zM512 841.302c-122.158 0-237.002-47.571-323.38-133.948-86.379-86.378-133.948-201.223-133.948-323.38s47.571-237.002 133.948-323.38c86.378-86.379 201.223-133.95 323.38-133.95s237.002 47.571 323.38 133.948c86.378 86.379 133.948 201.223 133.948 323.381s-47.571 237.002-133.948 323.38-201.223 133.948-323.38 133.948z" />
<glyph unicode="&#xe6e4;" glyph-name="pingguo" d="M659.176 393.733c0.78-81.204 74.692-108.228 75.552-108.605-0.672-1.857-11.843-38.517-39.001-76.387-23.47-32.729-47.776-65.27-86.13-65.944-37.735-0.674-49.821 21.317-92.94 21.317-43.092 0-56.577-20.644-92.239-21.99-36.982-1.346-65.19 35.313-88.849 67.909-48.395 66.697-85.323 188.437-35.69 270.61 24.628 40.831 68.689 66.643 116.464 67.343 36.363 0.619 70.707-23.39 92.886-23.39 22.259 0 63.951 28.854 107.797 24.628 18.329-0.727 69.874-7.052 102.952-53.185-2.637-1.642-61.502-34.264-60.802-102.307zM504.787 555.335c-4.253 30.872 11.681 62.956 29.876 83.115 20.321 22.69 54.612 39.566 82.927 40.643 3.634-31.438-9.663-63.009-29.285-85.754-19.674-22.663-51.919-40.347-83.518-38.005zM510.38-108.058c-66.416 0-130.855 13.011-191.525 38.674-58.593 24.782-111.211 60.257-156.392 105.439-45.182 45.181-80.657 97.798-105.439 156.392-25.662 60.671-38.674 125.109-38.674 191.524 0 66.416 13.011 130.855 38.674 191.525 24.782 58.593 60.257 111.211 105.439 156.392 45.181 45.182 97.799 80.657 156.392 105.439 60.672 25.662 125.109 38.674 191.525 38.674s130.855-13.011 191.525-38.674c58.593-24.782 111.211-60.257 156.392-105.439s80.655-97.799 105.438-156.392c25.662-60.671 38.674-125.109 38.674-191.525s-13.011-130.855-38.674-191.524c-24.782-58.594-60.257-111.211-105.438-156.392s-97.8-80.657-156.392-105.439c-60.669-25.662-125.108-38.674-191.525-38.674zM510.38 841.302c-122.158 0-237.002-47.571-323.38-133.948-86.379-86.378-133.948-201.223-133.948-323.38s47.571-237.002 133.948-323.38c86.378-86.379 201.223-133.95 323.38-133.95s237.002 47.571 323.38 133.948c86.378 86.379 133.948 201.223 133.948 323.381s-47.571 237.002-133.948 323.38-201.222 133.948-323.38 133.948z" />
<glyph unicode="&#xe6e5;" glyph-name="intel" d="M377.609 402.287v-108.793h-34.599v136.742l71.472-0.056c30.306 0 40.66-21.439 40.66-40.857v-95.829h-34.516v95.633c0 8.165-4.181 13.161-14.395 13.161h-28.622zM613.014 403.914c-11.841 0-20.99-6.061-24.835-14.311-2.064-4.361-3.281-9.471-3.311-14.861v-0.010h53.26c-0.646 14.872-7.38 29.183-25.115 29.183zM584.869 351.159c0-17.651 11.028-30.727 30.699-30.727 15.265 0 22.87 4.209 31.738 13.077l21.383-20.457c-13.665-13.498-28.089-21.691-53.372-21.691-33.113 0-64.821 18.043-64.821 70.715 0 45.038 27.64 70.49 64.008 70.49 36.9 0 58.228-29.829 58.228-68.89v-12.431l-87.862-0.085zM521.226 293.718c-28.173 0-40.183 19.615-40.183 39.033v134.695h34.571v-37.237h26.041v-27.949h-26.069v-67.347c0-7.97 3.788-12.347 12.038-12.347h14.031v-28.819h-20.429v-0.029zM312.198 449.121h-34.852v33.113h34.852v-33.113zM312.281 292.119c-26.097 2.47-34.965 18.268-34.965 36.62v101.441h34.908v-138.173l0.057 0.112zM727.728 295.037c-26.069 2.526-34.88 18.295-34.88 36.564v155.318h34.88v-191.882zM849.709 464.471c-31.569 154.141-330.897 163.906-523.735 46.498v-12.964c192.641 98.999 465.928 98.439 490.819-43.495 8.306-47.003-18.128-95.913-65.354-124.086v-36.788c56.825 20.82 115.192 88.307 98.27 170.835zM499.057 194.802c-133.066-12.29-271.801 7.044-291.191 111.039-9.457 51.267 13.946 105.65 44.841 139.381v18.043c-55.758-48.91-86.008-110.842-68.581-183.997 22.224-93.865 141.288-147.013 322.957-129.334 71.921 6.987 166.010 30.138 231.421 66.057v50.959c-59.377-35.386-157.62-64.598-239.447-72.147zM788.059 461.612c0 1.744-1.075 2.296-3.373 2.296h-2.238v-4.942l2.238-0.058c2.296 0 3.373 0.727 3.373 2.442v0.262zM791.549 449.314h-2.646c-0.262 0-0.523 0.117-0.61 0.348l-3.634 6.192c-0.087 0.146-0.377 0.291-0.552 0.291h-1.627v-6.163c0-0.348-0.262-0.727-0.669-0.727h-2.384c-0.32 0-0.61 0.407-0.61 0.727v15.496c0 0.843 0.348 1.308 1.104 1.396 1.454 0.146 2.936 0.175 4.419 0.175 4.419 0 7.152-1.337 7.152-5.466v-0.291c0-2.617-1.337-3.925-3.314-4.594l3.779-6.367c0-0.175 0.146-0.348 0.146-0.523 0.057-0.204-0.118-0.494-0.553-0.494v0zM785.211 469.926c-6.567-0.024-11.871-5.367-11.847-11.935s5.367-11.872 11.934-11.847c6.53 0.016 11.825 5.281 11.891 11.798v0.006c-0.047 6.596-5.382 11.931-11.977 11.979zM785.211 443.558c-7.948-0.008-14.397 6.429-14.406 14.377s6.429 14.397 14.377 14.406h0.029c7.948-0.506 13.981-7.358 13.476-15.306-0.475-7.244-6.232-13.002-13.433-13.474l-0.043-0.002zM512-108.058c-66.416 0-130.855 13.011-191.525 38.674-58.593 24.782-111.211 60.257-156.392 105.439-45.182 45.181-80.657 97.798-105.439 156.392-25.662 60.671-38.674 125.109-38.674 191.524 0 66.416 13.011 130.855 38.674 191.525 24.782 58.593 60.257 111.211 105.439 156.392 45.181 45.182 97.799 80.657 156.392 105.439 60.672 25.663 125.109 38.675 191.525 38.675s130.855-13.011 191.525-38.674c58.593-24.782 111.211-60.257 156.392-105.439s80.655-97.799 105.438-156.392c25.662-60.671 38.674-125.109 38.674-191.525s-13.011-130.855-38.674-191.524c-24.782-58.594-60.257-111.211-105.438-156.392s-97.8-80.657-156.392-105.439c-60.671-25.663-125.108-38.675-191.525-38.675zM512 841.302c-122.158 0-237.002-47.571-323.38-133.948-86.379-86.378-133.948-201.223-133.948-323.38s47.571-237.002 133.948-323.38c86.378-86.379 201.223-133.95 323.38-133.95s237.002 47.571 323.38 133.948c86.378 86.379 133.948 201.223 133.948 323.381s-47.571 237.002-133.948 323.38-201.223 133.948-323.38 133.948z" />
<glyph unicode="&#xe6e6;" glyph-name="vivo" d="M829.686 315.156h-80.898c-25.608 0.062-46.419 21.080-46.465 46.977v3.977c0.046 25.898 20.857 46.901 46.465 46.961h80.898c25.592-0.061 46.387-21.064 46.442-46.961l0.007-3.977c-0.062-25.898-20.859-46.915-46.449-46.977zM829.686 443.146h-80.898c-42.297-0.017-76.684-34.573-76.684-77.036v-3.977c0-42.479 34.388-77.035 76.684-77.051h80.898c42.257 0.017 76.66 34.573 76.66 77.051v3.977c0 42.465-34.403 77.019-76.66 77.036zM255.076 284.348h0.343c15.817-0.061 28.477 7.114 40.026 23.62l72.95 107.324c1.758 2.554 2.807 5.714 2.807 9.12 0 0.004 0 0.008 0 0.012v-0.001c0 0.004 0 0.009 0 0.015 0 5.478-2.714 10.323-6.872 13.261l-0.051 0.034c-2.523 1.77-5.658 2.829-9.039 2.829 0 0-0.001 0-0.001 0v0c-5.47-0.005-10.296-2.757-13.174-6.951l-0.035-0.054-72.935-107.31c-4.436-6.808-9.317-9.606-13.99-9.606l-0.098-0.016c-5.561 0.076-9.606 3.074-14.089 9.622l-72.951 107.309c-2.899 4.251-7.719 7.005-13.182 7.005-0.004 0-0.008 0-0.012 0h0.001c-0.002 0-0.004 0-0.007 0-3.383 0-6.518-1.059-9.093-2.863l0.051 0.034c-4.211-2.968-6.929-7.811-6.929-13.289 0-0.007 0-0.015 0-0.022v0.001c0-0.004 0-0.008 0-0.012 0-3.407 1.052-6.567 2.85-9.175l-0.035 0.054 72.943-107.308c10.103-14.9 24.859-23.634 40.454-23.634h0.069zM556.955 284.348h0.343c15.801-0.061 28.46 7.114 40.017 23.62l72.959 107.324c1.753 2.558 2.8 5.72 2.8 9.127 0 0.002 0 0.003 0 0.005v0c0 5.124-2.418 10.157-6.923 13.31-2.528 1.77-5.668 2.829-9.055 2.829 0 0-0.001 0-0.001 0v0c-0.003 0-0.006 0-0.009 0-5.462 0-10.281-2.754-13.143-6.95l-0.035-0.055-72.937-107.309c-4.45-6.808-9.315-9.606-13.981-9.606l-0.121-0.016c-5.554 0.076-9.599 3.090-14.089 9.622l-72.928 107.309c-2.908 4.249-7.732 7.002-13.199 7.005v0c-3.129 0-6.279-0.933-9.049-2.829-4.215-2.961-6.936-7.802-6.936-13.278 0-0.011 0-0.022 0-0.034v0.002c0-0.003 0-0.006 0-0.010 0-3.406 1.050-6.567 2.843-9.177l-0.036 0.055 72.951-107.308c10.111-14.914 24.85-23.634 40.445-23.634h0.084v-0.001zM427.404 478.742l-16.872 16.888c-1.132 1.145-2.693 1.864-4.421 1.897h-0.283c-1.753-0.024-3.334-0.745-4.482-1.897v0l-16.872-16.888c-1.171-1.173-1.895-2.793-1.895-4.581s0.724-3.408 1.895-4.582v0l16.872-16.888c1.183-1.17 2.809-1.893 4.604-1.897h0.001c1.779 0.005 3.389 0.723 4.56 1.883l16.895 16.902c1.172 1.169 1.897 2.786 1.897 4.572 0 0.006 0 0.012 0 0.018v-0.001c-0.002 1.651-0.636 3.334-1.899 4.573zM405.951 440.561c-8.887 0-16.109-7.099-16.109-15.924v-124.364c0-8.811 7.22-15.909 16.109-15.924 8.866 0.016 16.077 7.114 16.077 15.924l0.016 124.364c0 8.826-7.236 15.924-16.093 15.924zM512-108.058c-66.416 0-130.855 13.011-191.525 38.674-58.593 24.782-111.211 60.257-156.392 105.439-45.182 45.181-80.657 97.798-105.439 156.392-25.662 60.671-38.674 125.109-38.674 191.524 0 66.416 13.011 130.855 38.674 191.525 24.782 58.593 60.257 111.211 105.439 156.392 45.181 45.182 97.799 80.657 156.392 105.439 60.672 25.663 125.109 38.675 191.525 38.675s130.855-13.011 191.525-38.674c58.593-24.782 111.211-60.257 156.392-105.439s80.655-97.799 105.438-156.392c25.662-60.671 38.674-125.109 38.674-191.525s-13.011-130.855-38.674-191.524c-24.782-58.594-60.257-111.211-105.438-156.392s-97.8-80.657-156.392-105.439c-60.671-25.663-125.108-38.675-191.525-38.675zM512 841.302c-122.158 0-237.002-47.571-323.38-133.948-86.379-86.378-133.948-201.223-133.948-323.38s47.571-237.002 133.948-323.38c86.378-86.379 201.223-133.95 323.38-133.95s237.002 47.571 323.38 133.948c86.378 86.379 133.948 201.223 133.948 323.381s-47.571 237.002-133.948 323.38-201.223 133.948-323.38 133.948z" />
<glyph unicode="&#xe6e7;" glyph-name="sanxing" d="M206.858 423.301c-0.59-4.969-1.46-9.162-1.511-13.366-0.129-10.572 4.267-18.68 14.014-23.413 4.687-2.276 9.795-3.871 14.066-6.738 2.483-1.668 4.319-5.057 5.185-8.039 0.4-1.377-1.857-4.671-3.55-5.264-3.165-1.106-6.148 0.222-6.882 4.142-0.421 2.243-0.684 4.516-1.059 7.072h-22.48c-3.739-13.778 3.117-25.736 16.755-27.742 7.147-1.052 14.698-0.768 21.89 0.21 9.165 1.25 16.581 6.054 18.731 15.747 2.524 11.39 1.074 22.247-8.804 29.893-4.333 3.348-9.849 5.16-14.799 7.727-2.895 1.501-6.385 2.547-8.384 4.859-1.506 1.74-1.703 5.293-1.193 7.773 0.208 1.009 4.213 2.302 5.79 1.683 1.765-0.695 3.828-3.399 3.842-5.245 0.038-4.799 2.17-6.012 6.427-5.756 3.856 0.232 7.737 0.164 11.602 0.040 3.523-0.112 4.566 1.499 4.689 4.898 0.488 13.517-4.783 20.066-18.247 22.076-3.006 0.449-6.039 0.711-10.782 1.257 9.045 3.637 16.613 6.789 24.259 9.736 63.733 24.554 129.32 42.783 196.358 55.401 40.935 7.705 82.147 14.337 123.481 19.442 57.82 7.143 115.983 9.764 174.23 6.038 33.95-2.174 67.85-5.767 100.065-17.473 12.366-4.493 24.632-10.549 35.289-18.2 18.839-13.527 22.175-32.874 9.686-52.464-5.84-9.158-13.371-17.566-21.394-24.944-21.815-20.064-47.665-34.056-74.261-47.322v33.388c-8.239 0-15.956 0.152-23.655-0.149-1.239-0.050-3.512-2.228-3.399-3.204 0.373-3.257-2.562-7.506 2.271-9.653 0.819-0.364 1.805-0.357 3.165-0.604 0-3.87-0.010-7.506 0.001-11.145 0.015-3.649-1.583-6.101-5.395-6.086-3.795 0.015-5.425 2.587-5.515 6.117-0.114 4.444-0.056 8.896-0.063 13.345-0.016 8.704-0.119 17.408 0.013 26.111 0.051 3.336 0.5 6.821 4.981 7.199 3.353 0.282 5.732-0.937 5.942-4.67 0.117-2.102 0.019-4.214 0.019-7.174 6.738 0 13.068-0.251 19.343 0.235 1.096 0.085 2.825 3.29 2.78 5.017-0.359 13.953-9.094 22.847-23.211 24.082-19.607 1.717-30.979-6.977-32.499-26.602-1.038-13.414-0.627-27.024 0.198-40.481 0.701-11.454 6.726-17.031 18.168-19.291 0.907-0.18 1.785-0.51 4.233-1.223-5.311-2.194-9.278-3.881-13.278-5.481-71.215-28.464-144.883-48.442-220.192-62.235-37.184-6.81-74.619-12.619-112.154-17.064-55.343-6.552-110.977-9.364-166.714-6.062-36.28 2.149-72.488 5.714-106.926 18.336-11.3 4.142-22.544 9.531-32.349 16.431-20.581 14.487-23.724 34.4-10.259 55.669 8.514 13.447 20.225 23.832 32.766 33.332 20.274 15.352 42.445 27.519 65.274 38.555 1.021 0.498 2.13 0.8 3.439 1.276zM435.147 403.285c0.329-0.119 0.657-0.24 0.985-0.358 0-11.402-0.201-22.809 0.044-34.203 0.445-20.581-3.81-16.127 17.719-16.757 3.679-0.108 4.588 1.551 4.509 4.896-0.372 12.317-0.901 37.264-1.339 62.234l-0.126 9.067c-0.063 3.727-1.532 5.092-5.228 5.021-8.694-0.164-17.399-0.198-26.092 0.018-4.102 0.104-5.609-1.382-6.274-5.506-1.836-11.36-4.27-22.624-6.79-35.615-2.359 14.662-4.432 27.54-6.5 40.41h-37.533c0-22.66 0.027-44.671-0.010-66.682-0.022-13.878-0.058-13.625 13.905-13.937 5.552-0.123 7.435 1.54 7.322 7.141-0.301 15.316-0.103 30.642-0.103 45.964 4.060-12.886 6.766-25.877 9.64-38.833 3.151-14.193 3.228-13.84 17.78-14.311 5.966-0.193 7.917 2.026 8.94 7.449 2.774 14.715 6.067 29.339 9.153 44.001zM696.165 390.461l-1.070-0.296c-0.773 1.712-1.575 3.412-2.316 5.139-4.863 11.349-9.659 22.725-14.625 34.029-0.708 1.61-2.152 4.058-3.342 4.108-8.387 0.358-16.797 0.191-25.108 0.191v-80.428h20.972v43.336c1.749-1.319 2.536-2.782 3.228-4.285 5.398-11.744 10.727-23.52 16.227-35.216 0.742-1.574 2.265-3.874 3.516-3.931 7.816-0.363 15.655-0.183 23.529-0.183v80.285h-21.009l-0.001-42.748zM586.437 433.732c-6.022 0-11.407-0.34-16.729 0.093-5.438 0.443-7.386-1.171-7.253-6.937 0.376-16.431 0.095-32.875 0.143-49.312 0.049-17.116 8.27-26.398 25.236-27.791 17.982-1.476 35.188 5.024 34.266 30.707-0.556 15.452-0.091 30.939-0.115 46.409-0.002 2.064-0.186 4.13-0.29 6.283h-23.175c0-2.835 0.002-5.126 0-7.416-0.016-17.213-0.046-34.425-0.035-51.636 0.002-3.552-0.36-6.494-4.989-6.895-4.776-0.409-6.833 1.59-6.852 6.197-0.052 12.375-0.149 24.748-0.201 37.124-0.030 7.484-0.005 14.969-0.005 23.174zM516.253 408.263c6.296 0 12.089-0.201 17.849 0.149 1.324 0.080 3.528 1.948 3.645 3.155 1.057 10.844-1.925 21.078-14.793 22.905-8.275 1.172-16.984 0.914-25.264-0.292-4.251-0.617-9.165-3.859-11.759-7.397-8.335-11.367-3.938-30.594 8.148-37.749 4.625-2.739 9.881-4.395 14.583-7.022 2.583-1.442 5.456-3.467 6.674-5.969 1.501-3.083 1.452-7.258-3.077-8.444-3.51-0.921-7.419 0.36-7.177 4.482 0.425 7.267-3.448 7.642-8.864 7.231-4.040-0.307-8.146 0.195-12.163-0.227-1.364-0.143-3.408-1.835-3.675-3.121-2.129-10.261 4.34-21.164 14.606-23.966 10.26-2.801 20.683-2.503 30.803 1.001 8.068 2.796 12.521 8.826 13.727 17.149 2.181 15.071-3.949 25.919-17.981 32.092-3.177 1.398-6.486 2.511-9.631 3.976-1.903 0.885-4.322 1.8-5.219 3.415-1.191 2.144-1.859 5.169-1.295 7.455 0.289 1.171 4.049 2.551 5.688 2.046 1.871-0.576 3.472-2.958 4.534-4.913 0.755-1.382 0.416-3.357 0.641-5.956zM345.423 352.267c0.167 0.939 0.432 1.523 0.342 2.049-4.245 25.075-8.464 50.157-12.965 75.186-0.22 1.226-2.915 2.8-4.499 2.848-8.878 0.277-17.777-0.113-26.649 0.244-4.346 0.174-5.588-1.669-6.211-5.494-2.487-15.21-5.24-30.38-7.834-45.573-1.642-9.608-3.174-19.237-4.878-29.6 7.253 0 13.786-0.192 20.286 0.177 1.153 0.067 2.862 2.329 3.138 3.797 1.108 5.863 1.718 11.82 2.573 17.732 1.635 11.315 3.308 22.626 4.963 33.934 0.357 0 0.711-0.002 1.068-0.006 2.871-18.471 5.74-36.944 8.59-55.294h22.076zM512-108.058c-66.416 0-130.855 13.011-191.525 38.674-58.593 24.782-111.211 60.257-156.392 105.439-45.182 45.181-80.657 97.798-105.439 156.392-25.662 60.671-38.674 125.109-38.674 191.524 0 66.416 13.011 130.855 38.674 191.525 24.782 58.593 60.257 111.211 105.439 156.392 45.181 45.182 97.799 80.657 156.392 105.439 60.672 25.663 125.109 38.675 191.525 38.675s130.855-13.011 191.525-38.674c58.593-24.782 111.211-60.257 156.392-105.439s80.655-97.799 105.438-156.392c25.662-60.671 38.674-125.109 38.674-191.525s-13.011-130.855-38.674-191.524c-24.782-58.594-60.257-111.211-105.438-156.392s-97.8-80.657-156.392-105.439c-60.671-25.663-125.108-38.675-191.525-38.675zM512 841.302c-122.158 0-237.002-47.571-323.38-133.948-86.379-86.378-133.948-201.223-133.948-323.38s47.571-237.002 133.948-323.38c86.378-86.379 201.223-133.95 323.38-133.95s237.002 47.571 323.38 133.948c86.378 86.379 133.948 201.223 133.948 323.381s-47.571 237.002-133.948 323.38-201.223 133.948-323.38 133.948z" />
<glyph unicode="&#xe6e8;" glyph-name="sim" d="M686.448 586.176c0 24.809-20.072 45.107-44.881 45.107h-180.425l-135.32-135.32v-270.639c0-24.809 20.298-45.107 45.107-45.107h270.865c24.809 0 44.881 20.298 44.881 45.107l-0.227 360.852M438.588 247.877h-45.107v45.107h45.107v-45.107M619.014 247.877h-45.107v45.107h45.107v-45.107M438.588 338.090h-45.107v90.213h45.107v-90.213M528.801 247.877h-45.107v90.213h45.107v-90.213M528.801 383.197h-45.107v45.107h45.107v-45.107M619.014 338.090h-45.107v90.213h45.107v-90.213zM512-108.058c-66.416 0-130.855 13.011-191.525 38.674-58.593 24.782-111.211 60.257-156.392 105.439-45.182 45.181-80.657 97.798-105.439 156.392-25.662 60.671-38.674 125.109-38.674 191.524 0 66.416 13.011 130.855 38.674 191.525 24.782 58.593 60.257 111.211 105.439 156.392 45.181 45.182 97.799 80.657 156.392 105.439 60.672 25.663 125.109 38.675 191.525 38.675s130.855-13.011 191.525-38.674c58.593-24.782 111.211-60.257 156.392-105.439s80.655-97.799 105.438-156.392c25.662-60.671 38.674-125.109 38.674-191.525s-13.011-130.855-38.674-191.524c-24.782-58.594-60.257-111.211-105.438-156.392s-97.8-80.657-156.392-105.439c-60.671-25.663-125.108-38.675-191.525-38.675zM512 841.302c-122.158 0-237.002-47.571-323.38-133.948-86.379-86.378-133.948-201.223-133.948-323.38s47.571-237.002 133.948-323.38c86.378-86.379 201.223-133.95 323.38-133.95s237.002 47.571 323.38 133.948c86.378 86.379 133.948 201.223 133.948 323.381s-47.571 237.002-133.948 323.38-201.223 133.948-323.38 133.948z" />
<glyph unicode="&#xe6e9;" glyph-name="oppo" d="M694.837 417.637c-33.105 16.343-68.087 16.554-103.558 11.043-3.888-0.602-10.966-0.634-9.966-5.478 1.074-5.209 7.276-1.399 11.079-0.924 26.070 3.255 51.486 2.231 74.304-12.587 20.831-13.522 20.856-34.25 0.607-48.693-26.347-18.786-80.301-19.226-107.173-1.036-6.382 4.323-9.975 9.528-9.738 17.668 0.404 14.255-0.215 28.539 0.183 42.794 0.246 8.969-2.831 13.605-12.327 12.741-2.828-0.257-5.723-0.271-8.551 0.008-9.502 0.938-12.485-3.598-12.265-12.638 0.434-18.178 0.129-36.375 0.12-54.567-0.013-16.408-0.017-32.814-0.008-49.221 0.005-19.928 0.008-19.589 20.283-19.587 9.063 0.002 13.119 3.035 12.744 12.425-0.455 11.397-0.166 22.822-0.064 34.236 0.106 11.521 0.407 11.373 11.303 7.091 44.54-17.504 89.089-18.037 133.007 1.85 13.963 6.323 26.957 15.573 26.68 32.971-0.265 16.815-13.196 25.254-26.66 31.904zM470.046 422.951c-29.342 10.409-59.407 10.762-89.752 6.060-4.3-0.665-12.032-0.728-11.142-5.446 1.043-5.523 7.808-1.471 11.963-1.017 24.973 2.723 49.336 1.659 71.35-12.144 22.538-14.132 23.123-37.093 0.18-50.097-34.951-19.808-70.786-18.951-106.119 0.13-6.858 3.704-10.163 9.387-9.92 17.496 0.369 12.118 0.080 24.256 0.068 36.382-0.022 19.178-0.051 18.77-18.832 18.99-9.878 0.113-13.281-3.725-13.049-13.287 0.434-18.181 0.125-36.382 0.133-54.576 0.013-18.906 0.171-37.814-0.063-56.715-0.101-8.133 3.166-12.017 11.446-11.437 2.842 0.199 5.725 0.228 8.556-0.016 8.829-0.761 12.174 3.278 11.89 11.962-0.397 12.114 0.089 24.254-0.113 36.38-0.133 7.998 2.089 10.083 10.067 6.481 37.717-17.032 76.639-17.732 116.068-7.001 12.471 3.392 24.186 8.755 34.059 17.371 15.155 13.22 15.43 30.806 0.802 44.524-7.943 7.459-17.424 12.354-27.593 15.962zM270.402 416.685c-31.023 16.309-64.276 17.18-97.995 13.25-16.757-1.955-32.789-6.874-47.156-16.129-26.463-17.048-26.439-40.509 0.159-57.309 22.853-14.442 48.708-17.106 73.603-18.655 25.626 1.062 49.629 3.964 71.505 15.837 12.871 6.983 25.032 15.673 24.69 32.113-0.329 15.799-12.113 24.216-24.807 30.893zM239.549 360.045c-26.747-17.877-78.512-18.007-105.375-0.266-23.052 15.226-22.553 37.4 1.356 51.577 15.791 9.362 33.166 12.665 51.357 12.253 18.593 0.436 36.288-3.12 52.197-13.031 22.401-13.957 22.48-35.82 0.465-50.533zM893.832 417.885c-21.158 10.531-43.847 14.441-64.606 13.775-30.421 0.036-52.389-3.992-70.267-13.315-13.824-7.21-27.468-15.497-27.321-33.659 0.138-17.719 13.384-26.403 27.241-32.415 44.75-19.419 89.977-19.473 134.724 0.204 14.074 6.19 26.986 15.405 27.153 32.624 0.166 17.39-13.222 25.966-26.923 32.786zM862.382 358.354c-15.556-9.085-32.914-11.157-50.614-12.29-17.408 1.13-34.722 3.287-50.198 12.613-25.134 15.146-25.311 39.608 0.682 53.124 32.814 17.058 66.866 17.134 99.722 0.188 26.574-13.704 26.297-38.516 0.409-53.635zM512-108.058c-66.416 0-130.855 13.011-191.525 38.674-58.593 24.782-111.211 60.257-156.392 105.439-45.182 45.181-80.657 97.798-105.439 156.392-25.662 60.671-38.674 125.109-38.674 191.524 0 66.416 13.011 130.855 38.674 191.525 24.782 58.593 60.257 111.211 105.439 156.392 45.181 45.182 97.799 80.657 156.392 105.439 60.672 25.663 125.109 38.675 191.525 38.675s130.855-13.011 191.525-38.674c58.593-24.782 111.211-60.257 156.392-105.439s80.655-97.799 105.438-156.392c25.662-60.671 38.674-125.109 38.674-191.525s-13.011-130.855-38.674-191.524c-24.782-58.594-60.257-111.211-105.438-156.392s-97.8-80.657-156.392-105.439c-60.671-25.663-125.108-38.675-191.525-38.675zM512 841.302c-122.158 0-237.002-47.571-323.38-133.948-86.379-86.378-133.948-201.223-133.948-323.38s47.571-237.002 133.948-323.38c86.378-86.379 201.223-133.95 323.38-133.95s237.002 47.571 323.38 133.948c86.378 86.379 133.948 201.223 133.948 323.381s-47.571 237.002-133.948 323.38-201.223 133.948-323.38 133.948z" />
<glyph unicode="&#xe6ea;" glyph-name="hong" d="M507.638-104.76c-271.224 0-491.128 219.902-491.128 491.128 0 271.224 219.902 491.128 491.128 491.128 271.224 0 491.128-219.902 491.128-491.128-0.002-271.268-219.862-491.128-491.128-491.128zM503.97 359.75c81.178 0 147.014 71.344 147.014 159.37 0 87.954-65.836 159.332-147.014 159.332-81.208 0-147.046-71.38-147.046-159.37 0-87.988 65.838-159.332 147.046-159.332zM507.64 344.636c-113.662 0-257.3-99.892-257.3-223.116v-27.236h514.598v27.236c-0.002 123.224-143.64 223.116-257.298 223.116z" />
<glyph unicode="&#xe6eb;" glyph-name="lv" d="M507.638-104.76c-271.224 0-491.128 219.902-491.128 491.128 0 271.224 219.902 491.128 491.128 491.128 271.224 0 491.128-219.902 491.128-491.128-0.002-271.268-219.862-491.128-491.128-491.128zM503.97 359.75c81.178 0 147.014 71.344 147.014 159.37 0 87.954-65.836 159.332-147.014 159.332-81.208 0-147.046-71.38-147.046-159.37 0-87.988 65.838-159.332 147.046-159.332zM507.64 344.636c-113.662 0-257.3-99.892-257.3-223.116v-27.236h514.598v27.236c-0.002 123.224-143.64 223.116-257.298 223.116z" />
<glyph unicode="&#xe6ec;" glyph-name="wifi" d="M512.060-104.924c-271.224 0-491.128 219.902-491.128 491.128 0 271.224 219.902 491.128 491.128 491.128 271.224 0 491.128-219.902 491.128-491.128-0.002-271.268-219.862-491.128-491.128-491.128zM473.588 596.296c117.102 12.748 238.648-30.432 321.528-114.080 12.94-14.778 11.332-38.97-3.062-52.256-13.13-16.042-39.584-17.878-54.436-3.33-53.020 52.292-124.76 85.482-199.14 90.956-90.306 7.504-182.566-26.758-246.876-90.382-14.814-15.694-42.456-13.896-55.814 2.794-14.394 13.552-15.582 38.396-1.76 52.792 63.74 63.776 149.91 104.316 239.528 113.544v-0.040h0.032zM490.89 448.414c73.884 7.35 150.254-20.94 201.706-74.458 14.086-14.662 12.442-39.852-2.374-53.44-13.474-16.27-40.424-17.342-55.086-2.106-28.98 29.744-69.138 48.542-110.71 50.836-47.162 3.37-94.9-15.274-128.398-48.426-8.23-9.264-20.48-14.93-33-13.474-29.094 2.028-49.268 40.848-29.208 64.16 40.424 43.87 97.886 71.052 157.070 76.946l-0.040-0.040 0.040 0.002zM502.298 310.37c47.622 8 95.934-31.316 97.466-79.626 4.402-47.354-37.402-92.26-84.908-91.224-42.724-1.492-82.304 33.956-86.058 76.448-6.086 44.598 28.788 89.234 73.464 94.404v0.040l0.036-0.042z" />
<glyph unicode="&#xe6ed;" glyph-name="cheng" d="M507.638-104.76c-271.224 0-491.128 219.902-491.128 491.128 0 271.224 219.902 491.128 491.128 491.128 271.224 0 491.128-219.902 491.128-491.128-0.002-271.268-219.862-491.128-491.128-491.128zM503.97 359.75c81.178 0 147.014 71.344 147.014 159.37 0 87.954-65.836 159.332-147.014 159.332-81.208 0-147.046-71.38-147.046-159.37 0-87.988 65.838-159.332 147.046-159.332zM507.64 344.636c-113.662 0-257.3-99.892-257.3-223.116v-27.236h514.598v27.236c-0.002 123.224-143.64 223.116-257.298 223.116z" />
<glyph unicode="&#xe6ee;" glyph-name="guiji" d="M802.8 573.3c-32.1 0-59.5 27.3-59.5 59.5 0 32.1 25.7 59.5 59.5 59.5 32.2 0 59.5-27.3 59.5-59.5s-27.3-59.5-59.5-59.5zM553.7 615.1h82c9.6 0 19.3 8 19.3 19.3 0 9.6-8 19.3-19.3 19.3h-82c-9.6 0-19.3-8-19.3-19.3s8-19.3 19.3-19.3zM802.8 730.8c-53 0-96.4-43.4-96.4-98.1 0-53 43.4-98.1 96.4-98.1s96.4 43.4 96.4 98.1c0.1 54.7-43.3 98.1-96.4 98.1zM561.7 419h-120.6c-4.8 0-102.9 14.5-102.9 104.5 0 86.8 90 90 99.7 90h30.5c9.6 0 17.7 9.6 17.7 19.3 0 9.6-8 17.7-17.7 19.3h-30.5c-46.6 0-136.6-27.3-136.6-128.6 0-99.7 88.4-136.6 136.6-143.1h120.6c4.8 0 102.9-14.5 102.9-104.5 0-86.8-90-90-99.7-90h-274.9c-6.4 48.2-46.6 83.6-94.8 83.6-53 0-96.4-43.4-96.4-98.1 0-53 43.4-96.4 96.4-96.4 45 0 83.6 32.1 93.2 73.9h276.5c48.2 0 136.6 27.3 136.6 128.6 0 99.7-88.4 136.7-136.6 141.5zM192 112c-32.1 0-59.5 27.3-59.5 59.5 0 33.8 27.3 61.1 59.5 61.1s59.5-27.3 59.5-59.5c-1.6-33.8-27.3-61.1-59.5-61.1z" />
<glyph unicode="&#xe6ef;" glyph-name="weilan" d="M810.4 309.6c-52.5 0-95-42.5-95-95.1 0-52.5 42.5-95 95-95s95.1 42.5 95.1 95c0 52.6-42.6 95.1-95.1 95.1zM512.3 602.2c52.6 0 95.1 42.5 95.1 95 0 52.6-42.5 95.1-95.1 95.1s-95.1-42.5-95.1-95.1c0-52.5 42.5-95 95.1-95zM194.7 366.2c6 118.1 76.7 219.2 177.4 268.9-8 18-12.5 37.7-13 58.6-131.5-58.9-223.5-190.7-223.5-343.8 0-1.3 0.2-2.6 0.2-3.9 17.6 10.5 37.5 17.5 58.9 20.2zM512.3 31.7c-74.2 0-142.4 25.7-196.5 68.5-15.5-13.8-33.7-24.3-53.9-30.9 66.6-59.5 154.2-96.1 250.4-96.1s183.8 36.5 250.5 96.1c-20.2 6.6-38.4 17.1-53.9 30.9-54.3-42.8-122.4-68.5-196.6-68.5zM829.9 366.1c21.4-2.7 41.2-9.6 58.9-20.2 0 1.3 0.2 2.6 0.2 4 0 153.1-92 284.9-223.5 343.7-0.5-20.9-5-40.6-13-58.6 100.7-49.7 171.4-150.8 177.4-268.9zM309.2 214.5c0 52.6-42.7 95.1-95.1 95.1-52.6 0-95.1-42.6-95.1-95.1s42.5-95 95.1-95c52.5 0 95.1 42.5 95.1 95z" />
<glyph unicode="&#xe6f0;" glyph-name="tuoyuan_xuanzhong" d="M869.8 498.6c-20.2 34.2-48.8 64.7-85.2 90.7-73.1 52.4-169.9 81.2-272.5 81.2s-199.4-28.8-272.5-81.2c-36.4-26-65-56.6-85.2-90.7-21.4-36.2-32.2-74.7-32.2-114.6s10.8-78.4 32.2-114.6c20.2-34.1 48.8-64.7 85.2-90.7 73.1-52.4 169.9-81.2 272.5-81.2s199.4 28.8 272.5 81.2c36.4 26 65 56.6 85.2 90.7 21.3 36.2 32.2 74.7 32.2 114.6s-10.9 78.4-32.2 114.6zM754.8 220.2c-64.5-46.2-150.7-71.7-242.8-71.7-92 0-178.3 25.5-242.8 71.7-61.9 44.4-96 102.6-96 163.8s34.1 119.5 96 163.8c64.5 46.2 150.7 71.7 242.8 71.7 92 0 178.2-25.5 242.8-71.7 61.9-44.4 96.1-102.5 96.1-163.8s-34.1-119.5-96.1-163.8z" />
<glyph unicode="&#xe6f1;" glyph-name="tuoyuan_weixuanzhong" d="M869.8 498.6c-20.2 34.2-48.8 64.7-85.2 90.7-73.1 52.4-169.9 81.2-272.5 81.2s-199.4-28.8-272.5-81.2c-36.4-26-65-56.6-85.2-90.7-21.4-36.2-32.2-74.7-32.2-114.6s10.8-78.4 32.2-114.6c20.2-34.1 48.8-64.7 85.2-90.7 73.1-52.4 169.9-81.2 272.5-81.2s199.4 28.8 272.5 81.2c36.4 26 65 56.6 85.2 90.7 21.3 36.2 32.2 74.7 32.2 114.6s-10.9 78.4-32.2 114.6zM754.8 220.2c-64.5-46.2-150.7-71.7-242.8-71.7-92 0-178.3 25.5-242.8 71.7-61.9 44.4-96 102.6-96 163.8s34.1 119.5 96 163.8c64.5 46.2 150.7 71.7 242.8 71.7 92 0 178.2-25.5 242.8-71.7 61.9-44.4 96.1-102.5 96.1-163.8s-34.1-119.5-96.1-163.8z" />
<glyph unicode="&#xe6f4;" glyph-name="duobianxing_weixuanzhong" d="M687.5 80h-351l-175.6 304 175.6 304h351.1l175.5-304-175.6-304zM365.9 131h292.2l146.1 253-146.1 253h-292.2l-146.1-253 146.1-253z" />
<glyph unicode="&#xe6f5;" glyph-name="duobianxing_xuanzhong" d="M687.5 80h-351l-175.6 304 175.6 304h351.1l175.5-304-175.6-304zM365.9 131h292.2l146.1 253-146.1 253h-292.2l-146.1-253 146.1-253z" />
<glyph unicode="&#xe6f7;" glyph-name="QQhong" d="M513 831.8c-247.7 0-448.4-200.8-448.4-448.5s200.7-448.4 448.4-448.4 448.4 200.8 448.4 448.4-200.7 448.5-448.4 448.5zM795.2 207.3c-22-18.4-49 58.8-52.6 46.5-8.6-28.2-13.5-47.7-41.6-78.3-2.4-1.2 31.8-13.5 41.6-39.2 8.6-24.5 26.9-63.7-90.6-75.9-68.6-7.3-118.7 35.5-123.6 35.5-8.6-1.2-4.9 0-14.7 0h-15.9c-2.4 0-24.5-35.5-127.3-35.5-79.6 0-100.4 49-84.5 75.9s42.8 34.3 39.2 39.2c-18.4 20.8-31.8 42.8-39.2 63.7-2.4 4.9-3.7 9.8-4.9 14.7-3.7 11-25.7-63.7-49-46.5-23.3 18.4-22 62.4-6.1 104.1 15.9 42.8 55.1 84.5 55.1 93 1.2 33.1-3.7 39.2 0 47.7 7.3 19.6 17.1 12.2 18.4 22 0 128.5 96.7 233.8 216.7 233.8s216.7-104.1 216.7-233.8c0-4.9 13.5 0 19.6-22 2.4-4.9 2.4-22 1.2-47.7-1.2-12.2 33.1-28.2 50.2-93 17-66.3-0.1-96.9-8.7-104.2z" />
<glyph unicode="&#xe6f8;" glyph-name="qunzu" d="M512.5 832.1c-247.7 0-448.5-200.7-448.5-448.4s200.8-448.4 448.4-448.4 448.5 200.7 448.5 448.4-200.8 448.4-448.4 448.4zM191.8 186.3c-20.3 7.8-30.5 20.4-30.5 37.6 0 98.1 69.7 180.1 162.2 199.2-41.6 16.5-71.1 57-71.1 104.4 0 62 50.4 112.3 112.4 112.3 25.6 0 50.4-8.8 70.3-24.8 0.3-0.3 0.5-0.6 0.8-0.9s0.6-0.5 0.8-0.8c-37.7-24.1-62.7-66.3-62.7-114.4 0-39.3 16.7-74.5 43.4-99.3-78.4-35.3-133-114.1-133-205.7 0-9.1 0.6-18.2 1.7-27.2-26.8 3.2-64.2 9.2-94.3 19.6zM684.6 153.4c-53.6-18.4-134.2-25.1-175.4-25.1-37.8 0-116.1 5.1-170.3 24.2l-0.8 0.3c-13.4 6.3-30.2 14.2-30.2 38.1 0 98.1 69.7 180.1 162.2 199.2-41.6 16.5-71.1 57-71.1 104.4 0 62 50.4 112.3 112.3 112.3 62 0 112.4-50.4 112.4-112.3 0-47.4-29.5-87.9-71.1-104.4 92.5-19.1 162.2-101.1 162.2-199.2 0-17.2-10.1-29.8-30.2-37.5zM833 186.4c-31.8-11-71.2-17.1-98.6-20.3l-0.6-0.1c1.1 9.1 1.8 18.4 1.8 27.8 0 91.6-54.6 170.4-133 205.7 26.6 24.8 43.4 60.1 43.4 99.3 0 45.4-22.6 87.8-60.3 113l3 2.4c20 16.4 45.3 25.5 71.3 25.5 62 0 112.4-50.4 112.4-112.3 0-47.4-29.5-87.9-71.1-104.4 92.5-19.1 162.2-101.2 162.2-199.2-0.2-17.1-10.4-29.7-30.5-37.4z" />
<glyph unicode="&#xe6f9;" glyph-name="taolunzu" d="M512.7 832.1c-247.7 0-448.5-200.7-448.5-448.4s200.8-448.5 448.5-448.5 448.4 200.8 448.4 448.5-200.8 448.4-448.4 448.4zM611.4 131.2c-56.3-19.5-141.2-26.5-184.5-26.5-39.7 0-122.2 5.4-179.3 25.5l-0.8 0.3c-14.1 6.7-31.7 15-31.7 40.1 0 103.2 73.4 189.5 170.7 209.7-43.8 17.3-74.8 60-74.8 109.9 0 65.2 53 118.2 118.2 118.2s118.2-53 118.2-118.2c0-49.9-31.1-92.5-74.8-109.9 97.3-20.1 170.7-106.5 170.7-209.7 0-18.1-10.7-31.3-31.9-39.4zM799.2 200.6c-8.7-16.2-20.7-27.6-34.8-33-0.2-0.1-0.4-0.2-0.6-0.2-4.8-1.7-9.1-3.2-13-4.6-23.5-8.3-35.4-12.4-62.3-15.6-0.8-0.1-1.5-0.1-2.3-0.1-9.8 0-18.3 7.4-19.5 17.4-1.3 10.8 6.5 20.5 17.2 21.8 22.5 2.6 31 5.6 53.8 13.6 3.9 1.4 8.1 2.9 12.9 4.5 11.7 4.7 20.4 25.6 20.4 37 0 44.3-12.6 78.3-38.6 104-23.9 23.6-60.1 40.6-107.6 50.4-8.5 1.8-14.8 8.9-15.6 17.5s4.3 16.8 12.3 20c18.2 7.2 33.7 19.6 44.9 35.7 11.4 16.5 17.5 35.8 17.5 55.9 0 54.4-44.2 98.6-98.6 98.6-18.3 0-48.5-13.6-57.6-18.4-9.6-5-21.5-1.3-26.5 8.3s-1.3 21.5 8.3 26.5c4.5 2.3 44.6 22.9 75.8 22.9 76 0 137.9-61.8 137.9-137.9 0-28.1-8.5-55.2-24.5-78.3-6.3-9-13.5-17.2-21.5-24.4 34.1-11.8 61.9-28.2 82.8-48.9 33.3-33 50.2-77.4 50.2-131.9 0-12.8-4-27.7-11-40.8z" />
<glyph unicode="&#xe6fa;" glyph-name="QQcheng" d="M513 831.8c-247.7 0-448.4-200.8-448.4-448.5s200.7-448.4 448.4-448.4 448.4 200.8 448.4 448.4-200.7 448.5-448.4 448.5zM795.2 207.3c-22-18.4-49 58.8-52.6 46.5-8.6-28.2-13.5-47.7-41.6-78.3-2.4-1.2 31.8-13.5 41.6-39.2 8.6-24.5 26.9-63.7-90.6-75.9-68.6-7.3-118.7 35.5-123.6 35.5-8.6-1.2-4.9 0-14.7 0h-15.9c-2.4 0-24.5-35.5-127.3-35.5-79.6 0-100.4 49-84.5 75.9s42.8 34.3 39.2 39.2c-18.4 20.8-31.8 42.8-39.2 63.7-2.4 4.9-3.7 9.8-4.9 14.7-3.7 11-25.7-63.7-49-46.5-23.3 18.4-22 62.4-6.1 104.1 15.9 42.8 55.1 84.5 55.1 93 1.2 33.1-3.7 39.2 0 47.7 7.3 19.6 17.1 12.2 18.4 22 0 128.5 96.7 233.8 216.7 233.8s216.7-104.1 216.7-233.8c0-4.9 13.5 0 19.6-22 2.4-4.9 2.4-22 1.2-47.7-1.2-12.2 33.1-28.2 50.2-93 17-66.3-0.1-96.9-8.7-104.2z" />
<glyph unicode="&#xe6fb;" glyph-name="QQlan" d="M513 831.8c-247.7 0-448.4-200.8-448.4-448.5s200.7-448.4 448.4-448.4 448.4 200.8 448.4 448.4-200.7 448.5-448.4 448.5zM795.2 207.3c-22-18.4-49 58.8-52.6 46.5-8.6-28.2-13.5-47.7-41.6-78.3-2.4-1.2 31.8-13.5 41.6-39.2 8.6-24.5 26.9-63.7-90.6-75.9-68.6-7.3-118.7 35.5-123.6 35.5-8.6-1.2-4.9 0-14.7 0h-15.9c-2.4 0-24.5-35.5-127.3-35.5-79.6 0-100.4 49-84.5 75.9s42.8 34.3 39.2 39.2c-18.4 20.8-31.8 42.8-39.2 63.7-2.4 4.9-3.7 9.8-4.9 14.7-3.7 11-25.7-63.7-49-46.5-23.3 18.4-22 62.4-6.1 104.1 15.9 42.8 55.1 84.5 55.1 93 1.2 33.1-3.7 39.2 0 47.7 7.3 19.6 17.1 12.2 18.4 22 0 128.5 96.7 233.8 216.7 233.8s216.7-104.1 216.7-233.8c0-4.9 13.5 0 19.6-22 2.4-4.9 2.4-22 1.2-47.7-1.2-12.2 33.1-28.2 50.2-93 17-66.3-0.1-96.9-8.7-104.2z" />
<glyph unicode="&#xe726;" glyph-name="gaoweiyuanjidi" d="M511.8 830c-244.7 0-444.9-200.2-444.9-444.9s200.2-444.9 444.9-444.9 444.9 200.2 444.9 444.9-200.2 444.9-444.9 444.9zM378.3 29.2l89 311.4h-133.5l311.5 400.4-89-311.4h133.5l-311.5-400.4zM378.3 29.2" />
<glyph unicode="&#xe727;" glyph-name="shoucichuxianzai" d="M338.4 440.1h481.1c15 0 28.2-10.5 31.7-25l5.7-24-345.9-117.7-172.6 166.7zM254 440.1l194.6-188-345.1-117.5 61.3 279.9c3.3 14.9 16.4 25.6 31.8 25.6h57.4zM856.1-59.8l-296.8 286.6 311 107 83.4-353.5c4.1-17.4-6.7-35.1-24.2-39.1-2.5-0.5-5-0.9-7.5-0.9h-65.9zM771.7-59.8h-670.4c-18 0-32.6 14.5-32.6 32.6 0 2.4 0.2 4.7 0.8 7l18.6 85.2 408.9 140.6c0.2-0.2 274.7-265.4 274.7-265.4zM507.7 832.7c-122.1 0-221.2-99-221.2-221.2 0-50.6 16.9-97.3 45.5-134.6l166.6-243.1c3.4-5 10.1-6.2 15-2.8 1.1 0.8 2.1 1.7 2.8 2.8l166.7 243.1c28.6 37.4 45.5 84 45.5 134.6 0.2 122.2-98.8 221.2-220.9 221.2zM507.6 507.9c-57.8 0-104.6 46.9-104.6 104.7s46.9 104.7 104.7 104.7c57.8 0 104.6-46.9 104.6-104.7 0-57.9-46.9-104.7-104.7-104.7z" />
<glyph unicode="&#xe728;" glyph-name="liudonghangwei" d="M794.2 319.3c-84.7 0-153.5-68.7-153.5-153.5 0-83.1 66.6-151.3 149.7-153.5h3.7c84.7 0 153.5 68.7 153.5 153.5 0 84.7-68.7 153.5-153.4 153.5zM228.3 319.3c-84.7 0-153.5-68.7-153.5-153.5 0-83.1 66.6-151.3 149.7-153.5h3.7c84.7 0 153.5 68.7 153.5 153.5 0 84.7-68.7 153.5-153.4 153.5zM521.3 485.5h3.7c84.7 0 153.5 68.7 153.5 153.5 0 84.7-68.7 153.5-153.5 153.5-84.7 0-153.5-68.7-153.5-153.5 0.1-83.7 66.7-151.3 149.8-153.5zM234.1 356c12.8 78.3 57.5 146 120.4 189.2-7.5 13.9-13.3 28.8-17.1 44.8-81.4-52.2-139-138.6-151.2-238.7 14.4 3.2 28.8 5.3 44.2 5.3 1.1-0.6 2.1-0.6 3.7-0.6zM799 356c16.5-0.5 33-3.2 48.5-7.5-11.7 97.5-65 181.7-142.3 235-4.3-15.5-10.7-30.4-18.6-44.2 58.5-43.6 100.1-108.7 112.4-183.3zM642.3 51.2c-37.8-18.6-80.5-29.3-125.8-29.3-48 0-92.7 11.7-132.2 32.5-9.6-13.3-20.8-25-33-35.2 48.5-27.7 105-43.7 165.2-43.7 58.1 0 112.4 14.9 160.4 41-13.3 10.2-24.5 22-34.6 34.7zM642.3 51.2" />
<glyph unicode="&#xe729;" glyph-name="plus" d="M849.5 468.375h-253.125v253.125c0 46.599-37.777 84.375-84.375 84.375s-84.375-37.776-84.375-84.375v-253.125h-253.125c-46.599 0-84.375-37.777-84.375-84.375s37.776-84.375 84.375-84.375h253.125v-253.125c0-46.6 37.778-84.375 84.375-84.375s84.375 37.777 84.375 84.375v253.125h253.125c46.6 0 84.375 37.778 84.375 84.375 0 46.598-37.777 84.375-84.375 84.375z" />
<glyph unicode="&#xe72a;" glyph-name="shoucijinruxiaoqu" d="M110.4 668.7c-3.2-2.8-4.7-7-4.1-11.2v-381.8c-0.3-3.8 1-7.5 3.7-10.2 2.6-2.7 6.3-4.2 10.1-4h631.2c3.6-0.1 7 1.2 9.7 3.6l159.8 200-158.8 200c-2.9 2.7-6.8 4-10.7 3.6h-631.2c-3.1 1.2-6.5 1.2-9.7 0zM390.8 831.8h133.4c9.6 0 17.4-7.8 17.4-17.4v-94.7h-168.2v94.7c0 9.6 7.8 17.4 17.4 17.4zM373.4 216.8h168.2v-280.3h-168.2z" />
<glyph unicode="&#xe72b;" glyph-name="hotel" d="M927.3-0.3h-76.5v754.1c-1.1 11.8-10.5 21.1-22.3 22.1h-19.7v32.9c-0.6 13.2-11.4 23.6-24.7 23.7h-548.6c-12.3-0.2-22.5-9.5-23.9-21.7v-34.4h-20.9c-10.8-1.3-19.4-9.7-21-20.5v-756.1h-76.6c-12.6-1.2-22.2-11.8-22.3-24.4v-39.6h878.8v39.6c-0.1 12.6-9.7 23.1-22.3 24.3zM378.1 193.9h-135.7v95.7h135.8v-95.7h-0.1zM378.1 353.5h-135.7v95.7h135.8v-95.7h-0.1zM378.1 513.2h-135.7v95.7h135.8v-95.7h-0.1zM577.8 89h-135.7v200.6h135.7v-200.6zM577.8 353.5h-135.7v95.7h135.7v-95.7zM577.8 513.2h-135.7v95.7h135.7v-95.7zM777.5 193.9h-135.8v95.7h135.8v-95.7zM777.5 353.5h-135.8v95.7h135.8v-95.7zM777.5 513.2h-135.8v95.7h135.8v-95.7z" />
<glyph unicode="&#xe72c;" glyph-name="wine-bar" d="M896.3-36.4c0-15.5-12.5-28-28-28h-280.2c-15.5 0-28 12.5-28 28s12.5 28 28 28h112.1v337.5c-47.1 5.4-87.6 23.9-120 56.8-85.6 86.9-84.4 238.3-84.3 244.6 0.2 15.3 12.7 27.6 28 27.6h408.5c15.3 0 27.8-12.3 28-27.6 0.1-6.4 1.4-157.7-84.3-244.7-32.3-32.9-72.9-51.3-120-56.8v-337.5h112.1c15.5 0.1 28.1-12.4 28.1-27.9zM64 431.7v-399.1c0-0.9 0.1-1.8 0.2-2.7v409.2c-0.2-2.5-0.2-4.9-0.2-7.4zM64.1 29.9v409.2c3.2 75.2 55 113.5 95.6 128.3v236.7c0 15.5 12.5 28 28 28h158.7c15.5 0 28-12.5 28-28v-236.7c41.9-15.3 95.8-55.6 95.8-135.7v-398c-1.3-34.6-27-98.1-115.6-98.1h-175.1c-86.2 0-112.9 60.1-115.4 94.3zM312.4 100.2c0-15.5 12.5-28 28-28s28 12.5 28 28v283.6c0 15.5-12.5 28-28 28s-28-12.5-28-28v-283.6z" />
<glyph unicode="&#xe72d;" glyph-name="railway-station" d="M819.8 746.3c-1.4 47.8-143.5 86.5-318.6 86.5-176 0-318.7-39-318.7-87.2v-539.6c0-39.1 31.7-70.8 70.8-70.8h40.9l-87.2-199.4h588.3l-108.9 199.3h62.6c39.1 0 70.8 31.7 70.8 70.8v540.4zM492.5 782.9c20.3 0 36.8-16.7 36.8-37.4 0-20.6-16.5-37.4-36.8-37.4s-36.8 16.7-36.8 37.4 16.5 37.4 36.8 37.4zM256 284.6c0 27.5 22 49.8 49 49.8 27.1 0 49-22.3 49-49.8s-22-49.8-49-49.8-49 22.3-49 49.8zM634.6 135.1l21.8-49.8h-326.8l16.3 49.8h288.7zM700-14.4h-403.1l16.3 49.8h365l21.8-49.8zM697.3 234.8c-27.1 0-49 22.3-49 49.8s22 49.8 49 49.8c27.1 0 49-22.3 49-49.8s-22-49.8-49-49.8zM746.3 435.2c0-14.4-11.7-26-26-26h-438.2c-14.4 0-26 11.7-26 26v222c0 14.4 11.7 26 26 26h438.2c14.4 0 26.1-11.7 26.1-26l-0.1-222z" />
<glyph unicode="&#xe72e;" glyph-name="cause-trouble-psychosis" d="M374.1 645.2c-32.3 0-63.7-14.3-72.5-25.2-15.1-18.6-30.9-40.5-26.4-65 2.5-13.8 11.2-27.6 26.1-41.3 15.5 27.7 34.8 53.7 49.8 73.8l3.2 4.3c11.1 14.9 30.9 21.8 60.1 20.6 2.1 6.2 4.9 11.6 8.4 16.2-13.1 12.7-31.2 16.1-44.9 16.6h-3.8zM626.8 487c-32.8-14.2-61.9-22.9-73-26.1-25.1-7.1-46.1-5.5-62.5 4.6-28 17.3-34.8 53.9-41.5 89.2-0.3 1.3-0.5 2.7-0.8 4-0.8-4.8-1.7-9.8-2.6-14.9-3.6-19.9-7.3-40.5-7.9-58.3-0.7-21.4 3.6-28.1 5.5-30 3.5-3.6 12.4-2.8 17.4-1.9 11.1 1.8 23.3 2.5 36.2 2.5 23.1 0 48.4-2.3 73.1-4.5 23-2.1 44.7-4 62.4-3.9 16.7 0.1 24.1 2.1 27 3.3-0.1 0.6-0.4 1.5-0.7 2.5-3.2 9-15 20.8-32.6 33.5zM385.3 561.8c-14.7-19.6-34.6-46.3-49.2-73.6 1-0.6 1.9-1.2 2.9-1.7 23.9-14 44.9-27.8 62.1-40.8-10.6 28.8-3.3 69.2 3.3 105.7 1.1 6.3 2.3 12.5 3.2 18.3-12-0.1-17.8-2.3-19.1-3.7l-3.2-4.2zM319.7 448.3c-3.1-12.4-3.2-22.7-0.3-30.6 4.7-12.6 18.8-21.7 41.9-27 22.7-5.2 36.8-6.7 45.4-6.8-10.7 12.2-35.9 34.2-87 64.4zM947.1 264.7l-95.7 216.2c3.3 17.7 1.6 34.4-0.1 50.5-0.7 6.5-1.4 13.3-1.8 20-8.6 165.6-144 281.3-329.3 281.3-95.5 0-177.1-27.4-236-79.2-62.2-54.8-97.8-133.6-105.7-234.2-8.6-110 43.7-214 59.9-243.2 39.5-76.2 63.1-149 66.3-204.9 0.4-44.3-0.6-103.6-0.8-115-0.1-10.9 8.3-19.6 18.9-19.8h0.3l335.6 3.8c10.6 0 19.2 8.6 19.2 19.2v102.4h84.3c47.9 0 86.8 39 86.8 86.8l0.7 89.2h79.7c6.5 0 12.5 3.3 16.1 8.7 3.6 5.5 4.2 12.3 1.6 18.2zM749.5 584.2c-12.8-31.1-45.2-56.7-80.3-76.4 18.4-16.3 26.8-29.9 30.4-40.2 7.3-20.8 1.5-34.6-4.7-42.4-20.1-25.8-67.7-21.5-128.1-16.1-35.9 3.2-72.9 6.5-98.7 2.4-10.7-1.7-20.3-1.7-28.9 0.2 12.1-13.9 21.4-30.7 14.6-47.7-7-17.7-26.2-22-41-22.6-1.4-0.1-2.9-0.1-4.4-0.1-14.6 0-33.2 2.6-56.6 7.9-38.2 8.7-62.6 26.8-72.5 53.8-8 21.7-5.2 46.1 3.3 70.5-28.2 22.8-44.9 47.6-49.6 74-8.3 45.9 21.2 82.1 35.3 99.6 20.2 24.9 68 42.4 111 40.9 32.8-1.2 60.4-13.4 78.8-34.7 7.2 3 15 5.9 23.4 8.9 22.3 8 50 18 86.5 37.3 55.2 29.1 85.2 36.9 110.8 28.7 27.1-8.6 40.5-32.6 59.1-65.8 2.2-4 4.6-8.2 7.1-12.6 12-21.1 13.5-43.8 4.5-65.6zM542.2 502c12.8 3.6 26 7.9 39.2 12.7-26.3 14-56.8 27.3-87.7 37.5 4.4-22.7 9.6-44 20-50.4 5.9-3.5 15.4-3.5 28.5 0.2zM700.7 641.3c-13.7 24.7-23.7 42.5-34.7 46-16.2 5.2-52.3-12.2-78-25.8-39.2-20.7-69.7-31.7-91.9-39.7-6.7-2.4-12.3-4.5-17.1-6.3 1.8-5.1 3.4-10.3 4.8-15.6 35.4-10 74.5-25.3 109.9-43.3 14.1-7.2 26.4-14.1 37.1-20.8 38.3 18.9 69.8 41.7 79.2 64.6 4 9.8 3.4 18.5-2.1 28.1-2.5 4.5-4.9 8.8-7.2 12.8z" />
<glyph unicode="&#xe72f;" glyph-name="airport" d="M780.3 502.2l107 106.7c33.5 33.4 52.5 79.7 52.1 127 0.1 20.3-8.1 40.1-22.5 54.2-14.8 14.9-35.3 23.2-56.1 22.9h-3.3c-45.6-0.3-88.5-18.3-120.8-50.6l-108.2-108.1-453.8 177.3c-7.9 3.1-16.9 1.3-22.9-4.7l-81.2-81.2c-4.3-4.3-6.6-10.3-6.2-16.4 0.4-6.2 3.4-11.8 8.3-15.6l102.5-79.7-23.3-23.6c-8.3-8.3-8.3-21.9 0-30.2 4-4 9.3-6.2 15-6.2h0.2c5.7 0 11.2 2.3 15.1 6.2l27.2 27.2 88.3-68.1-24-24c-8.2-8.3-8.2-21.8 0-30.1 4-4 9.4-6.2 15.1-6.2h0.1c5.8 0 11.1 2.2 15.1 6.2l27.5 27.5 87.7-68.2-142.2-141.8-147.2 4.7c-27.2 2.9-52.7-13-62.1-38.7-9.4-25.6-0.3-54.3 22.2-69.7l96.3-64.8-4.1-16.5c-3.8-15.1-0.5-30.7 9-43s23.8-19.3 39.3-19.4h0.1c4.1 0 8.2 0.5 12.2 1.5l16.8 4.1 65.1-96.8c11.2-15.7 29.3-25.3 48.6-25.5h5.6c31.9 3.3 55.5 30.8 53.9 62.9l-4.7 148.2 141.8 141.8 68.2-87.7-27.5-27.5c-8.4-8.3-8.4-21.9-0.1-30.3 4-4.1 9.4-6.3 15.1-6.3h0.1c5.7 0 11 2.2 15.1 6.2l23.9 23.9 68.2-87.7-27.2-27.2c-8.4-8.3-8.4-21.9-0.1-30.3s21.9-8.4 30.2-0.1l23.6 23.6 79.7-102.7c3.7-4.9 9.3-7.9 15.4-8.4h1.5c5.6 0.1 11.1 2.3 15.3 6.2l81.4 81.4c6.5 5.9 8.7 15.3 5.6 23.5l-177.9 454.1z" />
<glyph unicode="&#xe730;" glyph-name="passenger-station" d="M830.7 832.6h-634.8c-49 0-88.9-39.9-88.9-88.9v-668.2c0-30.6 24.9-55.5 55.5-55.5h16.5v-31.5c0-29.1 23.6-52.7 52.7-52.7h66.7c29.1 0 52.7 23.6 52.7 52.7v31.5h324.2v-31.5c0-29.1 23.6-52.7 52.7-52.7h66.7c29.1 0 52.7 23.6 52.7 52.7v31.5h16.6c30.6 0 55.5 24.9 55.5 55.5v668.2c0.1 49-39.7 88.9-88.8 88.9zM271.5 129.6c-30.5 1.3-54.2 26.3-53.8 56.9 0.4 31.7 27.1 56.8 59 55.4 30.9-1.3 54.3-26.2 53.7-57-0.7-32.5-26.5-56.7-58.9-55.3zM699.9 130.6c-32.1-0.3-56.1 24.9-55 57.4 1.1 31.5 24.2 53.1 56 52.3 31-0.7 54.4-24.6 54-55.1-0.4-30.2-24.7-54.4-55-54.6zM875.2 390.2h-723.7v251.7h723.7v-251.7z" />
<glyph unicode="&#xe731;" glyph-name="key-record-crimina" d="M402.7 580.5c-15.3 7.1-32.8 7.9-48.6 2.1s-28.7-17.6-35.9-32.9l-49.9-107c-76-16.1-143.6-66.3-179-142-59.9-128-4.6-280.3 123.3-340.1 92.4-43.3 197.4-26.5 271.1 34.3-21.8 24.8-39.5 52.6-52.3 83.1-2.7 6.1-5 12.2-7.1 18.5-15-16.3-33.9-28.8-55.3-36.7-35.4-12.9-73.7-11.1-107.8 4.9-34.1 15.9-60 44.2-72.8 79.5-12.9 35.4-11.1 73.7 4.8 107.8s44.1 60 79.7 72.8c35.3 12.9 73.6 11.1 107.7-4.8 15.6-7.3 29.8-17.4 41.8-29.8 4.9 15 9.7 29.7 16.9 43.8 17.1 33.7 51.5 64.1 67.9 89.3v95.5c0 4 1.3 7.7 1.7 11.6l-106.2 50.1zM436.7 430.7c-19.2 0-34.9 15.6-34.9 34.8 0 19.3 15.7 34.9 34.9 34.9s34.9-15.6 34.9-34.9c0-19.2-15.7-34.8-34.9-34.8zM490.8 614.8c22 0 39.8 17.8 39.8 39.7 0 22-17.9 39.9-39.8 39.9-22 0-39.8-17.9-39.8-39.9 0-21.9 17.9-39.7 39.8-39.7zM711.4 652.7c22 0 39.7 17.9 39.7 39.9 0 21.9-17.8 39.7-39.7 39.7-22 0-39.9-17.8-39.9-39.7 0-22.1 17.9-39.9 39.9-39.9zM591.2 704.8c22.1 0 39.9 17.9 39.9 39.8s-17.9 39.8-39.9 39.8-39.8-17.9-39.8-39.8 17.8-39.8 39.8-39.8zM850.8 400.7v118.2c0 35.1-14.2 61.3-49.3 61.3h-180.2c-35.2 0-64.6-26.1-64.6-61.3v-118.1c-65.5-40.7-90.7-102.2-99.6-172.6 0.1-0.1 0.1-0.2 0.1-0.3-1.4-10.5-2.1-20.9-2.1-31.6 0-141.3 114.8-255.9 256.1-255.9 141.2 0 248.8 114.6 248.8 255.9 0 83.6-43.5 157.7-109.2 204.4zM711.4 517.2c19.2 0 34.8-15.6 34.8-34.9 0-9.2-3.7-18.1-10.2-24.6s-15.4-10.2-24.6-10.2c-19.2 0-34.9 15.6-34.9 34.8 0 19.3 15.7 34.9 34.9 34.9zM811 96.6c-26.6-26.5-62-41.2-99.6-41.2s-73.2 14.6-99.7 41.2c-18 18-30.4 39.9-36.6 63.9-1.5 5.5-2.6 11.2-3.3 17-0.1 0.5-0.2 1-0.2 1.7-0.3 2.3-0.5 4.4-0.6 6.7-0.1 0.6-0.2 1.4-0.2 2.1-0.2 2.7-0.2 5.5-0.2 8.4 0 2.6 0 5.2 0.2 7.9 0 0.6 0 1.3 0.1 2 0.1 2 0.3 4.1 0.5 6 0 0.6 0.2 1.3 0.3 2 0.2 2.2 0.5 4.3 0.9 6.4 0 0.4 0 0.8 0.2 1.3 0.4 2.6 0.9 5.1 1.6 7.6 6 25.2 18.9 48.3 37.3 66.6 26.5 26.5 62.1 41.2 99.7 41.2s73-14.6 99.6-41.2c26.7-26.8 41.3-62.1 41.3-99.7 0-37.9-14.6-73.2-41.3-99.9z" />
<glyph unicode="&#xe732;" glyph-name="key-visitor" d="M829.1 700.4l-2.2 1.9c-80.9 80.6-192 130.4-315.7 130.4-123.5 0-235.2-49.9-315.8-130.4l0.5-0.4c-81-80.8-131.5-192.2-131.5-315.5 0-123.4 50.5-235.1 131-315.8h0.5c80.3-81.1 191.9-130.8 315.4-130.8h333c19.1 0 34.4 15 34.4 34.5v158.3c24.4 35.1 44.1 73.7 57.3 115.3 14.1 43.8 22 90.2 22 138.6-0.1 122.2-49.7 233-128.9 313.9zM720.6 456.2c38.5 0 69.8-31.3 69.8-70 0-38.5-31.3-69.8-69.8-69.8-38.6 0-69.9 31.3-69.9 69.8 0.1 38.8 31.3 70 69.9 70zM301.7 316.5c-38.5 0-69.8 31.3-69.8 69.8 0 38.7 31.3 70 69.8 70s69.8-31.3 69.8-70c0-38.5-31.3-69.8-69.8-69.8zM511.1 316.5c-38.5 0-69.8 31.3-69.8 69.8 0 38.7 31.3 70 69.8 70 38.6 0 69.9-31.3 69.9-70 0-38.5-31.3-69.8-69.9-69.8zM815.7 44.5l-43-43-55.4 55.4-55.4-55.4-42.9 43 55.3 55.2-55.3 55.3 42.9 43 55.4-55.4 55.4 55.4 43-43-55.4-55.4 55.4-55.1z" />
<glyph unicode="&#xe733;" glyph-name="other-place" d="M960.3 459.9c0-24.4-20.4-46.8-46.8-46.8h-321.6c-24.4 0-46.8 20.4-46.8 46.8v321.7c0 24.4 20.4 46.8 46.8 46.8h321.7c24.4 0 46.8-20.4 46.8-46.8l-0.1-321.7zM480.5 459.9c0-24.4-20.4-46.8-46.8-46.8h-321.6c-24.4 0-46.8 20.4-46.8 46.8v321.7c0 24.4 20.4 46.8 46.8 46.8h321.7c24.4 0 46.8-20.4 46.8-46.8l-0.1-321.7zM480.5-12.6c0-24.4-20.4-46.8-46.8-46.8h-321.6c-24.4 0-46.8 20.4-46.8 46.8v321.6c0 24.4 20.4 46.8 46.8 46.8h321.7c24.4 0 46.8-20.4 46.8-46.8l-0.1-321.6zM915.5 355.9h-323.6c-24.4 0-46.8-20.4-46.8-46.8v-321.7c0-24.4 20.4-46.8 46.8-46.8h321.7c24.4 0 46.8 20.4 46.8 46.8v321.6c-0.1 26.5-20.4 46.9-44.9 46.9zM903.4 32.8c0-17.5-15.8-33.3-33.3-33.3h-232.8c-17.5 0-33.3 15.8-33.3 33.3v232.9c0 17.5 14 33.3 33.3 33.3h232.9c17.5 0 33.3-15.8 33.3-33.3l-0.1-232.9z" />
<glyph unicode="&#xe734;" glyph-name="related-stabilize" d="M512.6 833.1c-247.5 0-448.2-200.7-448.2-448.2 0-247.6 200.7-448.2 448.2-448.2 247.6 0 448.2 200.7 448.2 448.2 0.1 247.5-200.6 448.2-448.2 448.2zM769.4 276.9l-81.6 81.6h-94.1l-81.6-81.6-81.6 81.6h-93l-81.6-81.6-108 108 108 108 81.6-81.6h93l81.6 81.6 81.6-81.6h94.1l81.6 81.6 108-108-108-108z" />
<glyph unicode="&#xe735;" glyph-name="other-person" d="M750.6-60.4c13.2 0 23.9 11.5 24.3 26.3l0.2 9.2h0.4c0.3 6.7 0.5 12.6 0.5 18.2 0 158.7-88 299.1-224.2 357.8l-15.3 6.6 13.5 9.8c65.2 47.2 104.1 126 104.1 210.8 0 139.8-104.9 253.5-233.8 253.5-129 0-233.8-113.7-233.8-253.5 0-84.7 38.9-163.6 104.1-210.8l13.5-9.8-15.3-6.6c-136.1-58.7-224-199.2-224-357.7 0-5.7 0.2-11.4 0.5-18.2h0.6l0.1-9.4c0-15 11-27.2 24.4-27.2 13.6-0.2 646.9 1 660.2 1M690.5 334.8c61.2-7.3 116.6-39 156.4-89.4 39.5-50.2 61.3-116.2 61.3-185.7 0-15.3 11.2-27.7 25-27.7 13.3 0 24.2 11.6 24.7 26.5l0.1 0.8c0 0.1 0 0.3 0.1 0.4-0.2 132-73.4 248.7-186.7 297.5l-15.3 6.6 13.5 9.8c54.2 39.1 86.6 104.5 86.6 175 0 97.5-60.7 181.2-147.9 204.2l-0.5-0.2-2.4 0.2c-0.5 0-1 0.1-1.6 0.2-0.2 0-0.4 0.1-0.6 0.1-13.9 0-25.3-12.7-25.3-28.1 0-14 9-25.6 21.5-27.7l1.2-0.2 1-0.4c1.3-0.5 3-1.2 5.3-1.8 0.5-0.1 0.8-0.2 1-0.3 57.3-21 95.7-78.9 95.7-143.9 0-72.7-47.8-135.1-113.9-149.1l-1.1-0.6-2.2-0.1c-15.6-1-27.9-15.4-27.9-32.6 0-17.6 12.6-32 28.6-32.7l2.1-0.1 1.3-0.7" />
<glyph unicode="&#xe736;" glyph-name="related-drug" d="M902.4 34.1c82.6 103.4 74.6 252.3-18.8 346.1l-163.6-163.6 182.4-182.5zM516.1 12.6c93.7-93.4 242.5-101.5 345.8-18.9l-182.3 182.4-163.5-163.5zM658.7 237.2l239.8 239.7c52.4 52.4 72.8 128.7 53.7 200.3-19.2 71.6-75.1 127.5-146.6 146.7-71.6 19.2-147.9-1.3-200.3-53.7l-479.7-479.7c-53.3-52.2-74.5-129-55.5-201.2 19.1-72.2 75.4-128.5 147.6-147.6s149 2.1 201.2 55.5l15.5 15.4v0.1l224.3 224.5zM209 207.1c-34.8-34.9-34.8-91.4 0-126.3 5.4-5.4 8.4-12.6 8.4-20.2s-3-14.9-8.4-20.2c-5.4-5.4-12.7-8.4-20.2-8.3-7.6 0-14.8 3.1-20.2 8.5-57.1 57.2-57.1 149.9 0 207.1l479.7 479.7c57.3 57.1 149.9 57.1 207.2 0.1 57.1-57.3 57.1-150 0-207.3l-239.8-240.1-166.7 166.9c-52.7-52.7-239.9-239.9-240-239.9z" />
<glyph unicode="&#xe737;" glyph-name="escaping-criminal" d="M772.1 832.1h-534.6c-37.5 0-68-30.4-68-68v-759.8c0-37.5 30.4-68 68-68h534.7c37.5 0 68 30.4 68 68v759.9c-0.1 37.5-30.5 67.9-68.1 67.9zM505.5 702.2c41 0 74.4-33.4 74.4-74.4s-33.4-74.4-74.4-74.4-74.4 33.4-74.4 74.4c0 41 33.4 74.4 74.4 74.4zM448.2 555.2c15.9-12.5 35.6-20.3 57.4-20.3 21.7 0 41.5 7.8 57.3 20.3 30.1-19.1 51-52.7 53.9-91.7-10.5-1.4-29.3-3-56-3h-110.5c-26.7 0-45.5 1.5-56 3 2.8 38.9 23.8 72.5 53.9 91.7zM507.2 75.4h-197.4c-14.3 0-25.8 11.6-25.8 25.8 0 14.3 11.6 25.8 25.8 25.8h197.4c14.3 0 25.8-11.6 25.8-25.8 0.1-14.2-11.5-25.8-25.8-25.8zM699.8 193.6h-390c-14.3 0-25.8 11.6-25.8 25.8 0 14.3 11.6 25.8 25.8 25.8h389.9c14.3 0 25.8-11.6 25.8-25.8 0.1-14.3-11.5-25.8-25.7-25.8zM699.8 311.7h-390c-14.3 0-25.8 11.6-25.8 25.8 0 14.3 11.6 25.8 25.8 25.8h389.9c14.3 0 25.8-11.6 25.8-25.8 0.1-14.2-11.5-25.8-25.7-25.8z" />
<glyph unicode="&#xe738;" glyph-name="related-terrorist" d="M958.1 789.9c-11.8 14.4-23.8 28.8-35.7 43.2h-1.8c-4.3-8.6-25.7-22.6-33.9-29.1l-85-72c-19.3 22.5-38.7 44.9-57.9 67.2-7.9 10.1-15.6 21.4-30 25-21 5-25.2-14.8-28.2-29.2-4.9-24.1-3-52.9-7.1-77.9-0.7-12.7-1.6-25.5-2.4-38.2-1.4-4.2-29.3-24.8-34.7-29.1-31.5-26.2-63-52.3-94.5-78.5-11.3 8.6-28.5 27.8-50.7 21.1-16.2-4.8-33.1-25.9-46.1-36.1-33.4-28.3-67-56.7-100.5-85-17-14.4-34.1-28.8-51.3-43.2-11-21.5 15.8-53.4 8-66.6-3.2-5.8-10.8-10.1-16-14.2l-26.3-23c-10-7.9-21.5-15.5-28.2-26.8-7.7-13-3.5-34-7.4-51.6-4.3-18.6-14.8-32.9-25-45.6-11.8-14.5-29.3-26.5-44.2-38-22.6-19-45-37.9-67.6-56.8-5.5-4.4-33.6-25.9-26.8-39.5 11.5-23 30.3-38.9 45.6-58.2 11-13.1 22.2-26.3 33.3-39.5 10.9-13.7 20.9-26.7 37.1-35.3 8.4-4.3 17.9 5.2 20.2 8.2 13.2 16.1 22.8 37.2 32.4 56.8 28.8 56 57.4 112.1 85.9 168.2 8.8 16.9 24.2 59.1 37.7 68.5 12.5-1.1 23-48.2 27.1-61.1 15.5-46.8 35.3-93.1 53.7-138 5.9-14.4 10.2-42.2 25.8-46.6 11.3-3.1 37.1 25 44.2 30.5 6.7 5.5 39.1 29.9 41.3 35.8 5.3 14.9-9.4 37.4-14 47.5-13.3 30.1-26.6 60.4-40 90.5-4.8 11.2-9.6 22.3-14.5 33.4 0.2 2.6 23.2 19.9 26.8 22.6 20.5 16 41.3 32.5 41.3 69 0.2 0.1 0.2 0.4 0.5 0.6 8.3-2.5 20.4-16 27.7-21.2 20.3-14.4 42.4-29.1 65.8-40 32.5-15.1 69-25 108.4-33.7 20.4-3.5 40.8-6.8 61.2-10.3 19.7-4.4 39.6-2.8 60.5-6.1 7-1.2 21.9-4.6 29.5-1.4 7.7 3 13.2 11 16.1 18.8 5.6 15.5 7.2 69 4.2 90.1-2 14.6 1.8 27.5-7.6 34.3-7.2 5.3-20.4 3.4-32.4 3.2-20.8-0.2-42-1.8-61.5 1.8-54.1 10.2-98.7 46.8-138 73.3-10.8 7.2-36.1 19.6-39.1 32.9-2.6 12.1 34.9 38.4 42.7 44.5 24.8 21.3 49.6 42.4 74.3 63.5 6.4 5.2 24.7 16.9 22.9 28.7-1.7 12.5-15.4 17.4-19.7 27.6 64.3 54.4 128.7 108.7 193 163 0.7 0.8 0.8 1.4 0.9 2zM509.7 317.9c-6-22.1-25.9-42.5-43.7-52.6-5.8 1.8-15 31.4-11.8 41.8 2.5 8.2 40.4 37.7 49.3 42.3 1.7-0.2 3.5-0.4 5.2-0.5 5.3-3.9 2.6-24.6 1-31zM731.2 672.5h-0.5c-3.8 12.2-8.3 39.8-5.5 51.6 1.4 1 2.8 1.9 4.2 2.9 8.3-1.2 26.5-23.5 30.1-30.6-9.4-7.9-18.9-15.9-28.3-23.9z" />
<glyph unicode="&#xe739;" glyph-name="ktv" d="M439.4 299.9c40.4-22.4 80.7-35.9 114.4-40.4l-208.6-300.4c-22.4-31.4-67.3-26.9-96.4-11.2l-33.6 20.2c-26.9 15.7-53.8 53.8-38.1 89.7l152.5 336.3c20.1-31.4 60.4-65 109.8-94.2M748.8 376.2c-40.4-47.1-83-69.5-127.8-71.8l-2.2 2.2c-31.4-9-94.2 9-159.2 49.3-65 40.4-114.3 85.2-121.1 116.6h-2.2c-17.9 38.1-20.2 85.2-2.2 143.5 42.5-56 105.3-112 183.7-159.1 78.5-44.8 161.5-74 231-80.7M798.1 447.9c-4.5-9-9-15.7-13.5-22.4-65 2.2-152.5 29.1-242.2 80.7-85.1 51.6-152.4 112.1-188.2 168.2l13.5 26.9c78.5 139 219.7 163.7 338.6 94.2 121-71.8 168-213 91.8-347.6z" />
</font>
</defs>
</svg>
