<?xml version="1.0" encoding="UTF-8"?>
<svg width="20px" height="20px" viewBox="0 0 20 20" version="1.1" xmlns="http://www.w3.org/2000/svg" xmlns:xlink="http://www.w3.org/1999/xlink">
    <!-- Generator: Sketch 60.1 (88133) - https://sketch.com -->
    <title>收藏_normal</title>
    <desc>Created with Sketch.</desc>
    <g id="收藏_normal" stroke="none" stroke-width="1" fill="none" fill-rule="evenodd">
        <g>
            <rect id="矩形" x="0" y="0" width="20" height="20"></rect>
            <path d="M15.097988,19 C14.9783782,19 14.8580483,18.9699761 14.7487209,18.9095505 L9.99998872,16.2909288 L5.25123401,18.9095505 C5.00029179,19.0488833 4.69285213,19.0257753 4.4602699,18.8495026 C4.22915016,18.6732299 4.11320779,18.3741942 4.16162773,18.0786283 L5.06853422,12.53194 L1.22668601,8.60324028 C1.02198123,8.39387517 0.948608824,8.08058283 1.03665122,7.79540252 C1.12543612,7.51022224 1.36022335,7.30201371 1.64345305,7.25888968 L6.95205214,6.44989534 L9.3264295,1.40353532 C9.57883422,0.865488228 10.4211658,0.865488228 10.6735705,1.40353532 L13.0479479,6.44989534 L18.356547,7.25888968 C18.6397766,7.30199009 18.8745639,7.51019862 18.9633488,7.79540252 C19.0513912,8.08058281 18.9780188,8.39387517 18.773314,8.60324028 L14.9314432,12.53194 L15.8383497,18.0786283 C15.8867697,18.3741942 15.7708498,18.6732535 15.5397075,18.8495026 C15.4090952,18.9492048 15.2535529,19 15.097988,19 Z M10,14.7169222 C10.1269736,14.7169222 10.2531874,14.7486756 10.368551,14.8125819 L14.3265035,17 L13.570835,12.3667177 C13.5266982,12.096439 13.6118616,11.8204686 13.7984758,11.629174 L17,8.34723558 L12.5759159,7.67155117 C12.3173152,7.63205908 12.094328,7.46150912 11.9789644,7.21527011 L10,3 L8.0210119,7.21527011 C7.90564828,7.46153408 7.68266103,7.63208404 7.4240604,7.67155117 L3,8.34723558 L6.20152424,11.629174 C6.38811461,11.8204686 6.47327809,12.096439 6.42916498,12.3667177 L5.67349651,17 L9.63144898,14.8125819 C9.74681262,14.7486756 9.87302643,14.7169222 10,14.7169222 Z" id="形状" fill="#808695"></path>
        </g>
    </g>
</svg>