<?xml version="1.0" encoding="UTF-8"?>
<svg width="20px" height="20px" viewBox="0 0 20 20" version="1.1" xmlns="http://www.w3.org/2000/svg" xmlns:xlink="http://www.w3.org/1999/xlink">
    <!-- Generator: Sketch 60.1 (88133) - https://sketch.com -->
    <title>TAB_normal</title>
    <desc>Created with Sketch.</desc>
    <g id="TAB_normal" stroke="none" stroke-width="1" fill="none" fill-rule="evenodd">
        <g>
            <rect id="矩形" x="0" y="0" width="20" height="20"></rect>
            <path d="M16.5,13.8 C16.8865993,13.8 17.2,14.1134007 17.2,14.5 C17.2,14.8543827 16.9366564,15.1472582 16.5949859,15.1936098 L16.5,15.2 L3.5,15.2 C3.11340068,15.2 2.8,14.8865993 2.8,14.5 C2.8,14.1456173 3.06334362,13.8527418 3.40501415,13.8063902 L3.5,13.8 L16.5,13.8 Z M16.5,8.8 C16.8865993,8.8 17.2,9.11340068 17.2,9.5 C17.2,9.85438271 16.9366564,10.1472582 16.5949859,10.1936098 L16.5,10.2 L3.5,10.2 C3.11340068,10.2 2.8,9.88659932 2.8,9.5 C2.8,9.14561729 3.06334362,8.85274177 3.40501415,8.80639017 L3.5,8.8 L16.5,8.8 Z M16.5,3.8 C16.8865993,3.8 17.2,4.11340068 17.2,4.5 C17.2,4.85438271 16.9366564,5.14725823 16.5949859,5.19360983 L16.5,5.2 L3.5,5.2 C3.11340068,5.2 2.8,4.88659932 2.8,4.5 C2.8,4.14561729 3.06334362,3.85274177 3.40501415,3.80639017 L3.5,3.8 L16.5,3.8 Z" id="形状结合" fill="#808695"></path>
        </g>
    </g>
</svg>