<?xml version="1.0" encoding="UTF-8"?>
<svg width="20px" height="20px" viewBox="0 0 20 20" version="1.1" xmlns="http://www.w3.org/2000/svg" xmlns:xlink="http://www.w3.org/1999/xlink">
    <!-- Generator: Sketch 60.1 (88133) - https://sketch.com -->
    <title>反馈_normal</title>
    <desc>Created with Sketch.</desc>
    <g id="反馈_normal" stroke="none" stroke-width="1" fill="none" fill-rule="evenodd">
        <g>
            <rect id="矩形" x="0" y="0" width="20" height="20"></rect>
            <path d="M13.6666667,2.35 C15.316207,2.35 16.65,3.70111499 16.65,5.36363636 L16.65,5.36363636 L16.6497933,5.51739857 C17.8152492,5.92807087 18.65,7.04840719 18.65,8.36363636 L18.65,8.36363636 L18.65,14.2727273 L18.6456707,14.4361722 C18.6427882,14.4904695 18.6384697,14.5445682 18.6327262,14.5984249 L18.6327262,14.5984249 L18.62,14.698 L18.6194892,18.3857714 L18.6119082,18.5030135 C18.5867887,18.6963845 18.4999988,18.8777359 18.3628229,19.0192184 L18.3628229,19.0192184 L18.2709037,19.1020893 C17.9184562,19.3790373 17.4067996,19.3597946 17.0760422,19.039105 L17.0760422,19.039105 L15.269,17.286 L6.33333333,17.2863636 L6.15785146,17.2812409 C4.98399128,17.2125128 3.99371376,16.4586946 3.57028856,15.4112115 L2.9239578,16.039105 C2.59320043,16.3597946 2.08154377,16.3790373 1.72909629,16.1020893 L1.72909629,16.1020893 L1.63717711,16.0192184 C1.47256599,15.8494394 1.38051077,15.6222491 1.38051077,15.3857714 L1.38051077,15.3857714 L1.38,11.698 L1.35972868,11.5174638 L1.35432926,11.4361722 L1.35,11.2727273 L1.35,5.36363636 C1.35,3.70111499 2.68379301,2.35 4.33333333,2.35 L4.33333333,2.35 Z M16.650466,6.97304007 L16.65,11.2727273 C16.65,12.9352486 15.316207,14.2863636 13.6666667,14.2863636 L13.6666667,14.2863636 L4.731,14.286 L4.653,14.361 L4.65619372,14.4208505 C4.72590736,15.2506392 5.37589839,15.9094483 6.18835684,15.9800882 L6.33333333,15.9863636 L15.7950215,15.9863636 L17.32,17.464 L17.3194892,14.6559436 L17.3277472,14.5526614 L17.3444105,14.4138066 L17.35,14.2727273 L17.35,8.36363636 L17.3438063,8.2155131 C17.3008033,7.70365616 17.0370009,7.25685809 16.650466,6.97304007 Z M13.6666667,3.65 L4.33333333,3.65 C3.40554483,3.65 2.65,4.4153571 2.65,5.36363636 L2.65,5.36363636 L2.65,11.2727273 C2.65,11.367436 2.65748768,11.4609187 2.67225278,11.5526614 L2.67225278,11.5526614 L2.68051077,11.6559436 L2.68,14.464 L4.20497845,12.9863636 L13.6666667,12.9863636 C14.5944552,12.9863636 15.35,12.2210065 15.35,11.2727273 L15.35,11.2727273 L15.35,5.36363636 C15.35,4.4153571 14.5944552,3.65 13.6666667,3.65 L13.6666667,3.65 Z M11,8.9 C11.3313708,8.9 11.6,9.16862915 11.6,9.5 C11.6,9.79823376 11.3824104,10.0456468 11.0973231,10.092147 L11,10.1 L5,10.1 C4.66862915,10.1 4.4,9.83137085 4.4,9.5 C4.4,9.20176624 4.61758961,8.95435325 4.90267688,8.90785299 L5,8.9 L11,8.9 Z M11,5.9 C11.3313708,5.9 11.6,6.16862915 11.6,6.5 C11.6,6.79823376 11.3824104,7.04564675 11.0973231,7.09214701 L11,7.1 L5,7.1 C4.66862915,7.1 4.4,6.83137085 4.4,6.5 C4.4,6.20176624 4.61758961,5.95435325 4.90267688,5.90785299 L5,5.9 L11,5.9 Z" id="形状结合" fill="#808695"></path>
        </g>
    </g>
</svg>