<?xml version="1.0" encoding="UTF-8"?>
<svg width="20px" height="20px" viewBox="0 0 20 20" version="1.1" xmlns="http://www.w3.org/2000/svg" xmlns:xlink="http://www.w3.org/1999/xlink">
    <!-- Generator: Sketch 60.1 (88133) - https://sketch.com -->
    <title>研判_normal</title>
    <desc>Created with Sketch.</desc>
    <g id="研判_normal" stroke="none" stroke-width="1" fill="none" fill-rule="evenodd">
        <g>
            <rect id="矩形" x="0" y="0" width="20" height="20"></rect>
            <path d="M17.0588235,2 C17.5786209,2 18,2.42137906 18,2.94117647 L18,17.0588235 C18,17.5786209 17.5786209,18 17.0588235,18 L2.94117647,18 C2.42137906,18 2,17.5786209 2,17.0588235 L2,2.94117647 C2,2.42137906 2.42137906,2 2.94117647,2 L17.0588235,2 Z M16.7294118,3.27058824 L3.27058824,3.27058824 L3.27058824,16.7294118 L16.7294118,16.7294118 L16.7294118,3.27058824 Z M14.6849048,11.0378612 C14.9127887,11.2668892 14.9347424,11.6231524 14.7513416,11.8767007 L14.6826031,11.9570971 L13.808,12.826 L14.6826031,13.6961688 L14.7513416,13.7765652 C14.9347424,14.0301136 14.9127887,14.3863767 14.6849048,14.6154047 C14.4317004,14.8698803 14.0201444,14.8709108 13.7656688,14.6177064 L13.7656688,14.6177064 L12.887,13.743 L12.0086363,14.6177064 C11.7541607,14.8709108 11.3426048,14.8698803 11.0894004,14.6154047 C10.8615164,14.3863767 10.8395627,14.0301136 11.0229635,13.7765652 L11.0917021,13.6961688 L11.965,12.826 L11.0917021,11.9570971 L11.0229635,11.8767007 C10.8395627,11.6231524 10.8615164,11.2668892 11.0894004,11.0378612 C11.3426048,10.7833856 11.7541607,10.7823551 12.0086363,11.0355595 L12.0086363,11.0355595 L12.887,11.909 L13.7656688,11.0355595 C14.0201444,10.7823551 14.4317004,10.7833856 14.6849048,11.0378612 Z M14.1667262,5.54038059 C14.3951829,5.7688373 14.4180286,6.12504433 14.2352632,6.37905111 L14.1667262,6.45961941 L6.45961941,14.1667262 C6.20577862,14.420567 5.79422138,14.420567 5.54038059,14.1667262 C5.31192388,13.9382695 5.28907821,13.5820625 5.47184358,13.3280557 L5.54038059,13.2474874 L13.2474874,5.54038059 C13.5013282,5.2865398 13.9128854,5.2865398 14.1667262,5.54038059 Z M9.68490477,5.03786121 C9.91278873,5.26688924 9.93474241,5.62315236 9.75134159,5.87670071 L9.68260306,5.95709714 L7.0086363,8.61770643 C6.7840564,8.84116447 6.43611095,8.86717812 6.18282533,8.6932905 L6.10220178,8.62792084 L4.70354829,7.29761619 C4.44343144,7.05021063 4.4331269,6.63878241 4.68053247,6.37866556 C4.90319748,6.14456039 5.25872083,6.1128032 5.51722404,6.28915147 L5.5994831,6.35564973 L6.54,7.249 L8.76566884,5.03555949 C9.02014443,4.7823551 9.43170038,4.78338561 9.68490477,5.03786121 Z" id="形状结合" fill="#808695"></path>
        </g>
    </g>
</svg>