<?xml version="1.0" encoding="UTF-8"?>
<svg width="64px" height="56px" viewBox="0 0 64 56" version="1.1" xmlns="http://www.w3.org/2000/svg" xmlns:xlink="http://www.w3.org/1999/xlink">
    <!-- Generator: Sketch 60.1 (88133) - https://sketch.com -->
    <title>脑图占位</title>
    <desc>Created with Sketch.</desc>
    <defs>
        <filter x="-8.2%" y="-4.0%" width="116.5%" height="107.9%" filterUnits="objectBoundingBox" id="filter-1">
            <feOffset dx="-2" dy="2" in="SourceAlpha" result="shadowOffsetOuter1"></feOffset>
            <feGaussianBlur stdDeviation="6" in="shadowOffsetOuter1" result="shadowBlurOuter1"></feGaussianBlur>
            <feColorMatrix values="0 0 0 0 0   0 0 0 0 0   0 0 0 0 0  0 0 0 0.16 0" type="matrix" in="shadowBlurOuter1" result="shadowMatrixOuter1"></feColorMatrix>
            <feMerge>
                <feMergeNode in="shadowMatrixOuter1"></feMergeNode>
                <feMergeNode in="SourceGraphic"></feMergeNode>
            </feMerge>
        </filter>
        <rect id="path-2" x="0" y="0" width="64" height="56"></rect>
        <filter x="-35.2%" y="-40.2%" width="170.3%" height="180.4%" filterUnits="objectBoundingBox" id="filter-3">
            <feOffset dx="0" dy="0" in="SourceAlpha" result="shadowOffsetOuter1"></feOffset>
            <feGaussianBlur stdDeviation="7.5" in="shadowOffsetOuter1" result="shadowBlurOuter1"></feGaussianBlur>
            <feColorMatrix values="0 0 0 0 0   0 0 0 0 0   0 0 0 0 0  0 0 0 0.06 0" type="matrix" in="shadowBlurOuter1"></feColorMatrix>
        </filter>
    </defs>
    <g id="01研判" stroke="none" stroke-width="1" fill="none" fill-rule="evenodd">
        <g id="01-1研判" transform="translate(-1662.000000, -357.000000)">
            <g id="编组-4" filter="url(#filter-1)" transform="translate(1592.000000, 120.000000)">
                <g id="编组-14备份-3" transform="translate(60.000000, 227.000000)">
                    <g id="脑图占位" transform="translate(10.000000, 10.000000)">
                        <g id="矩形">
                            <use fill="black" fill-opacity="1" filter="url(#filter-3)" xlink:href="#path-2"></use>
                            <use fill="#FFFFFF" fill-rule="evenodd" xlink:href="#path-2"></use>
                        </g>
                        <path d="M53,12 C53.5522847,12 54,12.4477153 54,13 L54,21 C54,21.5522847 53.5522847,22 53,22 L37,22 C36.4477153,22 36,21.5522847 36,21 L36,17.5 L32.5,17.5 L32.5,38.5 L36,38.5 L36,35 C36,34.4477153 36.4477153,34 37,34 L53,34 C53.5522847,34 54,34.4477153 54,35 L54,43 C54,43.5522847 53.5522847,44 53,44 L37,44 C36.4477153,44 36,43.5522847 36,43 L36,39.5 L31.5,39.5 L31.5,28.5 L28,28.5 L28,32 C28,32.5522847 27.5522847,33 27,33 L11,33 C10.4477153,33 10,32.5522847 10,32 L10,24 C10,23.4477153 10.4477153,23 11,23 L27,23 C27.5522847,23 28,23.4477153 28,24 L28,27.5 L31.5,27.5 L31.5,16.5 L36,16.5 L36,13 C36,12.4477153 36.4477153,12 37,12 L53,12 Z" id="形状结合" fill="#999FAC" opacity="0.204679"></path>
                    </g>
                </g>
            </g>
        </g>
    </g>
</svg>