<?xml version="1.0" encoding="UTF-8"?>
<svg width="200px" height="200px" viewBox="0 0 200 200" version="1.1" xmlns="http://www.w3.org/2000/svg" xmlns:xlink="http://www.w3.org/1999/xlink">
    <!-- Generator: Sketch 60.1 (88133) - https://sketch.com -->
    <title>空状态_浅色</title>
    <desc>Created with Sketch.</desc>
    <defs>
        <linearGradient x1="86.7002925%" y1="90.8502975%" x2="33.7439764%" y2="-7.5984754%" id="linearGradient-1">
            <stop stop-color="#F2F2F2" stop-opacity="0" offset="0%"></stop>
            <stop stop-color="#E5E6E9" offset="93.2565292%"></stop>
            <stop stop-color="#F2F2F2" stop-opacity="0" offset="100%"></stop>
        </linearGradient>
        <circle id="path-2" cx="100" cy="100" r="100"></circle>
        <linearGradient x1="1.83688368%" y1="68.434904%" x2="100%" y2="68.434904%" id="linearGradient-4">
            <stop stop-color="#E6E6EA" offset="0%"></stop>
            <stop stop-color="#E7E7EA" offset="100%"></stop>
        </linearGradient>
        <linearGradient x1="83.0036536%" y1="45.3426096%" x2="32.0854753%" y2="75.7295091%" id="linearGradient-5">
            <stop stop-color="#EEEEEE" offset="0%"></stop>
            <stop stop-color="#D6D6D6" offset="100%"></stop>
        </linearGradient>
        <linearGradient x1="53.6332664%" y1="135.519988%" x2="50%" y2="-0.541060146%" id="linearGradient-6">
            <stop stop-color="#EEEEEE" offset="0%"></stop>
            <stop stop-color="#F8F9F9" offset="100%"></stop>
        </linearGradient>
        <linearGradient x1="57.0125695%" y1="71.0057742%" x2="57.0125695%" y2="-169.260465%" id="linearGradient-7">
            <stop stop-color="#D2D2D3" offset="0%"></stop>
            <stop stop-color="#F6F6F6" offset="100%"></stop>
        </linearGradient>
        <linearGradient x1="-18.0098265%" y1="55.4880509%" x2="116.756666%" y2="53.8004143%" id="linearGradient-8">
            <stop stop-color="#EFEFEF" offset="0%"></stop>
            <stop stop-color="#D9D9D9" offset="100%"></stop>
        </linearGradient>
        <linearGradient x1="-17.4941269%" y1="75.5968194%" x2="148.026292%" y2="47.0631861%" id="linearGradient-9">
            <stop stop-color="#F1F1F1" offset="0%"></stop>
            <stop stop-color="#D6D6D6" offset="100%"></stop>
        </linearGradient>
        <linearGradient x1="28.6577778%" y1="86.179339%" x2="71.3422222%" y2="44.7318391%" id="linearGradient-10">
            <stop stop-color="#F3F3F3" offset="0%"></stop>
            <stop stop-color="#D8D8D8" offset="100%"></stop>
        </linearGradient>
        <linearGradient x1="107.703792%" y1="45.473235%" x2="-2.73980504%" y2="50%" id="linearGradient-11">
            <stop stop-color="#F2F2F2" offset="0%"></stop>
            <stop stop-color="#E4E4E4" offset="100%"></stop>
        </linearGradient>
        <linearGradient x1="53.6210919%" y1="67.0246804%" x2="15.2241609%" y2="29.9444444%" id="linearGradient-12">
            <stop stop-color="#E4E4E4" offset="0%"></stop>
            <stop stop-color="#ECECEC" offset="100%"></stop>
        </linearGradient>
    </defs>
    <g id="空状态_浅色" stroke="none" stroke-width="1" fill="none" fill-rule="evenodd">
        <g>
            <circle id="椭圆形" fill="url(#linearGradient-1)" opacity="0.416643415" cx="100" cy="100" r="100"></circle>
            <g id="形状结合备份">
                <mask id="mask-3" fill="white">
                    <use xlink:href="#path-2"></use>
                </mask>
                <g id="蒙版" opacity="0.416643415"></g>
                <path d="M138.888889,64.4444444 L11.1111111,64.4444444 C4.97461389,64.4444444 7.51504168e-16,59.4698306 0,53.3333333 C-7.51504168e-16,47.1968361 4.97461389,42.2222222 11.1111111,42.2222222 L94.8736557,42.2227913 C99.5825079,40.3556328 102.840775,36.3307735 102.840775,31.6666667 C102.840775,27.7829644 100.581643,24.3424869 97.1070286,22.2218991 L63.3333333,22.2222222 C57.1968361,22.2222222 52.2222222,17.2476083 52.2222222,11.1111111 C52.2222222,4.97461389 57.1968361,1.12725625e-15 63.3333333,0 L138.888889,0 L138.888889,64.4444444 Z" fill="url(#linearGradient-4)" opacity="0.44" mask="url(#mask-3)" transform="translate(69.444444, 32.222222) scale(-1, -1) translate(-69.444444, -32.222222) "></path>
                <path d="M256.666667,115.555556 L256.666667,137.777778 L128.888889,137.777778 C122.752392,137.777778 117.777778,132.803164 117.777778,126.666667 C117.777778,120.530169 122.752392,115.555556 128.888889,115.555556 L256.666667,115.555556 Z M256.666667,73.3333333 L256.666667,95.5555556 L181.111111,95.5555556 C174.974614,95.5555556 170,90.5809417 170,84.4444444 C170,78.3079472 174.974614,73.3333333 181.111111,73.3333333 L256.666667,73.3333333 Z" fill="url(#linearGradient-4)" opacity="0.44" mask="url(#mask-3)" transform="translate(187.222222, 105.555556) scale(1, -1) translate(-187.222222, -105.555556) "></path>
            </g>
            <g id="纸箱" transform="translate(34.444444, 70.000000)">
                <polygon id="路径" fill="url(#linearGradient-5)" points="69.3230509 28.4071892 69.7263157 92.0660668 9.09473684 63.2011456 9.93739223 13.2450141"></polygon>
                <polygon id="path-24" fill="url(#linearGradient-6)" points="65.5400191 33.5587983 65.6842105 82.9713299 14.1473684 58.5471659 14.8636255 16.2765931"></polygon>
                <polygon id="路径" fill="url(#linearGradient-7)" fill-rule="nonzero" opacity="0.335449219" points="62.5101904 69.6534875 62.6526316 77.9186984 16.1684211 55.9080696 16.8759841 49.6239615"></polygon>
                <polygon id="路径" fill="url(#linearGradient-7)" fill-rule="nonzero" opacity="0.335449219" points="62.5101904 58.537698 62.6526316 66.8029089 16.1684211 44.7922801 16.8759841 38.508172"></polygon>
                <polygon id="路径" fill="url(#linearGradient-8)" points="68.8358129 32.4450141 55.5789473 29.2989552 57.4591855 0.108172 118.231579 16.3557087"></polygon>
                <polygon id="路径" fill="url(#linearGradient-9)" points="57.6 0.108172 57.6 25.3713299 10.1052632 8.47579747"></polygon>
                <polygon id="路径" fill="url(#linearGradient-10)" points="118.231579 64.778446 69.3976368 92.0660668 68.7157895 28.1613384 117.697584 16.2765931"></polygon>
                <polygon id="path-59" fill="url(#linearGradient-11)" points="69.7263157 28.5111904 61.7149589 54.6765931 0 28.2433201 10.162787 8.19238253"></polygon>
                <polygon id="path-63" fill="url(#linearGradient-12)" points="68.7157895 28.1613384 117.684163 16.2765931 129.347368 35.4765931 78.902944 54.6765931"></polygon>
            </g>
            <path d="M101.111111,63.3333333 C117.42551,60.5440652 125.868928,55.07907 126.441362,46.9383471 C127.300015,34.7272629 117.005391,41.2255318 119.603925,46.9383471 C122.202459,52.6511624 146.813179,54.7709363 162.222222,35.5555556" id="路径-8" stroke="#C2C2C4" stroke-width="1.5" stroke-dasharray="3.6" transform="translate(131.666667, 49.444444) rotate(-6.000000) translate(-131.666667, -49.444444) "></path>
        </g>
    </g>
</svg>