<?xml version="1.0" encoding="UTF-8"?>
<svg width="100px" height="100px" viewBox="0 0 100 100" version="1.1" xmlns="http://www.w3.org/2000/svg" xmlns:xlink="http://www.w3.org/1999/xlink">
    <!-- Generator: Sketch 60.1 (88133) - https://sketch.com -->
    <title>选择案件</title>
    <desc>Created with Sketch.</desc>
    <defs>
        <linearGradient x1="58.8553594%" y1="0%" x2="58.8553594%" y2="100%" id="linearGradient-1">
            <stop stop-color="#6B8AFE" offset="0%"></stop>
            <stop stop-color="#3C64F8" offset="100%"></stop>
        </linearGradient>
        <linearGradient x1="58.8553594%" y1="0%" x2="58.8553594%" y2="100%" id="linearGradient-2">
            <stop stop-color="#89A3FF" offset="0%"></stop>
            <stop stop-color="#5176FF" offset="100%"></stop>
        </linearGradient>
        <linearGradient x1="58.8553594%" y1="0%" x2="58.8553594%" y2="100%" id="linearGradient-3">
            <stop stop-color="#6B8AFE" offset="0%"></stop>
            <stop stop-color="#3C64F8" offset="100%"></stop>
        </linearGradient>
        <linearGradient x1="52.6013327%" y1="135.519988%" x2="50%" y2="-0.541060146%" id="linearGradient-4">
            <stop stop-color="#849EFF" offset="0%"></stop>
            <stop stop-color="#FDFDFE" offset="100%"></stop>
        </linearGradient>
        <linearGradient x1="56.0847783%" y1="57.3555945%" x2="50%" y2="45.6529514%" id="linearGradient-5">
            <stop stop-color="#849EFF" offset="0%"></stop>
            <stop stop-color="#FDFDFE" offset="100%"></stop>
        </linearGradient>
        <linearGradient x1="105.128431%" y1="47.9629762%" x2="-22.9001143%" y2="51.9550735%" id="linearGradient-6">
            <stop stop-color="#F1F3FD" offset="0%"></stop>
            <stop stop-color="#E1E7FE" offset="100%"></stop>
        </linearGradient>
        <linearGradient x1="57.0125695%" y1="71.0057742%" x2="57.0125695%" y2="-169.260465%" id="linearGradient-7">
            <stop stop-color="#6E8DFF" offset="0%"></stop>
            <stop stop-color="#D1DBFF" offset="100%"></stop>
        </linearGradient>
        <linearGradient x1="57.0125695%" y1="71.0057742%" x2="57.0125695%" y2="-169.260465%" id="linearGradient-8">
            <stop stop-color="#6E8DFF" offset="0%"></stop>
            <stop stop-color="#D1DBFF" offset="100%"></stop>
        </linearGradient>
        <linearGradient x1="57.0125695%" y1="71.0057742%" x2="57.0125695%" y2="-169.260465%" id="linearGradient-9">
            <stop stop-color="#6E8DFF" offset="0%"></stop>
            <stop stop-color="#D1DBFF" offset="100%"></stop>
        </linearGradient>
    </defs>
    <g id="01研判" stroke="none" stroke-width="1" fill="none" fill-rule="evenodd">
        <g id="01-1-1选择案件" transform="translate(-1730.000000, -343.000000)">
            <g id="请先选择案件" transform="translate(1730.000000, 343.000000)">
                <g id="成功">
                    <g id="形状结合备份" transform="translate(20.000000, 12.000000)">
                        <g id="分组-4" transform="translate(0.444444, 0.777778)">
                            <path d="M6.93890989,0.807164761 L44.2416351,0.0924042366 L44.2416351,0.0924042366 C48.7849736,-0.0308014122 52.1752702,-0.0308014122 54.4125249,0.0924042366 C54.7891043,0.113142467 55.1387453,0.137686949 55.4614478,0.166037681 C57.0518821,0.305774467 58.2718849,1.63765856 58.2718849,3.23421981 L58.2718849,71.7087579 C58.2718849,73.409795 56.8929219,74.7887579 55.1918849,74.7887579 C55.0578491,74.7887579 54.9239561,74.7800085 54.7910602,74.7625653 L48.7551551,73.970328 L48.7551551,73.970328 L6.64898877,69.1693046 C5.09304002,68.9918924 3.9179152,67.6751636 3.9179152,66.109133 L3.9179152,3.88659951 C3.9179152,2.20856144 5.26117979,0.839311884 6.93890989,0.807164761 Z" id="矩形" fill="url(#linearGradient-1)"></path>
                            <path d="M3.90733109,0.0924042365 L52.1013007,0.0924042365 C53.8023377,0.0924042365 55.1813007,1.47136721 55.1813007,3.17240424 L55.1813007,71.8065009 C55.1813007,73.5075379 53.8023377,74.8865009 52.1013007,74.8865009 C51.9960814,74.8865009 51.8909314,74.8811091 51.786264,74.8703468 L3.59229431,69.914853 C2.02151669,69.7533395 0.827331086,68.4300666 0.827331086,66.8510071 L0.827331086,3.17240424 C0.827331086,1.47136721 2.206294,0.0924042365 3.90733109,0.0924042365 Z" id="path-18" fill="url(#linearGradient-2)"></path>
                            <g id="编组-8" transform="translate(28.349743, 48.367117) rotate(-1.000000) translate(-28.349743, -48.367117) translate(19.949743, 37.167117)">
                                <path d="M9.77273684,15.96 L10.1861053,12.9870588 L15.6350526,8.80147059 L16.8,0 L3.15884211,0 L2.52,4.88970588 L10.7873684,4.88970588 L10.4867368,7.04117647 L5.07536842,10.8355882 L4.39894737,15.96 L9.77273684,15.96 Z M8.65925926,21.84 L9.24,17.64 L3.94074074,17.64 L3.36,21.84 L8.65925926,21.84 Z" id="？" fill="url(#linearGradient-3)"></path>
                                <path d="M7.25273684,15.96 L7.66610526,12.9870588 L13.1150526,8.80147059 L14.28,0 L0.638842105,0 L0,4.88970588 L8.26736842,4.88970588 L7.96673684,7.04117647 L2.55536842,10.8355882 L1.87894737,15.96 L7.25273684,15.96 Z M6.13925926,21.84 L6.72,17.64 L1.42074074,17.64 L0.84,21.84 L6.13925926,21.84 Z" id="？" fill="url(#linearGradient-4)"></path>
                            </g>
                            <path d="M2.68667904,15.6526648 C22.058032,13.8143668 36.6336216,12.7262457 46.4134479,12.3883018 C47.4982138,12.285705 48.2708598,12.285705 48.7313861,12.3883018 C48.9209788,12.4305397 49.2977888,12.5828042 49.861816,12.8450955 C50.5860993,13.1819098 51.0493241,13.9081875 51.0493241,14.7069554 L51.0493241,24.9868773 C51.0493241,26.120902 50.1300155,27.0402106 48.9959908,27.0402106 C48.959133,27.0402106 48.9222818,27.0392183 48.8854774,27.0372344 L2.77014991,24.551637 C1.68064878,24.4929134 0.827329956,23.5923623 0.827329956,22.5012798 L0.827329956,20.1384624 L0.827329956,20.1384624 L0.827329956,17.6968046 C0.827329956,16.6379318 1.63254216,15.7527 2.68667904,15.6526648 Z" id="path-21" fill="url(#linearGradient-5)"></path>
                            <path d="M2.06649342,13.2991197 L46.6365277,12.3975874 C47.7703205,12.3746538 48.7080325,13.275183 48.7313861,14.4089758 C48.7313861,14.4228157 48.7313861,14.436658 48.7313861,14.4505008 L48.7313861,24.9866366 C48.7313861,26.1206613 47.8120774,27.03997 46.6780527,27.03997 C46.6349168,27.03997 46.5917916,27.0386108 46.5487413,27.0358942 L1.97870695,24.2234544 C0.897042779,24.1551997 0.0546849551,23.2580124 0.0546849551,22.1741969 L0.0546849551,15.352033 C0.0546849551,14.2341922 0.94888113,13.321726 2.06649342,13.2991197 Z" id="矩形" fill="url(#linearGradient-6)"></path>
                            <rect id="矩形" fill="url(#linearGradient-7)" fill-rule="nonzero" opacity="0.335449219" x="1.61517517" y="14.5812821" width="38.6323024" height="1.15896907"></rect>
                            <circle id="椭圆形" fill="url(#linearGradient-8)" fill-rule="nonzero" opacity="0.335449219" cx="44.0955098" cy="17.7708592" r="2.31793815"></circle>
                            <rect id="矩形-copy-9" fill="url(#linearGradient-7)" fill-rule="nonzero" opacity="0.335449219" x="1.61517517" y="18.4445123" width="38.6323024" height="1.15896907"></rect>
                            <polygon id="矩形-copy-10" fill="url(#linearGradient-9)" fill-rule="nonzero" opacity="0.335449219" transform="translate(23.635588, 22.887227) rotate(2.000000) translate(-23.635588, -22.887227) " points="1.61517518 22.3077426 45.6559999 22.3077426 45.6559999 23.4667117 1.61517518 23.4667117"></polygon>
                        </g>
                    </g>
                </g>
            </g>
        </g>
    </g>
</svg>