<?xml version="1.0" encoding="UTF-8"?>
<svg width="20px" height="20px" viewBox="0 0 20 20" version="1.1" xmlns="http://www.w3.org/2000/svg" xmlns:xlink="http://www.w3.org/1999/xlink">
    <!-- Generator: Sketch 60.1 (88133) - https://sketch.com -->
    <title>工具_normal</title>
    <desc>Created with Sketch.</desc>
    <g id="工具_normal" stroke="none" stroke-width="1" fill="none" fill-rule="evenodd">
        <g>
            <rect id="矩形" x="0" y="0" width="20" height="20"></rect>
            <path d="M13.6342983,3.00390625 C14.2162996,3.00390625 14.6891756,3.46045493 14.6891756,4.02236101 L14.689,5.15990625 L17.4215859,5.16063397 C18.0164254,5.16063397 18.5,5.62751181 18.5,6.20181287 L18.5,16.9627273 C18.5,17.5370284 18.0164254,18.0039062 17.4194462,18.0039062 L2.5784141,18.0039062 C1.98357458,18.0039062 1.5,17.5370284 1.5,16.9627273 L1.5,6.20181287 C1.5,5.62751181 1.98357458,5.16063397 2.5784141,5.16063397 L5.308,5.15990625 L5.30868471,4.02236101 C5.30868471,3.46045493 5.78156073,3.00390625 6.36356199,3.00390625 L13.6342983,3.00390625 Z M17.205,10.1929063 L12.6684827,10.1939604 C12.3216923,11.2989114 11.2560578,12.1059583 9.99893014,12.1059583 C8.74210699,12.1059583 7.67835247,11.2992331 7.33028128,10.1942945 L2.794,10.1929063 L2.79452486,16.7540784 L17.2054751,16.7540784 L17.205,10.1929063 Z M11.4719009,10.1933625 L8.52468988,10.1932535 C8.81123078,10.6954363 9.36501275,11.0358578 9.99893014,11.0358578 C10.632416,11.0358578 11.1858755,10.6949338 11.4719009,10.1933625 Z M17.2054751,6.41046182 L2.79452486,6.41046182 L2.794,8.94290625 L17.205,8.94290625 L17.2054751,6.41046182 Z M13.3946507,4.2537341 L6.60320957,4.2537341 L6.603,5.15990625 L13.394,5.15990625 L13.3946507,4.2537341 Z" id="形状结合" fill="#808695"></path>
        </g>
    </g>
</svg>