<?xml version="1.0" encoding="UTF-8"?>
<svg width="128px" height="24px" viewBox="0 0 128 24" version="1.1" xmlns="http://www.w3.org/2000/svg" xmlns:xlink="http://www.w3.org/1999/xlink">
    <!-- Generator: Sketch 60.1 (88133) - https://sketch.com -->
    <title>图片</title>
    <desc>Created with Sketch.</desc>
    <defs>
        <filter x="-8.2%" y="-4.0%" width="117.7%" height="107.9%" filterUnits="objectBoundingBox" id="filter-1">
            <feOffset dx="-2" dy="2" in="SourceAlpha" result="shadowOffsetOuter1"></feOffset>
            <feGaussianBlur stdDeviation="6" in="shadowOffsetOuter1" result="shadowBlurOuter1"></feGaussianBlur>
            <feColorMatrix values="0 0 0 0 0   0 0 0 0 0   0 0 0 0 0  0 0 0 0.2 0" type="matrix" in="shadowBlurOuter1" result="shadowMatrixOuter1"></feColorMatrix>
            <feMerge>
                <feMergeNode in="shadowMatrixOuter1"></feMergeNode>
                <feMergeNode in="SourceGraphic"></feMergeNode>
            </feMerge>
        </filter>
        <linearGradient x1="0%" y1="50%" x2="100%" y2="50%" id="linearGradient-2">
            <stop stop-color="#FFFFFF" offset="0%"></stop>
            <stop stop-color="#D0D0D0" offset="100%"></stop>
        </linearGradient>
        <linearGradient x1="100%" y1="0%" x2="0%" y2="0%" id="linearGradient-3">
            <stop stop-color="#FFFFFF" stop-opacity="0" offset="0%"></stop>
            <stop stop-color="#FF8673" offset="100%"></stop>
        </linearGradient>
    </defs>
    <g id="trash" stroke="none" stroke-width="1" fill="none" fill-rule="evenodd">
        <g id="02-1收藏备份" transform="translate(-1780.000000, -451.000000)">
            <g id="编组-4" filter="url(#filter-1)" transform="translate(1592.000000, 180.000000)">
                <g id="编组-7备份-4" transform="translate(60.000000, 269.500000)">
                    <g id="编组-8" transform="translate(0.000000, 0.500000)">
                        <g id="编组-9" transform="translate(128.000000, 0.500000)">
                            <path d="M0,0.5 L124,0.5 C126.209139,0.5 128,2.290861 128,4.5 L128,24.5 L128,24.5 L0,24.5 L0,0.5 Z" id="矩形" fill="url(#linearGradient-2)" opacity="0.239999995"></path>
                            <path d="M52,0.5 L128,0.5 L128,0.5 L118.4,21.5 L48,21.5 L48,4.5 C48,2.290861 49.790861,0.5 52,0.5 Z" id="矩形" fill="url(#linearGradient-3)" opacity="0.159999996" transform="translate(88.000000, 11.000000) scale(-1, 1) translate(-88.000000, -11.000000) "></path>
                            <path d="M99.04,17.84 L100.96,4.16 L85.02,4.16 L85.66,4.9 L83.84,17.84 L99.04,17.84 Z M96.26,15.94 L87.14,15.94 L88.54,6.06 L97.66,6.06 L96.26,15.94 Z M91.58,11.38 L92.4,10.94 L93.1,11.38 L96.34,11.38 L96.54,10.06 L94.8,10.06 L94.44,9.84 L96.52,8.72 L96.8,6.72 L91.62,6.72 L91.72,6.44 L89.44,6.44 L88.48,9.1 L89.5,9.1 L90.68,9.86 L90.28,10.06 L88.54,10.06 L88.34,11.38 L91.58,11.38 Z M92.72,8.76 L91.62,8.06 L93.98,8.06 L92.72,8.76 Z M95.22,13.66 L95.44,12.14 L89.1,11.76 L88.88,13.28 L95.22,13.66 Z M95.56,15.56 L95.78,14.04 L88.22,13.66 L88.02,15.18 L95.56,15.56 Z M105.84,18.18 L106.72,12.9 L113.82,12.9 L113.06,18.18 L116.86,18.18 L117.94,10.62 L107.1,10.62 L107.3,9.48 L119.24,9.48 L119.56,7.2 L115.38,7.2 L115.86,3.78 L111.3,3.78 L111.94,4.54 L111.56,7.2 L107.68,7.2 L108.2,4.16 L103.64,4.16 L104.28,4.9 L102.04,18.18 L105.84,18.18 Z" id="图片" fill="#FF8673" fill-rule="nonzero"></path>
                        </g>
                    </g>
                </g>
            </g>
        </g>
    </g>
</svg>