<?xml version="1.0" encoding="UTF-8"?>
<svg width="128px" height="24px" viewBox="0 0 128 24" version="1.1" xmlns="http://www.w3.org/2000/svg" xmlns:xlink="http://www.w3.org/1999/xlink">
    <!-- Generator: Sketch 60.1 (88133) - https://sketch.com -->
    <title>其它</title>
    <desc>Created with Sketch.</desc>
    <defs>
        <filter x="-8.2%" y="-4.0%" width="117.7%" height="107.9%" filterUnits="objectBoundingBox" id="filter-1">
            <feOffset dx="-2" dy="2" in="SourceAlpha" result="shadowOffsetOuter1"></feOffset>
            <feGaussianBlur stdDeviation="6" in="shadowOffsetOuter1" result="shadowBlurOuter1"></feGaussianBlur>
            <feColorMatrix values="0 0 0 0 0   0 0 0 0 0   0 0 0 0 0  0 0 0 0.16 0" type="matrix" in="shadowBlurOuter1" result="shadowMatrixOuter1"></feColorMatrix>
            <feMerge>
                <feMergeNode in="shadowMatrixOuter1"></feMergeNode>
                <feMergeNode in="SourceGraphic"></feMergeNode>
            </feMerge>
        </filter>
        <linearGradient x1="-3.38744301%" y1="50%" x2="100%" y2="50%" id="linearGradient-2">
            <stop stop-color="#FFFFFF" offset="0%"></stop>
            <stop stop-color="#D0D0D0" offset="100%"></stop>
        </linearGradient>
        <linearGradient x1="100%" y1="0%" x2="0%" y2="0%" id="linearGradient-3">
            <stop stop-color="#FFFFFF" stop-opacity="0" offset="0%"></stop>
            <stop stop-color="#5C779B" offset="100%"></stop>
        </linearGradient>
    </defs>
    <g id="02收藏" stroke="none" stroke-width="1" fill="none" fill-rule="evenodd">
        <g id="02-1收藏备份" transform="translate(-1780.000000, -305.000000)">
            <g id="编组-15" filter="url(#filter-1)" transform="translate(1592.000000, 120.000000)">
                <g id="编组-9备份" transform="translate(60.000000, 185.000000)">
                    <g id="其它" transform="translate(128.000000, 0.000000)">
                        <path d="M0,0 L124,0 C126.209139,-4.05812251e-16 128,1.790861 128,4 L128,24 L128,24 L0,24 L0,0 Z" id="矩形" fill="url(#linearGradient-2)" opacity="0.239999995"></path>
                        <path d="M52,0 L128,0 L128,0 L118.4,21 L48,21 L48,4 C48,1.790861 49.790861,4.05812251e-16 52,0 Z" id="矩形" fill="url(#linearGradient-3)" opacity="0.159999996" transform="translate(88.000000, 10.500000) scale(-1, 1) translate(-88.000000, -10.500000) "></path>
                        <path d="M101.96,13.38 L102.22,11.48 L99.94,11.48 L100.68,6.16 L102.22,6.16 L102.48,4.26 L100.96,4.26 L101.1,3.3 L96.54,3.3 L97.18,4.06 L97.14,4.26 L92.6,4.26 L92.74,3.3 L88.18,3.3 L88.82,4.06 L88.78,4.26 L87.28,4.26 L87.02,6.16 L88.52,6.16 L87.78,11.48 L85.5,11.48 L85.24,13.38 L101.96,13.38 Z M96.78,6.84 L92.24,6.84 L92.34,6.16 L96.88,6.16 L96.78,6.84 Z M96.44,9.26 L91.9,9.26 L92.02,8.36 L96.58,8.36 L96.44,9.26 Z M96.14,11.48 L91.58,11.48 L91.68,10.78 L96.24,10.78 L96.14,11.48 Z M100.96,17.7 L98.84,13.94 L94.66,13.94 L96.78,17.7 L100.96,17.7 Z M89.18,17.7 L92.38,13.94 L88.2,13.94 L85,17.7 L89.18,17.7 Z M108.12,7.48 L108.28,6.34 L115.88,6.34 L115.72,7.48 L119.9,7.48 L120.32,4.44 L114.24,4.44 L114.4,3.3 L109.84,3.3 L110.5,4.04 L110.44,4.44 L104.36,4.44 L103.94,7.48 L108.12,7.48 Z M118.52,17.36 L118.94,14.32 L118.08,15.08 L108.58,15.08 L108.84,13.16 L118.12,12.04 L118.5,9.38 L109.22,10.5 L109.54,8.24 L104.98,8.24 L105.62,9 L104.46,17.36 L118.52,17.36 Z" fill="#5C779B" fill-rule="nonzero"></path>
                    </g>
                </g>
            </g>
        </g>
    </g>
</svg>