<?xml version="1.0" encoding="UTF-8"?>
<svg width="128px" height="24px" viewBox="0 0 128 24" version="1.1" xmlns="http://www.w3.org/2000/svg" xmlns:xlink="http://www.w3.org/1999/xlink">
    <!-- Generator: Sketch 60.1 (88133) - https://sketch.com -->
    <title>链接</title>
    <desc>Created with Sketch.</desc>
    <defs>
        <filter x="-8.2%" y="-4.0%" width="117.7%" height="107.9%" filterUnits="objectBoundingBox" id="filter-1">
            <feOffset dx="-2" dy="2" in="SourceAlpha" result="shadowOffsetOuter1"></feOffset>
            <feGaussianBlur stdDeviation="6" in="shadowOffsetOuter1" result="shadowBlurOuter1"></feGaussianBlur>
            <feColorMatrix values="0 0 0 0 0   0 0 0 0 0   0 0 0 0 0  0 0 0 0.2 0" type="matrix" in="shadowBlurOuter1" result="shadowMatrixOuter1"></feColorMatrix>
            <feMerge>
                <feMergeNode in="shadowMatrixOuter1"></feMergeNode>
                <feMergeNode in="SourceGraphic"></feMergeNode>
            </feMerge>
        </filter>
        <linearGradient x1="0%" y1="50%" x2="100%" y2="50%" id="linearGradient-2">
            <stop stop-color="#FFFFFF" offset="0%"></stop>
            <stop stop-color="#D0D0D0" offset="100%"></stop>
        </linearGradient>
        <linearGradient x1="100%" y1="0%" x2="0%" y2="0%" id="linearGradient-3">
            <stop stop-color="#FFFFFF" stop-opacity="0" offset="0%"></stop>
            <stop stop-color="#FFB42B" offset="100%"></stop>
        </linearGradient>
        <path d="M98.04,15.7 L98.28,13.96 L100.04,13.96 L100.3,12.08 L98.54,12.08 L98.72,10.9 L100.22,10.9 L100.46,9.2 L98.96,9.2 L99.18,7.62 L96.9,7.62 L96.66,9.2 L96.04,9.2 L97.16,6.86 L101.04,6.86 L101.3,4.96 L98.08,4.96 L98.64,3.8 L95.4,3.8 L95.9,4.48 L95.66,4.96 L93.98,4.96 L93.72,6.86 L94.72,6.86 L93.66,9 L93.4,10.9 L95.86,10.9 L95.68,12.08 L93.04,12.08 L92.78,13.96 L95.42,13.96 L95.18,15.7 L98.04,15.7 Z M86.9,7.66 L87.2,6.96 L89.64,6.96 L89.9,5.2 L87.96,5.2 L88.58,3.8 L85.18,3.8 L85.7,4.4 L84.26,7.66 L86.9,7.66 Z M93.28,7.8 L93.1,4.3 L90.32,4.3 L90.52,7.8 L93.28,7.8 Z M83.98,18.14 L88.24,17.18 L88.5,15.34 L87.44,15.58 L87.76,13.18 L88.92,13.18 L89.2,11.18 L88.04,11.18 L88.22,9.92 L89.1,9.92 L89.38,7.98 L84.6,7.98 L84.32,9.92 L85.12,9.92 L84.94,11.18 L83.76,11.18 L83.48,13.18 L84.66,13.18 L83.98,18.14 Z M91.32,17.82 L91.58,17.22 L93.12,17.82 L99.5,17.82 L99.76,15.92 L94.54,15.92 L92.16,15.2 L93.1,8.52 L89.74,8.52 L89.52,10.1 L90.06,10.1 L89.26,15.88 L88.3,17.82 L91.32,17.82 Z M105.18,18.18 C105.553333,18.18 105.886667,18.0566667 106.18,17.81 C106.473333,17.5633333 106.653333,17.2466667 106.72,16.86 L106.72,16.86 L107.3,12.68 L108.88,12.34 L109.16,10.24 L107.6,10.58 L107.98,7.96 L109.48,7.96 L109.76,6.06 L108.24,6.06 L108.56,3.78 L104.56,3.78 L105.06,4.36 L104.82,6.06 L103.3,6.06 L103.02,7.96 L104.54,7.96 L104.06,11.36 L102.5,11.7 L102.2,13.78 L103.78,13.44 L103.36,16.38 L101.8,18.18 L105.18,18.18 Z M119.52,6.82 L119.8,4.92 L116.76,4.92 L116.92,3.78 L113.12,3.78 L113.76,4.54 L113.72,4.92 L110.68,4.92 L110.4,6.82 L119.52,6.82 Z M119.18,10.62 L119.44,8.72 L118.14,8.72 L118.92,7.2 L115.88,7.2 L115.1,8.72 L114.32,8.72 L113.98,7.2 L110.94,7.2 L111.28,8.72 L109.94,8.72 L109.68,10.62 L119.18,10.62 Z M112.42,18.18 L113.62,17.44 L114.7,18.18 L118.7,18.18 L115.76,16.08 L117.82,14.8 L118.02,13.38 L119,13.38 L119.26,11.5 L118.28,11.5 L118.36,11.04 L115.32,11.04 L115.24,11.5 L113.36,11.5 L113.44,11.04 L110.4,11.04 L110.34,11.5 L109.38,11.5 L109.12,13.38 L110.06,13.38 L109.86,14.82 L111.7,16.1 L108.42,18.18 L112.42,18.18 Z M113.88,14.74 L113,14.1 L113.1,13.38 L114.98,13.38 L114.88,14.1 L113.88,14.74 Z" id="path-4"></path>
    </defs>
    <g id="trash" stroke="none" stroke-width="1" fill="none" fill-rule="evenodd">
        <g id="02-1收藏备份" transform="translate(-1780.000000, -628.000000)">
            <g id="编组-4" filter="url(#filter-1)" transform="translate(1592.000000, 180.000000)">
                <g id="编组-7备份-4" transform="translate(60.000000, 446.500000)">
                    <g id="编组-8" transform="translate(0.000000, 0.500000)">
                        <g id="编组-12" transform="translate(128.000000, 0.500000)">
                            <path d="M0,0.5 L124,0.5 C126.209139,0.5 128,2.290861 128,4.5 L128,24.5 L128,24.5 L0,24.5 L0,0.5 Z" id="矩形" fill="url(#linearGradient-2)" opacity="0.239999995"></path>
                            <path d="M52,0.5 L128,0.5 L128,0.5 L118.4,21.5 L48,21.5 L48,4.5 C48,2.290861 49.790861,0.5 52,0.5 Z" id="矩形" fill="url(#linearGradient-3)" opacity="0.159999996" transform="translate(88.000000, 11.000000) scale(-1, 1) translate(-88.000000, -11.000000) "></path>
                            <g id="链接" fill-rule="nonzero">
                                <use fill="#84AEFF" xlink:href="#path-4"></use>
                                <use fill="#FFB42B" xlink:href="#path-4"></use>
                            </g>
                        </g>
                    </g>
                </g>
            </g>
        </g>
    </g>
</svg>