<?xml version="1.0" encoding="UTF-8"?>
<svg width="128px" height="24px" viewBox="0 0 128 24" version="1.1" xmlns="http://www.w3.org/2000/svg" xmlns:xlink="http://www.w3.org/1999/xlink">
    <!-- Generator: Sketch 60.1 (88133) - https://sketch.com -->
    <title>IP</title>
    <desc>Created with Sketch.</desc>
    <defs>
        <filter x="-8.2%" y="-4.0%" width="117.7%" height="107.9%" filterUnits="objectBoundingBox" id="filter-1">
            <feOffset dx="-2" dy="2" in="SourceAlpha" result="shadowOffsetOuter1"></feOffset>
            <feGaussianBlur stdDeviation="6" in="shadowOffsetOuter1" result="shadowBlurOuter1"></feGaussianBlur>
            <feColorMatrix values="0 0 0 0 0   0 0 0 0 0   0 0 0 0 0  0 0 0 0.16 0" type="matrix" in="shadowBlurOuter1" result="shadowMatrixOuter1"></feColorMatrix>
            <feMerge>
                <feMergeNode in="shadowMatrixOuter1"></feMergeNode>
                <feMergeNode in="SourceGraphic"></feMergeNode>
            </feMerge>
        </filter>
        <linearGradient x1="-3.38744301%" y1="50%" x2="100%" y2="50%" id="linearGradient-2">
            <stop stop-color="#FFFFFF" offset="0%"></stop>
            <stop stop-color="#D0D0D0" offset="100%"></stop>
        </linearGradient>
        <linearGradient x1="100%" y1="0%" x2="0%" y2="0%" id="linearGradient-3">
            <stop stop-color="#FFFFFF" stop-opacity="0" offset="0%"></stop>
            <stop stop-color="#70D6C2" offset="100%"></stop>
        </linearGradient>
    </defs>
    <g id="一期" stroke="none" stroke-width="1" fill="none" fill-rule="evenodd">
        <g id="02-1收藏" transform="translate(-1780.000000, -217.000000)">
            <g id="编组-15" filter="url(#filter-1)" transform="translate(1592.000000, 120.000000)">
                <g id="编组-9" transform="translate(60.000000, 97.000000)">
                    <g id="IP" transform="translate(128.000000, 0.000000)">
                        <path d="M0,0 L124,0 C126.209139,-4.05812251e-16 128,1.790861 128,4 L128,24 L128,24 L0,24 L0,0 Z" id="矩形" fill="url(#linearGradient-2)" opacity="0.239999995"></path>
                        <path d="M52,0 L128,0 L128,0 L118.4,21 L48,21 L48,4 C48,1.790861 49.790861,4.05812251e-16 52,0 Z" id="矩形" fill="url(#linearGradient-3)" opacity="0.159999996" transform="translate(88.000000, 10.500000) scale(-1, 1) translate(-88.000000, -10.500000) "></path>
                        <path d="M102.32,16.3 L104.06,4.98 L99.44,4.98 L100.02,5.74 L98.68,16.3 L102.32,16.3 Z M109.6,16.3 L110.18,12.46 L116.9,12.46 C117.193333,12.46 117.496667,12.3333333 117.81,12.08 C118.123333,11.8266667 118.333333,11.5066667 118.44,11.12 L118.44,11.12 L119.2,4.98 L106.72,4.98 L107.3,5.54 L105.96,16.3 L109.6,16.3 Z M114.6,10.54 L110.56,10.54 L110.96,6.9 L115.18,6.9 L114.6,10.54 Z" fill="#75DCC6" fill-rule="nonzero"></path>
                    </g>
                </g>
            </g>
        </g>
    </g>
</svg>