<?xml version="1.0" encoding="UTF-8"?>
<svg width="128px" height="25px" viewBox="0 0 128 25" version="1.1" xmlns="http://www.w3.org/2000/svg" xmlns:xlink="http://www.w3.org/1999/xlink">
    <!-- Generator: Sketch 60.1 (88133) - https://sketch.com -->
    <title>文本</title>
    <desc>Created with Sketch.</desc>
    <defs>
        <filter x="-8.2%" y="-4.0%" width="117.7%" height="107.9%" filterUnits="objectBoundingBox" id="filter-1">
            <feOffset dx="-2" dy="2" in="SourceAlpha" result="shadowOffsetOuter1"></feOffset>
            <feGaussianBlur stdDeviation="6" in="shadowOffsetOuter1" result="shadowBlurOuter1"></feGaussianBlur>
            <feColorMatrix values="0 0 0 0 0   0 0 0 0 0   0 0 0 0 0  0 0 0 0.2 0" type="matrix" in="shadowBlurOuter1" result="shadowMatrixOuter1"></feColorMatrix>
            <feMerge>
                <feMergeNode in="shadowMatrixOuter1"></feMergeNode>
                <feMergeNode in="SourceGraphic"></feMergeNode>
            </feMerge>
        </filter>
        <linearGradient x1="0%" y1="50%" x2="100%" y2="50%" id="linearGradient-2">
            <stop stop-color="#FFFFFF" offset="0%"></stop>
            <stop stop-color="#D0D0D0" offset="100%"></stop>
        </linearGradient>
        <linearGradient x1="100%" y1="0%" x2="0%" y2="0%" id="linearGradient-3">
            <stop stop-color="#FFFFFF" stop-opacity="0" offset="0%"></stop>
            <stop stop-color="#6485FF" offset="100%"></stop>
        </linearGradient>
        <path d="M88.54,18.18 L91.92,15.9 L94.68,18.18 L99.94,18.18 L94.84,13.92 L98.6,11.38 L98.64,11.38 L99.18,7.58 L101.26,7.58 L101.52,5.68 L95.26,5.68 L95.54,3.78 L90.98,3.78 L91.62,4.54 L91.46,5.68 L85.2,5.68 L84.94,7.58 L87.02,7.58 L86.48,11.38 L86.54,11.38 L89.58,13.92 L83.28,18.18 L88.54,18.18 Z M92.5,11.96 L90.36,10.16 L90.72,7.58 L95.48,7.58 L95.12,10.18 L92.5,11.96 Z M111.98,18.14 L112.3,15.82 L113.92,15.82 L114.18,13.92 L112.56,13.92 L113.36,8.24 L119.38,8.24 L119.66,6.34 L113.62,6.34 L113.98,3.8 L109.5,3.8 L110.08,4.6 L109.84,6.34 L103.7,6.34 L103.42,8.24 L109.56,8.24 L108.78,13.92 L107.14,13.92 L106.88,15.82 L108.5,15.82 L108.18,18.14 L111.98,18.14 Z M118.56,17.12 L117.54,8.86 L113.74,8.86 L114.76,17.12 L118.56,17.12 Z M105.74,17.1 L108.94,8.86 L105.14,8.86 L101.94,17.1 L105.74,17.1 Z" id="path-4"></path>
    </defs>
    <g id="trash" stroke="none" stroke-width="1" fill="none" fill-rule="evenodd">
        <g id="02-1收藏备份" transform="translate(-1780.000000, -539.000000)">
            <g id="编组-4" filter="url(#filter-1)" transform="translate(1592.000000, 180.000000)">
                <g id="编组-7备份-4" transform="translate(60.000000, 358.000000)">
                    <g id="编组-8" transform="translate(0.000000, 0.500000)">
                        <g id="编组-11" transform="translate(128.000000, 0.500000)">
                            <path d="M0,0.5 L124,0.5 C126.209139,0.5 128,2.290861 128,4.5 L128,24.5 L128,24.5 L0,24.5 L0,0.5 Z" id="矩形" fill="url(#linearGradient-2)" opacity="0.239999995"></path>
                            <path d="M52,0.5 L128,0.5 L128,0.5 L118.4,21.5 L48,21.5 L48,4.5 C48,2.290861 49.790861,0.5 52,0.5 Z" id="矩形" fill="url(#linearGradient-3)" opacity="0.159999996" transform="translate(88.000000, 11.000000) scale(-1, 1) translate(-88.000000, -11.000000) "></path>
                            <g id="文本" fill-rule="nonzero">
                                <use fill="#84AEFF" xlink:href="#path-4"></use>
                                <use fill="#6485FF" xlink:href="#path-4"></use>
                            </g>
                        </g>
                    </g>
                </g>
            </g>
        </g>
    </g>
</svg>